<?xml version="1.0" standalone="no"?>
<!DOCTYPE svg PUBLIC "-//W3C//DTD SVG 1.1//EN" "http://www.w3.org/Graphics/SVG/1.1/DTD/svg11.dtd" >
<svg xmlns="http://www.w3.org/2000/svg" xmlns:xlink="http://www.w3.org/1999/xlink" version="1.1">
<metadata></metadata>
<defs>
<font id="interstate-regularcondensedRg" horiz-adv-x="1536" >
<font-face units-per-em="2048" ascent="1638" descent="-410" />
<missing-glyph horiz-adv-x="450" />
<glyph horiz-adv-x="0" />
<glyph unicode="&#xd;" horiz-adv-x="1024" />
<glyph unicode=" "  horiz-adv-x="450" />
<glyph unicode="&#x09;" horiz-adv-x="450" />
<glyph unicode="&#xa0;" horiz-adv-x="450" />
<glyph unicode="!" horiz-adv-x="507" d="M115 117q0 -59 40 -99.5t99 -40.5t99 40.5t40 99.5t-40 100t-99 41t-99 -41t-40 -100zM154 721l32 -307h136l32 307v713h-200v-713z" />
<glyph unicode="&#x22;" horiz-adv-x="905" d="M127 1434l51 -670h137l52 670h-240zM539 1434l51 -670h137l51 670h-239z" />
<glyph unicode="#" horiz-adv-x="1228" d="M92 328h195v-328h190v328h275v-328h190v328h195v184h-195v410h195v184h-195v328h-190v-328h-275v328h-190v-328h-195v-184h195v-410h-195v-184zM477 512v410h275v-410h-275z" />
<glyph unicode="$" horiz-adv-x="907" d="M55 231q51 -86 119 -144t166 -79v-172h201v172q141 29 212.5 127.5t71.5 245.5q0 90 -24.5 155.5t-67.5 118t-101.5 95.5t-125.5 86q-59 39 -99 68.5t-65 58t-35 59.5t-10 72q0 68 39 107.5t110 39.5q33 0 61 -7t51.5 -23.5t46 -41t48.5 -59.5l148 131q-53 76 -113.5 123 t-146.5 63v170h-201v-176q-117 -29 -183.5 -116.5t-66.5 -217.5q0 -84 22.5 -146t61.5 -111.5t91 -89.5t114 -78q72 -47 119 -83t73.5 -69t36.5 -65.5t10 -73.5q0 -88 -45 -133t-127 -45q-66 0 -120 36.5t-113 128.5z" />
<glyph unicode="%" horiz-adv-x="1751" d="M102 1008q0 -98 17.5 -179t54.5 -139.5t94.5 -91.5t134.5 -33q78 0 136.5 33t96.5 92.5t56.5 141.5t18.5 180t-16.5 179t-53.5 140.5t-94.5 92t-138.5 32.5q-80 0 -137.5 -32.5t-95.5 -92t-55.5 -142.5t-17.5 -181zM272 1012q0 129 30 206.5t104 77.5t105.5 -79.5 t31.5 -208.5q0 -59 -7.5 -110.5t-23.5 -91.5t-42 -62.5t-62 -22.5q-74 0 -105 81t-31 210zM401 0h181l755 1434h-180zM1040 420q0 -98 17.5 -179t54.5 -139.5t94.5 -91.5t134.5 -33q78 0 136.5 33t96.5 92.5t56.5 141.5t18.5 180t-16.5 179t-53.5 140.5t-94.5 92 t-138.5 32.5q-80 0 -137.5 -32.5t-95.5 -92t-55.5 -142.5t-17.5 -181zM1210 424q0 129 30 207t103 78q74 0 106 -80t32 -209q0 -59 -7.5 -110.5t-23.5 -91.5t-42 -62.5t-62 -22.5q-74 0 -105 81t-31 210z" />
<glyph unicode="&#x26;" horiz-adv-x="983" d="M66 332q0 -158 80.5 -256.5t250.5 -98.5q94 0 164 36t125 108l72 -121h207l-183 309q29 74 54.5 164t52.5 201l-164 45q-29 -123 -55 -215l-258 444q-37 66 -52.5 115t-15.5 100q0 41 31 73t94 32q66 0 115 -22.5t112 -67.5l97 163q-72 55 -146 85t-176 30 q-72 0 -132 -21.5t-103 -60.5t-68 -94t-25 -121q0 -84 31 -155.5t90 -167.5l35 -62q-113 -92 -173 -203.5t-60 -238.5zM262 354q0 59 28.5 129t98.5 142l201 -340q-35 -63 -77 -91t-97 -28q-154 0 -154 188z" />
<glyph unicode="'" horiz-adv-x="493" d="M127 1434l51 -670h137l52 670h-240z" />
<glyph unicode="(" horiz-adv-x="634" d="M102 614q0 -141 28 -257.5t76 -218t111.5 -190.5t135.5 -173l108 82q-59 78 -106 160.5t-80 175t-51.5 199t-18.5 233.5q0 123 18.5 227t51.5 196.5t80 174.5t106 161l-108 82q-74 -90 -138.5 -179t-111.5 -190.5t-74 -219t-27 -263.5z" />
<glyph unicode=")" horiz-adv-x="634" d="M74 -143l108 -82q74 88 138.5 178t111.5 191.5t73.5 219.5t26.5 263q0 141 -27.5 257.5t-75.5 218t-111.5 190.5t-135.5 173l-108 -82q57 -78 105 -160.5t81 -175t51.5 -199t18.5 -233.5q0 -123 -18.5 -227t-51.5 -196.5t-81 -174t-105 -161.5z" />
<glyph unicode="*" horiz-adv-x="878" d="M68 946l84 -145l235 170l-29 -289h164l-30 287l235 -168l84 145l-270 117l268 119l-84 145l-233 -168l30 281h-164l29 -287l-233 172l-84 -143l260 -119z" />
<glyph unicode="+" horiz-adv-x="927" d="M72 608h293v-323h198v323h293v193h-293v323h-198v-323h-293v-193z" />
<glyph unicode="," horiz-adv-x="475" d="M113 -231h133l137 489h-244z" />
<glyph unicode="-" horiz-adv-x="614" d="M82 647h450v205h-450v-205z" />
<glyph unicode="." horiz-adv-x="475" d="M94 121q0 -59 42 -101.5t102 -42.5q59 0 101 42.5t42 101.5t-42 102t-101 43t-101.5 -43t-42.5 -102z" />
<glyph unicode="/" horiz-adv-x="716" d="M-12 -184h198l543 1802h-199z" />
<glyph unicode="0" horiz-adv-x="1021" d="M88 715q0 -156 22.5 -291t74 -234.5t130 -156t193.5 -56.5q113 0 193.5 57.5t133 158t76 235.5t23.5 291q0 158 -23.5 293t-74 233t-131 154.5t-195.5 56.5t-194.5 -57.5t-130 -157.5t-74 -235.5t-23.5 -290.5zM289 719q0 104 9 202.5t33.5 173t66.5 120t108 45.5 t109.5 -46.5t69.5 -122t37 -174t11 -202.5t-10 -202.5t-34.5 -173.5t-66.5 -120t-108 -45t-109 46t-69.5 122t-36.5 174t-10 203z" />
<glyph unicode="1" horiz-adv-x="563" d="M39 1128h192v-1128h199v1434h-164q-23 -82 -76 -118t-151 -48v-140z" />
<glyph unicode="2" horiz-adv-x="970" d="M98 0h762v201h-532q10 86 33.5 151.5t59.5 119.5t83 101.5t104 94.5q66 55 112 103t74.5 98.5t41 104.5t12.5 120q0 162 -93 262t-274 100q-127 0 -216 -50t-161 -124l125 -145q59 55 116.5 86.5t123.5 31.5q82 0 128 -48t46 -140q0 -74 -35 -130t-110 -118 q-98 -80 -169 -156.5t-120 -170t-76 -212t-35 -280.5z" />
<glyph unicode="3" horiz-adv-x="952" d="M43 207q78 -115 171 -172.5t228 -57.5q88 0 164 29t131.5 84t87 136.5t31.5 185.5q0 86 -20.5 147.5t-54 104.5t-75.5 68.5t-85 39.5q43 18 79.5 45t64.5 65t43 89t15 116q0 92 -26.5 161t-75.5 115t-116.5 69.5t-147.5 23.5q-115 0 -195 -47t-158 -127l123 -141 q61 59 112.5 90t109.5 31q92 0 133 -53.5t41 -127.5q0 -111 -68 -169t-178 -58h-51v-192h47q283 0 282 -261q0 -111 -57 -170t-145 -59q-74 0 -135.5 35t-127.5 125z" />
<glyph unicode="4" horiz-adv-x="972" d="M57 346h555v-346h195v346h98v191h-98v897h-191l-559 -930v-158zM270 535q25 37 47.5 72.5t53.5 86.5l139 228q33 53 58 100t50 92q-2 -53 -4 -102t-2 -103v-372h-194q-43 0 -80 -1t-68 -1z" />
<glyph unicode="5" horiz-adv-x="970" d="M78 133q68 -72 157 -114t199 -42q227 0 338 136t111 374q0 219 -96.5 344t-276.5 125q-63 0 -104 -14t-80 -39l18 334h494v197h-678l-37 -742l172 -33q33 49 76 76t110 27q51 0 89 -21.5t63.5 -60.5t38 -90t12.5 -111q0 -145 -61.5 -226t-178.5 -81q-72 0 -136 32 t-118 81z" />
<glyph unicode="6" horiz-adv-x="958" d="M88 508q0 -139 28.5 -239.5t79 -165t121 -95.5t156.5 -31q96 0 173 33t131 93.5t84 146.5t30 192q0 98 -26.5 179t-75 139.5t-115 91.5t-148.5 33q-76 0 -130 -23.5t-95 -68.5q14 92 50 173t90.5 144.5t128 104t165.5 53.5v188q-158 -14 -278.5 -87t-202.5 -195.5 t-124 -290.5t-42 -375zM283 426q0 127 52 197.5t150 70.5q100 0 155.5 -70.5t55.5 -185.5q0 -125 -54 -197.5t-157 -72.5q-98 0 -150 71.5t-52 186.5z" />
<glyph unicode="7" horiz-adv-x="901" d="M61 1239h547q-94 -117 -158.5 -254t-104.5 -291.5t-57.5 -329t-17.5 -364.5h201q0 178 15.5 346t54.5 322.5t107.5 295t174.5 265.5v205h-762v-195z" />
<glyph unicode="8" horiz-adv-x="978" d="M92 424q0 -113 33 -197t88 -139t129 -83t156 -28q84 0 156.5 32t126 91.5t84 143.5t30.5 188q0 127 -49 213t-127 139q61 41 104 111t43 170q0 88 -26.5 159.5t-74.5 123t-116.5 80t-152.5 28.5q-82 0 -151 -27.5t-118 -79t-76.5 -125t-27.5 -163.5q0 -96 40 -166 t105 -111q-76 -51 -126 -136t-50 -224zM289 428q0 117 54 184.5t153 67.5q96 0 149 -67.5t53 -184.5q0 -127 -52 -192.5t-144 -65.5q-98 0 -155.5 64.5t-57.5 193.5zM319 1065q0 94 45.5 146.5t129.5 52.5t130 -52.5t46 -146.5q0 -84 -44 -139.5t-130 -55.5 q-84 0 -130.5 55.5t-46.5 139.5z" />
<glyph unicode="9" horiz-adv-x="958" d="M68 991q0 -98 26.5 -179t74.5 -139.5t114.5 -91t148.5 -32.5q76 0 130 23.5t95 68.5q-14 -92 -50 -173t-90 -144.5t-128 -104.5t-166 -53v-189q158 14 279 87t202.5 196t123.5 291t42 375q0 139 -28.5 239.5t-78.5 165t-121 95t-157 30.5q-96 0 -172.5 -32.5t-131 -93 t-84 -146.5t-29.5 -193zM262 995q0 125 54.5 198t156.5 73q98 0 150.5 -71.5t52.5 -186.5q0 -127 -52.5 -198t-150.5 -71q-100 0 -155.5 71t-55.5 185z" />
<glyph unicode=":" horiz-adv-x="475" d="M94 121q0 -59 42 -101.5t102 -42.5q59 0 101 42.5t42 101.5t-42 102t-101 43t-101.5 -43t-42.5 -102zM94 952q0 -59 42 -101t102 -42q59 0 101 42t42 101t-42 102.5t-101 43.5t-101.5 -43t-42.5 -103z" />
<glyph unicode=";" horiz-adv-x="475" d="M92 -231h133l137 489h-243zM94 952q0 -59 42 -101t102 -42q59 0 101 42t42 101t-42 102.5t-101 43.5t-101.5 -43t-42.5 -103z" />
<glyph unicode="&#x3c;" horiz-adv-x="663" d="M76 614l493 -430v248l-321 275l321 272v246l-493 -430v-181z" />
<glyph unicode="=" horiz-adv-x="1024" d="M133 373h758v194h-758v-194zM133 842h758v194h-758v-194z" />
<glyph unicode="&#x3e;" horiz-adv-x="663" d="M94 184l494 430v181l-494 430v-248l322 -275l-322 -272v-246z" />
<glyph unicode="?" horiz-adv-x="923" d="M37 1262l127 -150q78 72 145.5 106.5t145.5 34.5q80 0 130 -43t50 -129q0 -123 -117 -200q-72 -47 -114 -92.5t-63.5 -98.5t-26.5 -119.5t-5 -156.5h207q0 68 3 116t13.5 83.5t33 63.5t63.5 56q45 31 85 64.5t67.5 77t44 97.5t16.5 128q0 160 -96.5 258t-282.5 98 q-131 0 -234.5 -53t-191.5 -141zM281 117q0 -59 39.5 -99.5t99.5 -40.5q59 0 99 40.5t40 99.5t-40 100t-99 41t-99 -41t-40 -100z" />
<glyph unicode="@" horiz-adv-x="1323" d="M92 717q0 -168 43 -304.5t119 -233.5t180.5 -149.5t227.5 -52.5q68 0 124 12.5t121 53.5l-41 96q-47 -27 -97 -37t-103 -10q-104 0 -188.5 45t-144 127t-91 198t-31.5 257t31.5 254.5t90 195.5t141.5 126t188 44q100 0 184 -39.5t144.5 -115.5t94 -188.5t33.5 -256.5 q0 -156 -25.5 -233.5t-91.5 -77.5q-55 0 -75.5 38t-20.5 93v344q0 125 -65.5 185.5t-184.5 60.5q-53 0 -108 -19.5t-101 -50.5l46 -100q70 49 151 49q72 0 106.5 -27.5t34.5 -93.5v-104q-27 20 -76 36.5t-96 16.5t-88 -16.5t-73.5 -48t-51 -80.5t-18.5 -115q0 -72 20.5 -124 t54 -87t76.5 -52.5t89 -17.5q68 0 121 37t81 86q23 -53 65 -88t103 -35q51 0 95 20.5t77 69t50.5 129t17.5 203.5q0 162 -42 295t-117 227.5t-180.5 145.5t-229.5 51q-123 0 -227.5 -52t-180.5 -149.5t-119 -233.5t-43 -304zM506 600q0 66 29.5 102.5t93.5 36.5 q53 0 93 -19.5t62 -41.5v-129q-23 -51 -63.5 -81t-83.5 -30q-76 0 -103.5 44t-27.5 118z" />
<glyph unicode="A" horiz-adv-x="1011" d="M51 0h213l82 379h311l84 -379h220l-351 1434h-207zM387 569l53 242q8 37 17.5 83t17.5 90t15.5 82t11.5 58q4 -20 11 -58t15.5 -83t17.5 -91t17 -81l53 -242h-229z" />
<glyph unicode="B" horiz-adv-x="1017" d="M143 0h381q178 0 290 108.5t112 323.5q0 117 -50.5 205t-142.5 121q86 41 127 125t41 172q0 100 -29.5 171.5t-83 118t-126 68t-158.5 21.5h-361v-1434zM342 195v462h160q94 0 156.5 -52t62.5 -173q0 -129 -53.5 -183t-145.5 -54h-180zM342 850v389h168q82 0 134 -42 t52 -148q0 -104 -55 -151.5t-135 -47.5h-164z" />
<glyph unicode="C" horiz-adv-x="983" d="M92 715q0 -154 22.5 -288t73 -233.5t130 -158t196.5 -58.5q88 0 152.5 27t109.5 74t74 114.5t45 147.5l-186 59q-29 -117 -69 -168t-112 -51q-66 0 -109.5 47t-70 123t-38 173.5t-11.5 195.5q0 94 9 189.5t33 172t66 124.5t107 48q84 0 120 -50t56 -148l203 51 q-12 76 -39 140.5t-71 111.5t-108.5 72.5t-154.5 25.5q-115 0 -195.5 -57.5t-132 -157.5t-76 -235.5t-24.5 -290.5z" />
<glyph unicode="D" horiz-adv-x="1038" d="M143 0h349q113 0 198.5 53t142 148.5t85 228.5t28.5 293t-26.5 291t-82 224t-141.5 144.5t-204 51.5h-349v-1434zM344 197v1040h141q76 0 125 -45t78 -118t40 -165t11 -186t-11 -188.5t-40 -169t-77 -121.5t-119 -47h-148z" />
<glyph unicode="E" horiz-adv-x="911" d="M143 0h701v195h-500v469h309v192h-309v383h473v195h-674v-1434z" />
<glyph unicode="F" horiz-adv-x="876" d="M143 0h201v653h309v193h-309v393h483v195h-684v-1434z" />
<glyph unicode="G" horiz-adv-x="1046" d="M92 717q0 -154 24.5 -289t77 -234.5t134.5 -158t196 -58.5q109 0 185.5 35t125 95.5t71 141.5t22.5 171v317h-365v-196h160v-103q0 -133 -41 -195.5t-143 -62.5q-72 0 -118 49.5t-72.5 127t-38 173t-11.5 187.5q0 115 13.5 213t41 169.5t69.5 112.5t101 41q78 0 121 -45 t68 -155l200 53q-31 162 -119.5 256t-263.5 94q-113 0 -194.5 -54t-136 -152.5t-81 -234.5t-26.5 -298z" />
<glyph unicode="H" horiz-adv-x="1089" d="M143 0h201v664h401v-664h201v1434h-201v-574h-401v574h-201v-1434z" />
<glyph unicode="I" horiz-adv-x="507" d="M154 0h200v1434h-200v-1434z" />
<glyph unicode="J" horiz-adv-x="897" d="M33 348q10 -82 34.5 -149.5t66.5 -116.5t106.5 -77t154.5 -28q186 0 275.5 113t89.5 320v1024h-201v-1031q0 -104 -35 -165.5t-129 -61.5q-78 0 -117.5 49t-62.5 170z" />
<glyph unicode="K" horiz-adv-x="987" d="M143 0h201v526l119 193l266 -719h217l-340 930l312 504h-228l-235 -390q-12 -18 -27.5 -46.5t-33 -58.5t-32 -56.5t-22.5 -40.5q0 16 1 47t2 64.5t1 64.5v53v363h-201v-1434z" />
<glyph unicode="L" horiz-adv-x="856" d="M143 0h660v197h-459v1237h-201v-1434z" />
<glyph unicode="M" horiz-adv-x="1253" d="M143 0h189v578v84q0 53 -1 106t-2 98t-1 66q6 -23 19 -68t29.5 -99t33 -109.5t28.5 -94.5l185 -600l184 600q12 39 28.5 94.5t33 109.5t29.5 99t20 68q0 -20 -1.5 -65.5t-2.5 -98.5t-1 -106v-84v-578h197v1434h-209l-184 -590q-10 -31 -23.5 -78l-27 -94t-23.5 -87 t-16 -61q-4 18 -15.5 58.5t-24 86.5t-25.5 91t-23 78l-185 596h-211v-1434z" />
<glyph unicode="N" horiz-adv-x="1089" d="M143 0h197v717v65q0 41 -1 84t-2 80t-1 58q6 -16 19.5 -46t27.5 -65t28.5 -68.5t24.5 -56.5l346 -768h164v1434h-196v-631v-68q0 -39 1 -82t2 -79.5t1 -57.5q-6 14 -19.5 45t-28 66t-28.5 68.5t-25 56.5l-309 682h-201v-1434z" />
<glyph unicode="O" horiz-adv-x="1050" d="M92 715q0 -156 24.5 -291t77 -234.5t133.5 -156t195 -56.5q113 0 196 57.5t136 158t78.5 235.5t25.5 291t-25.5 291t-77.5 234t-135 155.5t-196 56.5q-115 0 -195.5 -57.5t-134 -157.5t-78 -235.5t-24.5 -290.5zM297 719q0 100 10 196.5t36 172t69 121.5t108 46 q66 0 110 -47t71.5 -123.5t40 -173t12.5 -196.5t-10.5 -196.5t-37 -172.5t-69.5 -122t-109 -46t-109.5 47t-71.5 124t-39 173t-11 197z" />
<glyph unicode="P" horiz-adv-x="978" d="M143 0h201v584h168q82 0 156.5 26.5t132 79.5t91.5 135t34 191q0 111 -35 190.5t-91.5 129.5t-129 74t-148.5 24h-379v-1434zM344 778v459h164q86 0 148.5 -53t62.5 -174q0 -117 -58.5 -174.5t-146.5 -57.5h-170z" />
<glyph unicode="Q" horiz-adv-x="1050" d="M92 717q0 -156 24.5 -291t78 -234.5t134.5 -157t195 -57.5q43 0 81 10.5t71 26.5l57 -88l141 82l-71 113q78 98 116.5 253t38.5 343q0 156 -25.5 291t-77.5 234t-135 156.5t-196 57.5q-115 0 -195.5 -57.5t-134 -156.5t-78 -234.5t-24.5 -290.5zM297 717q0 100 11 196.5 t37 172t70 122.5t109 47q66 0 110 -47t70.5 -122.5t38 -172t11.5 -196.5q0 -117 -13.5 -228.5t-52.5 -193.5l-76 117l-141 -82l98 -150q-18 -8 -45 -8q-66 0 -109.5 48t-69.5 125t-37 174t-11 198z" />
<glyph unicode="R" horiz-adv-x="1044" d="M143 0h201v625h166l217 -625h223l-229 659q102 41 163.5 131.5t61.5 245.5q0 106 -32.5 182t-88 123.5t-128 70t-150.5 22.5h-404v-1434zM344 817v422h186q92 0 150.5 -49t58.5 -160q0 -113 -55 -163t-154 -50h-186z" />
<glyph unicode="S" horiz-adv-x="907" d="M55 211q61 -104 152.5 -169t226.5 -65q94 0 168 29t123 81t74.5 125t25.5 159q0 90 -24.5 157.5t-67.5 122t-101.5 98.5t-125.5 87q-59 39 -99 70.5t-65 62t-35 62.5t-10 73q0 68 39 109.5t110 41.5q33 0 61 -6t51.5 -21.5t46 -39t48.5 -58.5l148 132q-66 94 -144.5 144 t-203.5 50q-84 0 -150.5 -26.5t-114 -74.5t-73 -113.5t-25.5 -143.5q0 -84 22.5 -148.5t61.5 -115t91 -92.5t114 -80q72 -47 119 -85t73.5 -72t36.5 -69t10 -76q0 -88 -45 -135t-127 -47q-66 0 -120 34t-113 126z" />
<glyph unicode="T" horiz-adv-x="864" d="M68 1237h264v-1237h200v1237h265v197h-729v-197z" />
<glyph unicode="U" horiz-adv-x="1077" d="M137 414q0 -98 30 -178t82 -137.5t126 -89.5t164 -32q186 0 293.5 119t107.5 330v1008h-199v-1014q0 -41 -9 -84t-32.5 -78t-62.5 -56.5t-98 -21.5q-55 0 -94 21.5t-63 55.5t-34 77t-10 88v1012h-201v-1020z" />
<glyph unicode="V" horiz-adv-x="991" d="M51 1434l369 -1434h149l371 1434h-213l-164 -719q-6 -29 -15 -73t-18.5 -88t-17.5 -84t-12 -58q-4 18 -12.5 58t-17.5 85t-18.5 88t-15.5 72l-166 719h-219z" />
<glyph unicode="W" horiz-adv-x="1265" d="M57 1434l256 -1434h150l98 508q6 33 16.5 91t21.5 118.5t19.5 113t10.5 70.5q2 -18 10 -70.5t19.5 -114t22.5 -121.5t17 -93l99 -502h153l258 1434h-194l-84 -516q-6 -35 -15.5 -99.5t-19.5 -133.5t-19.5 -127t-11.5 -77q-2 18 -11 76.5t-19.5 127.5t-20.5 133.5 t-16 96.5l-84 519h-154l-82 -519q-4 -31 -14 -95t-20.5 -134t-19.5 -128t-11 -77q-2 18 -11.5 76.5t-19.5 127.5t-20.5 134.5t-16.5 98.5l-86 516h-201z" />
<glyph unicode="X" horiz-adv-x="952" d="M57 0h215l109 279q10 25 23.5 61.5t26.5 73.5t24.5 68.5t17.5 49.5q4 -16 15.5 -48.5t25.5 -69.5t27.5 -73t23.5 -62l109 -279h221l-313 743l292 691h-215l-88 -228q-10 -25 -23 -61.5t-26.5 -74.5t-25 -70.5t-17.5 -51.5q-4 16 -15 49t-25.5 71t-28 76t-23.5 62l-88 228 h-221l293 -697z" />
<glyph unicode="Y" horiz-adv-x="1009" d="M45 1434l365 -799v-635h200v641l355 793h-220l-122 -297q-12 -29 -28.5 -72t-33 -87t-30 -84t-19.5 -58q-6 18 -19.5 57t-31 84t-33.5 88t-29 70l-127 299h-227z" />
<glyph unicode="Z" horiz-adv-x="942" d="M84 0h762v186h-357q-53 0 -113.5 -1t-92.5 -3q8 14 24.5 43t35.5 65t39.5 74.5t39.5 73.5l412 809v187h-697v-187h289q53 0 113.5 1t93.5 3q-8 -14 -24.5 -42.5t-36 -64.5t-40 -76t-38.5 -75l-410 -807v-186z" />
<glyph unicode="[" horiz-adv-x="665" d="M154 -205h407v168h-217v1303h217v168h-407v-1639z" />
<glyph unicode="\" horiz-adv-x="716" d="M-12 1618l542 -1802h199l-543 1802h-198z" />
<glyph unicode="]" horiz-adv-x="665" d="M104 -43v-162h408v1639h-408v-162h218v-1315h-218z" />
<glyph unicode="^" horiz-adv-x="909" d="M61 782h215l177 414l176 -414h219l-311 652h-164z" />
<glyph unicode="_" horiz-adv-x="716" d="M0 -168v-180h717v180h-717z" />
<glyph unicode="`" horiz-adv-x="819" d="M143 1546l297 -327h168l-188 327h-277z" />
<glyph unicode="a" horiz-adv-x="888" d="M63 338q0 -90 24 -157.5t63.5 -112.5t93 -68t112.5 -23q72 0 126.5 25t95.5 72v-74h196v776q0 90 -17.5 151.5t-56 99.5t-100 54.5t-147.5 16.5q-74 0 -155 -27t-155 -76l84 -149q61 37 110.5 52t100.5 15q78 0 109 -37.5t31 -115.5v-105q-33 16 -74 25.5t-90 9.5 q-154 0 -252.5 -88t-98.5 -264zM260 342q0 88 43 129t113 41q55 0 91 -9t71 -32v-215q-57 -100 -183 -100q-63 0 -99 45t-36 141z" />
<glyph unicode="b" horiz-adv-x="917" d="M117 0h196v57q78 -80 187 -80q160 0 249 139.5t89 409.5q0 160 -23.5 269.5t-65.5 177t-101.5 96.5t-133.5 29q-72 0 -117 -27t-84 -67v489l-196 -102v-1391zM313 258v557q27 43 69 70.5t91 27.5q86 0 126 -93t40 -304q0 -190 -40 -272t-116 -82q-47 0 -92 23.5t-78 72.5 z" />
<glyph unicode="c" horiz-adv-x="839" d="M80 532q0 -283 103.5 -419t271.5 -136q117 0 188.5 52.5t124.5 138.5l-141 117q-41 -63 -78 -91t-86 -28q-98 0 -141 99.5t-43 271.5q0 178 41.5 275t136.5 97q53 0 90 -28.5t78 -94.5l141 123q-23 39 -51.5 74t-65.5 60.5t-83 40t-103 14.5q-180 0 -281.5 -140.5 t-101.5 -425.5z" />
<glyph unicode="d" horiz-adv-x="917" d="M80 549q0 -160 23.5 -269.5t65.5 -177t101.5 -96.5t132.5 -29q72 0 117 27t84 68v-72h197v1493l-197 -102v-373q-78 80 -186 80q-160 0 -249 -139.5t-89 -409.5zM279 559q0 190 38.5 272t116.5 82q47 0 92 -23.5t78 -72.5v-557q-27 -43 -68.5 -70.5t-91.5 -27.5 q-86 0 -125.5 93t-39.5 304z" />
<glyph unicode="e" horiz-adv-x="921" d="M80 532q0 -127 25.5 -229t75.5 -175t124 -112t170 -39q104 0 184 41t136 103l-121 125q-47 -43 -87 -61.5t-108 -18.5q-86 0 -139 72.5t-64 232.5h564q2 16 2 35v35q0 141 -29 245.5t-80 173t-120.5 103.5t-149.5 35q-86 0 -155.5 -36t-121 -106.5t-79 -176t-27.5 -247.5 zM279 641q25 272 180 272q84 0 131 -75.5t51 -196.5h-362z" />
<glyph unicode="f" horiz-adv-x="595" d="M57 891h109v-891h196v891h177v184h-177v125q0 59 27 87t98 28q45 0 82 -12v163q-63 20 -161 21q-104 0 -173 -63.5t-69 -196.5v-152h-109v-184z" />
<glyph unicode="g" horiz-adv-x="917" d="M80 549q0 -160 23.5 -269.5t65.5 -177t101.5 -96.5t132.5 -29q72 0 117 27t84 70v-8q0 -76 -13 -128.5t-46 -88t-91.5 -55t-146.5 -32.5l55 -157q123 12 206 47t135.5 95t75 146t22.5 201v981h-197v-57q-78 80 -186 80q-160 0 -249 -139.5t-89 -409.5zM279 559 q0 190 38.5 272t116.5 82q47 0 92 -23.5t78 -72.5v-557q-27 -43 -68.5 -70.5t-91.5 -27.5q-86 0 -125.5 93t-39.5 304z" />
<glyph unicode="h" horiz-adv-x="913" d="M117 0h196v813q29 47 71 72.5t89 25.5q74 0 103.5 -57t29.5 -192v-662h197v694q0 205 -62.5 304.5t-218.5 99.5q-70 0 -123 -28t-86 -69v492l-196 -102v-1391z" />
<glyph unicode="i" horiz-adv-x="450" d="M102 1364q0 -49 36 -85t87 -36q49 0 85 36t36 85q0 51 -36 87t-85 36q-51 0 -87 -36t-36 -87zM127 0h197v1075h-197v-1075z" />
<glyph unicode="j" horiz-adv-x="450" d="M-84 -236l51 -159q92 14 160 45t111 83t64.5 128t21.5 178v1036h-197v-1048q0 -121 -46 -178.5t-165 -84.5zM102 1364q0 -49 36 -85t87 -36q49 0 85 36t36 85q0 51 -36 87t-85 36q-51 0 -87 -36t-36 -87z" />
<glyph unicode="k" horiz-adv-x="868" d="M117 0h196v332l107 170l178 -502h215l-262 702l231 373h-223l-162 -293q-20 -37 -45.5 -85t-42.5 -81q0 20 1 49t2 62t1 64v57v645l-196 -102v-1391z" />
<glyph unicode="l" horiz-adv-x="450" d="M127 0h197v1493l-197 -102v-1391z" />
<glyph unicode="m" horiz-adv-x="1361" d="M117 0h196v813q29 47 71 72.5t89 25.5q74 0 93.5 -58t19.5 -191v-662h196v813q29 47 71 72.5t89 25.5q74 0 93.5 -58t19.5 -191v-662h196v674q0 106 -11 186t-42 132t-83 79t-132 27q-72 0 -133.5 -24.5t-118.5 -90.5q-35 59 -86 87t-131 28q-70 0 -119 -28t-82 -69v74 h-196v-1075z" />
<glyph unicode="n" horiz-adv-x="913" d="M117 0h196v813q29 47 71 72.5t89 25.5q74 0 103.5 -57t29.5 -192v-662h197v694q0 205 -62.5 304.5t-218.5 99.5q-70 0 -123 -28t-86 -69v74h-196v-1075z" />
<glyph unicode="o" horiz-adv-x="933" d="M80 532q0 -141 27.5 -245.5t79 -173t121 -102.5t153.5 -34q178 0 285.5 140.5t107.5 423.5q0 141 -28.5 245.5t-79 173t-121 103.5t-156.5 35q-180 0 -284.5 -140.5t-104.5 -425.5zM279 537q0 372 185 372h1q92 0 141 -94t49 -278q0 -168 -48 -269.5t-140 -101.5 q-188 0 -188 371z" />
<glyph unicode="p" horiz-adv-x="917" d="M117 -395l196 102v350q78 -80 187 -80q160 0 249 139.5t89 409.5q0 160 -23.5 269.5t-65.5 177t-101.5 96.5t-133.5 29q-72 0 -117 -27t-84 -67v71h-196v-1470zM313 258v557q27 43 69 70.5t91 27.5q86 0 126 -93t40 -304q0 -190 -40 -272t-116 -82q-47 0 -92 23.5 t-78 72.5z" />
<glyph unicode="q" horiz-adv-x="917" d="M80 549q0 -160 23.5 -269.5t65.5 -177t101.5 -96.5t132.5 -29q72 0 117 27t84 68v-467l197 102v1368h-197v-57q-78 80 -186 80q-160 0 -249 -139.5t-89 -409.5zM279 559q0 190 38.5 272t116.5 82q47 0 92 -23.5t78 -72.5v-557q-27 -43 -68.5 -70.5t-91.5 -27.5 q-86 0 -125.5 93t-39.5 304z" />
<glyph unicode="r" horiz-adv-x="688" d="M117 0h196v813q35 49 74 66.5t80 17.5q47 0 77.5 -8t59.5 -25l47 197q-25 16 -60.5 26.5t-86.5 10.5q-59 0 -108.5 -28t-82.5 -69v74h-196v-1075z" />
<glyph unicode="s" horiz-adv-x="796" d="M55 92q72 -53 158 -84t172 -31q158 0 246 82t88 236q0 66 -17.5 114t-49 87t-79 71.5t-108.5 67.5q-55 31 -89 54.5t-53.5 44t-26.5 40t-7 43.5q0 41 25.5 67.5t80.5 26.5q51 0 107.5 -21.5t109.5 -58.5l80 166q-59 47 -135 74t-158 27q-147 0 -227 -79t-80 -220 q0 -63 16.5 -110.5t45 -83.5t70.5 -65.5t91 -58.5q55 -33 95.5 -57.5t65 -47t35.5 -45t11 -50.5q0 -53 -38 -85t-103 -32q-102 0 -250 92z" />
<glyph unicode="t" horiz-adv-x="653" d="M43 891h117v-639q0 -131 49 -203t158 -72q55 0 98 13.5t78 36.5l22 182q-23 -18 -55.5 -31.5t-71.5 -13.5q-41 0 -61.5 24.5t-20.5 81.5v621h207v184h-207v418l-196 -104v-314h-117v-184z" />
<glyph unicode="u" horiz-adv-x="913" d="M111 381q0 -205 62.5 -304.5t217.5 -99.5q70 0 123 28t86 69v-74h197v1075h-197v-813q-29 -47 -71 -72.5t-89 -25.5q-74 0 -103.5 57.5t-29.5 192.5v661h-196v-694z" />
<glyph unicode="v" horiz-adv-x="851" d="M45 1075l270 -1075h228l268 1075h-201l-125 -575q-6 -27 -13 -66t-15 -79t-15.5 -75.5t-9.5 -54.5q-4 18 -10 53t-14.5 75t-16.5 78t-14 65l-131 579h-201z" />
<glyph unicode="w" horiz-adv-x="1222" d="M49 1075l217 -1075h185l108 512q6 27 13.5 65.5t14.5 77.5t12 74t9 53q2 -18 8.5 -53t13.5 -73t14 -75.5t13 -62.5l111 -518h184l222 1075h-189l-76 -459q-4 -23 -10 -67.5t-13 -92.5t-13.5 -91t-8.5 -62q-4 20 -11 63.5t-16.5 92.5t-18.5 94t-15 68l-103 454h-178 l-98 -454q-6 -23 -14.5 -68t-17.5 -94t-17 -92t-10 -64q-2 18 -8.5 61.5t-13.5 91.5t-14 92t-12 68l-79 459h-189z" />
<glyph unicode="x" horiz-adv-x="903" d="M55 0h224l98 221q23 49 44 103.5t34 87.5l15 -40t19.5 -50.5t19.5 -51t17 -43.5l99 -227h223l-273 561l250 514h-223l-76 -174q-23 -47 -44 -102.5t-31 -87.5q-6 16 -15.5 39.5t-19.5 50t-20.5 51.5t-18.5 43l-78 180h-221l252 -514z" />
<glyph unicode="y" horiz-adv-x="888" d="M45 1075l299 -1075l-117 -379h193l424 1454h-209l-127 -508q-8 -31 -17.5 -72.5t-18.5 -84.5t-17.5 -80t-12.5 -58q-4 20 -11 57.5t-16 79.5t-18.5 84t-17.5 72l-125 510h-209z" />
<glyph unicode="z" horiz-adv-x="833" d="M74 0h665v182h-258h-47h-53q-27 0 -51.5 -1t-38.5 -1q20 25 45.5 65t54.5 87l348 577v166h-630v-182h233h47h53q27 0 51.5 1t38.5 1q-20 -25 -45.5 -64.5t-54.5 -87.5l-358 -575v-168z" />
<glyph unicode="{" horiz-adv-x="706" d="M63 528h54q45 0 73.5 -36.5t28.5 -145.5v-139q0 -106 18.5 -187t64.5 -135.5t126 -82t205 -27.5v143q-70 8 -112 26.5t-65.5 51.5t-30.5 79t-7 109v111q0 72 -8.5 125t-28 91t-51 62.5t-76.5 40.5q45 16 76.5 41t51 63t28 91t8.5 125v113q0 63 7 109t30.5 79t65.5 51.5 t112 26.5v143q-125 0 -205 -27.5t-126 -82t-64.5 -135.5t-18.5 -187v-141q0 -109 -28.5 -146t-73.5 -37h-54v-172z" />
<glyph unicode="|" horiz-adv-x="503" d="M160 -379h184v2017h-184v-2017z" />
<glyph unicode="}" horiz-adv-x="706" d="M74 -82v-143q125 0 204.5 27.5t126 82t64.5 135t18 187.5v141q0 109 28 145.5t75 36.5h53v172h-53q-47 0 -75 37t-28 146v139q0 106 -18 187t-64.5 135.5t-126 82t-204.5 27.5v-143q70 -8 111.5 -26.5t64 -51.5t31 -79t8.5 -109v-111q0 -72 8 -125t27.5 -91t50.5 -62.5 t78 -41.5q-47 -16 -78 -40.5t-50.5 -62.5t-27.5 -91t-8 -125v-113q0 -63 -8.5 -109t-31 -79t-64.5 -51.5t-111 -26.5z" />
<glyph unicode="~" horiz-adv-x="1150" d="M86 651l147 -76q43 88 73 122t79 34q29 0 66.5 -18.5t103.5 -63.5q51 -35 92 -52t105 -17q115 0 186.5 73.5t126.5 214.5l-147 76q-23 -45 -40.5 -74.5t-34 -48t-36 -26t-43.5 -7.5q-49 0 -168 82q-51 35 -92 52.5t-105 17.5q-115 0 -186.5 -73.5t-126.5 -215.5z" />
<glyph unicode="&#xa1;" horiz-adv-x="507" d="M115 1317q0 -59 40 -100t99 -41t99 41t40 100t-40 99t-99 40t-99 -40t-40 -99zM154 0h200v713l-32 307h-136l-32 -307v-713z" />
<glyph unicode="&#xa2;" horiz-adv-x="839" d="M80 725q0 -236 70.5 -368t193.5 -171v-209h203v203q72 20 126 67t95 113l-141 117q-39 -61 -77 -93t-87 -32q-96 0 -140 103.5t-44 273.5q0 178 41.5 278.5t136.5 100.5q53 0 92 -32t78 -95l139 121q-37 63 -89 112.5t-130 65.5v176h-203v-184q-127 -41 -195.5 -177.5 t-68.5 -369.5z" />
<glyph unicode="&#xa3;" horiz-adv-x="960" d="M123 0h762v182h-547q35 49 60.5 94.5t44 92.5t28.5 98t14 113h224v178h-234q-8 35 -19.5 65.5t-27.5 65.5q-20 47 -34.5 98t-14.5 105q0 74 43 118.5t119 44.5q39 0 69.5 -4t58 -16t56.5 -31.5t66 -50.5l122 150q-43 41 -82.5 69.5t-82.5 47t-92.5 27.5t-110.5 9 q-176 0 -273.5 -97t-97.5 -265q0 -63 16.5 -125t38.5 -109q23 -49 43 -102h-149v-178h170q-2 -53 -11.5 -99.5t-29 -89.5t-51 -87t-78.5 -95v-209z" />
<glyph unicode="&#xa4;" horiz-adv-x="952" d="M88 715q0 -154 22.5 -288t71.5 -233.5t127 -158t191 -58.5q88 0 152.5 25t110.5 72t76.5 114.5t51.5 151.5l-186 59q-27 -115 -69 -172t-122 -57q-86 0 -138 89t-75 226h344v158h-360q-2 18 -2 37v39v39q0 21 2 41h360v157h-344q10 63 26.5 118.5t41 97.5t58.5 67t77 25 q82 0 122 -49.5t70 -161.5l193 53q-16 76 -44 140.5t-73 111.5t-110.5 72.5t-155.5 25.5q-109 0 -187.5 -57.5t-130 -157.5t-76 -235.5t-24.5 -290.5z" />
<glyph unicode="&#xa5;" horiz-adv-x="948" d="M45 1434l338 -830v-174h-209v-182h209v-248h192v248h209v182h-209v180l328 824h-217l-102 -297q-12 -37 -27.5 -82t-30 -89t-27 -84t-18.5 -67q-6 27 -18 67t-27.5 84l-31 88t-27.5 81l-107 299h-225z" />
<glyph unicode="&#xa6;" d="M41 709l362 -256q20 -10 35 -4q10 10 15.5 17t-0.5 23l-39 125h260v-280l-127 41q-23 10 -41 -13q-6 -14 4 -34l258 -365l254 365q14 18 6 34q-16 20 -37 13l-129 -41v280h260l-39 -125q-6 -16 -2 -23t15 -17q14 -6 32 4l367 256l-367 256q-16 14 -32 6q-20 -18 -13 -39 l39 -129h-260v274l129 -39q12 -4 19.5 0t17.5 15q6 14 -6 32l-254 365l-258 -363q-10 -23 -4 -34q10 -10 18 -15.5t23 0.5l127 39v-274h-260l39 129q8 20 -15 39q-14 8 -30 -6z" />
<glyph unicode="&#xa7;" horiz-adv-x="1038" d="M92 586q0 -76 19.5 -132.5t61.5 -101.5t105.5 -84t151.5 -82q63 -31 105.5 -56.5t67 -48t34.5 -46t10 -49.5q0 -66 -38 -98.5t-103 -32.5q-63 0 -118.5 18t-117.5 64l-108 -156q78 -57 155.5 -87t182.5 -30q176 0 268 92t92 242q0 74 -25.5 128t-78.5 101q78 45 134 118 t56 190q0 76 -20.5 132t-61.5 101t-104.5 84t-151.5 82q-63 31 -105 56.5t-66.5 48t-35 45t-10.5 51.5q0 66 38 98.5t103 32.5q63 0 119 -18.5t117 -63.5l109 155q-78 57 -156 87t-182 30q-176 0 -268.5 -92t-92.5 -242q0 -74 25.5 -128t79.5 -101q-39 -23 -74 -52.5 t-60.5 -66.5t-41 -84t-15.5 -104zM303 604q0 66 38 110t103 74q16 -8 33 -15t33 -17q66 -33 110 -59.5t69.5 -53.5t35.5 -57.5t10 -69.5q0 -66 -38 -110t-103 -74q-16 8 -32.5 15t-33.5 18q-66 33 -109.5 59.5t-69 53t-36 56t-10.5 70.5z" />
<glyph unicode="&#xa8;" horiz-adv-x="819" d="M100 1346q0 -51 38 -89t91 -38q51 0 89 38t38 89q0 53 -37.5 91t-89.5 38q-53 0 -91 -38t-38 -91zM463 1346q0 -51 38 -89t91 -38q51 0 89 38t38 89q0 53 -38 91t-89 38q-53 0 -91 -38t-38 -91z" />
<glyph unicode="&#xa9;" horiz-adv-x="1323" d="M92 717q0 -168 43 -304.5t119 -233.5t180.5 -149.5t227.5 -52.5t227 52.5t180 149.5t119 233.5t43 304.5t-43 304t-119 233.5t-180.5 149.5t-226.5 52q-123 0 -227.5 -52t-180.5 -149.5t-119 -233.5t-43 -304zM211 719q0 141 31.5 256t90 196.5t141.5 126.5t188 45 q104 0 187 -45t141.5 -128t90 -198.5t31.5 -256.5t-30.5 -256t-89 -197t-140.5 -127t-186 -45t-188.5 45t-144 128t-91 199t-31.5 257zM424 721q0 -86 12.5 -163t40 -133t73.5 -89t112 -33q100 0 148.5 58.5t66.5 150.5l-109 35q-16 -63 -37.5 -93t-60.5 -30 q-37 0 -60.5 26.5t-38 68.5t-20.5 95.5t-6 108.5q0 51 5 104.5t17.5 95.5t35 68.5t59.5 26.5q45 0 65.5 -26.5t30.5 -80.5l119 29q-16 88 -62.5 143.5t-148.5 55.5q-66 0 -111 -32t-74.5 -88t-43 -133t-13.5 -165z" />
<glyph unicode="&#xaa;" horiz-adv-x="774" d="M86 840q0 -74 19.5 -128.5t52 -90t75.5 -54t91 -18.5q113 0 178 78v-60h160v629q0 145 -59.5 202.5t-205.5 57.5q-59 0 -122.5 -21.5t-122.5 -62.5l67 -121q49 31 89 43.5t81 12.5q66 0 89.5 -31t23.5 -94v-84q-27 12 -58.5 20t-72.5 8q-125 0 -205 -71.5t-80 -214.5z M246 844q0 72 34.5 104.5t90.5 32.5q47 0 74.5 -8t56.5 -25v-174q-45 -82 -148 -82q-51 0 -79.5 37t-28.5 115z" />
<glyph unicode="&#xab;" horiz-adv-x="1003" d="M41 537l276 -537h201l-266 539l266 536h-201zM434 537l277 -537h200l-266 539l266 536h-200z" />
<glyph unicode="&#xac;" horiz-adv-x="1126" d="M92 610h608l-36 -116q-6 -16 -1 -26.5t17 -21.5q14 -8 39 5l366 258l-366 256q-23 14 -39 6q-25 -18 -16 -45l36 -119h-608v-197z" />
<glyph unicode="&#xad;" horiz-adv-x="614" d="M82 647h450v205h-450v-205z" />
<glyph unicode="&#xae;" horiz-adv-x="1323" d="M92 717q0 -168 43 -304.5t119 -233.5t180.5 -149.5t227.5 -52.5t227 52.5t180 149.5t119 233.5t43 304.5t-43 304t-119 233.5t-180.5 149.5t-226.5 52q-123 0 -227.5 -52t-180.5 -149.5t-119 -233.5t-43 -304zM211 719q0 141 31.5 256t90 196.5t141.5 126.5t188 45 q104 0 187 -45t141.5 -128t90 -198.5t31.5 -256.5t-30.5 -256t-89 -197t-140.5 -127t-186 -45t-188.5 45t-144 128t-91 199t-31.5 257zM459 330h119v346h86l118 -346h131l-127 368q57 23 93 74t36 135q0 61 -19 104.5t-51 71t-73 41t-86 13.5h-227v-807zM578 791v229h104 q47 0 79 -26t32 -87t-31 -88.5t-84 -27.5h-100z" />
<glyph unicode="&#xaf;" horiz-adv-x="819" d="M143 1249h533v174h-533v-174z" />
<glyph unicode="&#xb0;" horiz-adv-x="819" d="M66 1114q0 -74 26.5 -137.5t72.5 -109.5t109.5 -72.5t135.5 -26.5q74 0 136 26.5t108 72.5t73 109.5t27 137.5q0 72 -27 134.5t-73 108.5t-108.5 72.5t-135.5 26.5q-72 0 -135.5 -26.5t-109.5 -72.5t-72.5 -108.5t-26.5 -134.5zM227 1114q0 37 14.5 70t39 58.5t58.5 39.5 t71 14q39 0 71.5 -14t57 -39.5t39 -58.5t14.5 -70q0 -39 -14.5 -72.5t-39 -59.5t-57 -40t-71.5 -14q-37 0 -71 14t-58.5 40t-39 59.5t-14.5 72.5z" />
<glyph unicode="&#xb1;" d="M41 709l362 -256q20 -10 35 -4q10 10 15.5 17t-0.5 23l-39 125h260v-280l-127 41q-23 10 -41 -13q-6 -14 4 -34l258 -365l254 365q14 18 6 34q-16 20 -37 13l-129 -41v280h260l-39 -125q-6 -16 -2 -23t15 -17q14 -6 32 4l367 256l-367 256q-16 14 -32 6q-20 -18 -13 -39 l39 -129h-260v274l129 -39q12 -4 19.5 0t17.5 15q6 14 -6 32l-254 365l-258 -363q-10 -23 -4 -34q10 -10 18 -15.5t23 0.5l127 39v-274h-260l39 129q8 20 -15 39q-14 8 -30 -6z" />
<glyph unicode="&#xb2;" d="M41 709l362 -256q20 -10 35 -4q10 10 15.5 17t-0.5 23l-39 125h260v-280l-127 41q-23 10 -41 -13q-6 -14 4 -34l258 -365l254 365q14 18 6 34q-16 20 -37 13l-129 -41v280h260l-39 -125q-6 -16 -2 -23t15 -17q14 -6 32 4l367 256l-367 256q-16 14 -32 6q-20 -18 -13 -39 l39 -129h-260v274l129 -39q12 -4 19.5 0t17.5 15q6 14 -6 32l-254 365l-258 -363q-10 -23 -4 -34q10 -10 18 -15.5t23 0.5l127 39v-274h-260l39 129q8 20 -15 39q-14 8 -30 -6z" />
<glyph unicode="&#xb3;" d="M41 709l362 -256q20 -10 35 -4q10 10 15.5 17t-0.5 23l-39 125h260v-280l-127 41q-23 10 -41 -13q-6 -14 4 -34l258 -365l254 365q14 18 6 34q-16 20 -37 13l-129 -41v280h260l-39 -125q-6 -16 -2 -23t15 -17q14 -6 32 4l367 256l-367 256q-16 14 -32 6q-20 -18 -13 -39 l39 -129h-260v274l129 -39q12 -4 19.5 0t17.5 15q6 14 -6 32l-254 365l-258 -363q-10 -23 -4 -34q10 -10 18 -15.5t23 0.5l127 39v-274h-260l39 129q8 20 -15 39q-14 8 -30 -6z" />
<glyph unicode="&#xb4;" horiz-adv-x="819" d="M211 1219h168l297 327h-277z" />
<glyph unicode="&#xb5;" horiz-adv-x="1433" d="M41 709l367 -258q23 -12 38 -5q12 10 17.5 20.5t-0.5 27.5l-37 116h582l-37 -116q-6 -16 -1 -26.5t17 -21.5q14 -8 39 5l367 258l-367 256q-23 14 -39 6q-25 -18 -16 -45l37 -119h-582l37 119q8 27 -17 45q-16 8 -38 -6z" />
<glyph unicode="&#xb6;" horiz-adv-x="1243" d="M86 1001q0 -111 36 -190.5t93 -129.5t129 -73.5t143 -23.5h72v-963h195v1616h161v-1616h195v1813h-610q-82 0 -157 -27t-132 -81t-91 -135t-34 -190z" />
<glyph unicode="&#xb7;" horiz-adv-x="475" d="M94 752q0 -59 42 -101.5t102 -42.5q59 0 101 42.5t42 101.5t-42 102t-101 43t-101.5 -43t-42.5 -102z" />
<glyph unicode="&#xb8;" horiz-adv-x="819" d="M209 -336q49 -29 97 -44t110 -15q104 0 161.5 41t57.5 129q0 76 -39 110.5t-92 34.5q-55 0 -86 -18l22 123h-96l-39 -187l66 -26q23 14 37 19t38 5q23 0 38.5 -16.5t15.5 -50.5q0 -35 -24.5 -54.5t-76.5 -19.5q-35 0 -74.5 8t-74.5 27z" />
<glyph unicode="&#xb9;" d="M41 709l362 -256q20 -10 35 -4q10 10 15.5 17t-0.5 23l-39 125h260v-280l-127 41q-23 10 -41 -13q-6 -14 4 -34l258 -365l254 365q14 18 6 34q-16 20 -37 13l-129 -41v280h260l-39 -125q-6 -16 -2 -23t15 -17q14 -6 32 4l367 256l-367 256q-16 14 -32 6q-20 -18 -13 -39 l39 -129h-260v274l129 -39q12 -4 19.5 0t17.5 15q6 14 -6 32l-254 365l-258 -363q-10 -23 -4 -34q10 -10 18 -15.5t23 0.5l127 39v-274h-260l39 129q8 20 -15 39q-14 8 -30 -6z" />
<glyph unicode="&#xba;" horiz-adv-x="786" d="M80 997q0 -229 86 -338.5t221 -109.5q145 0 232.5 114t87.5 343q0 113 -22.5 197.5t-63.5 141t-98.5 84t-127.5 27.5q-147 0 -231 -114.5t-84 -344.5zM240 1001q0 301 151 302q76 0 115 -77.5t39 -224.5q0 -135 -39 -218t-113 -83q-154 0 -153 301z" />
<glyph unicode="&#xbb;" horiz-adv-x="1003" d="M92 0h201l276 539l-276 536h-201l266 -538zM485 0h201l277 539l-277 536h-201l267 -538z" />
<glyph unicode="&#xbc;" d="M41 709l362 -256q20 -10 35 -4q10 10 15.5 17t-0.5 23l-39 125h260v-280l-127 41q-23 10 -41 -13q-6 -14 4 -34l258 -365l254 365q14 18 6 34q-16 20 -37 13l-129 -41v280h260l-39 -125q-6 -16 -2 -23t15 -17q14 -6 32 4l367 256l-367 256q-16 14 -32 6q-20 -18 -13 -39 l39 -129h-260v274l129 -39q12 -4 19.5 0t17.5 15q6 14 -6 32l-254 365l-258 -363q-10 -23 -4 -34q10 -10 18 -15.5t23 0.5l127 39v-274h-260l39 129q8 20 -15 39q-14 8 -30 -6z" />
<glyph unicode="&#xbd;" d="M41 709l362 -256q20 -10 35 -4q10 10 15.5 17t-0.5 23l-39 125h260v-280l-127 41q-23 10 -41 -13q-6 -14 4 -34l258 -365l254 365q14 18 6 34q-16 20 -37 13l-129 -41v280h260l-39 -125q-6 -16 -2 -23t15 -17q14 -6 32 4l367 256l-367 256q-16 14 -32 6q-20 -18 -13 -39 l39 -129h-260v274l129 -39q12 -4 19.5 0t17.5 15q6 14 -6 32l-254 365l-258 -363q-10 -23 -4 -34q10 -10 18 -15.5t23 0.5l127 39v-274h-260l39 129q8 20 -15 39q-14 8 -30 -6z" />
<glyph unicode="&#xbe;" d="M41 709l362 -256q20 -10 35 -4q10 10 15.5 17t-0.5 23l-39 125h260v-280l-127 41q-23 10 -41 -13q-6 -14 4 -34l258 -365l254 365q14 18 6 34q-16 20 -37 13l-129 -41v280h260l-39 -125q-6 -16 -2 -23t15 -17q14 -6 32 4l367 256l-367 256q-16 14 -32 6q-20 -18 -13 -39 l39 -129h-260v274l129 -39q12 -4 19.5 0t17.5 15q6 14 -6 32l-254 365l-258 -363q-10 -23 -4 -34q10 -10 18 -15.5t23 0.5l127 39v-274h-260l39 129q8 20 -15 39q-14 8 -30 -6z" />
<glyph unicode="&#xbf;" horiz-adv-x="923" d="M82 334q0 -160 96 -258.5t283 -98.5q131 0 234.5 53.5t191.5 141.5l-127 150q-78 -72 -145.5 -107t-145.5 -35q-80 0 -130 43t-50 129q0 123 117 201q72 47 113.5 92t63 98.5t26.5 120t5 156.5h-206q0 -68 -3.5 -116t-13.5 -84t-33.5 -64.5t-62.5 -55.5 q-47 -31 -86 -64.5t-66.5 -76.5t-44 -97t-16.5 -128zM365 1317q0 -59 39.5 -100t99.5 -41q59 0 99 41t40 100t-40 99t-99 40t-99 -40t-40 -99z" />
<glyph unicode="&#xc0;" horiz-adv-x="1011" d="M51 0h213l82 379h311l84 -379h220l-351 1434h-207zM143 1853l297 -327h168l-188 327h-277zM387 569l53 242q8 37 17.5 83t17.5 90t15.5 82t11.5 58q4 -20 11 -58t15.5 -83t17.5 -91t17 -81l53 -242h-229z" />
<glyph unicode="&#xc1;" horiz-adv-x="1011" d="M51 0h213l82 379h311l84 -379h220l-351 1434h-207zM387 569l53 242q8 37 17.5 83t17.5 90t15.5 82t11.5 58q4 -20 11 -58t15.5 -83t17.5 -91t17 -81l53 -242h-229zM403 1526h168l297 327h-276z" />
<glyph unicode="&#xc2;" horiz-adv-x="1011" d="M51 0h213l82 379h311l84 -379h220l-351 1434h-207zM190 1503h156l158 180l158 -180h159l-209 328h-213zM387 569l53 242q8 37 17.5 83t17.5 90t15.5 82t11.5 58q4 -20 11 -58t15.5 -83t17.5 -91t17 -81l53 -242h-229z" />
<glyph unicode="&#xc3;" horiz-adv-x="1011" d="M51 0h213l82 379h311l84 -379h220l-351 1434h-207zM170 1526h135q6 53 23.5 74.5t48.5 21.5q16 0 31.5 -7t35.5 -18q72 -45 118 -63t100 -18q84 0 138 65.5t54 192.5h-135q-6 -53 -21.5 -77t-46.5 -24q-16 0 -33.5 7.5t-37.5 17.5q-72 45 -116 63.5t-97 18.5 q-84 0 -140.5 -63.5t-56.5 -190.5zM387 569l53 242q8 37 17.5 83t17.5 90t15.5 82t11.5 58q4 -20 11 -58t15.5 -83t17.5 -91t17 -81l53 -242h-229z" />
<glyph unicode="&#xc4;" horiz-adv-x="1011" d="M51 0h213l82 379h311l84 -379h220l-351 1434h-207zM197 1653q0 -51 37.5 -89t91.5 -38q51 0 89 38t38 89q0 53 -38 91t-89 38q-53 0 -91 -38t-38 -91zM387 569l53 242q8 37 17.5 83t17.5 90t15.5 82t11.5 58q4 -20 11 -58t15.5 -83t17.5 -91t17 -81l53 -242h-229z M559 1653q0 -51 38 -89t91 -38q51 0 89 38t38 89q0 53 -38 91t-89 38q-53 0 -91 -38t-38 -91z" />
<glyph unicode="&#xc5;" horiz-adv-x="1011" d="M51 0h213l82 379h311l84 -379h220l-322 1319q45 29 71.5 79t26.5 111q0 100 -65.5 166t-165.5 66t-166 -65.5t-66 -166.5q0 -63 27 -113t74 -79zM387 569l53 242q8 37 17.5 83t17.5 90t15.5 82t11.5 58q4 -20 11 -58t15.5 -83t17.5 -91t17 -81l53 -242h-229zM393 1509 q0 49 33 82t80 33t79.5 -33t32.5 -82t-32.5 -81.5t-79.5 -32.5t-80 32.5t-33 81.5z" />
<glyph unicode="&#xc6;" horiz-adv-x="1366" d="M35 0h203l110 338h281v-338h669v195h-479v469h289v192h-289v383h453v195h-742zM410 528l137 418q8 27 20.5 64t24.5 75.5t23.5 75.5t17.5 62q0 -27 -1 -62t-2 -70.5t-1 -68.5v-57v-437h-219z" />
<glyph unicode="&#xc7;" horiz-adv-x="983" d="M92 715q0 -139 18.5 -264t60.5 -222.5t107.5 -162t161.5 -82.5l-30 -146l65 -26q23 14 37 19t39 5q23 0 38 -16.5t15 -50.5q0 -35 -24.5 -54.5t-75.5 -19.5q-35 0 -75 8t-75 27l-41 -66q49 -29 97.5 -44t109.5 -15q104 0 161.5 41t57.5 129q0 76 -38.5 110.5t-92.5 34.5 q-55 0 -86 -18l15 75q82 4 142 32t103 75t70 112.5t43 143.5l-186 59q-29 -117 -69 -168t-112 -51q-66 0 -109.5 47t-70 123t-38 173.5t-11.5 195.5q0 94 9 189.5t33 172t66 124.5t107 48q84 0 120 -50t56 -148l203 51q-12 76 -39 140.5t-71 111.5t-108.5 72.5t-154.5 25.5 q-115 0 -195.5 -57.5t-132 -157.5t-76 -235.5t-24.5 -290.5z" />
<glyph unicode="&#xc8;" horiz-adv-x="911" d="M111 1853l297 -327h167l-188 327h-276zM143 0h701v195h-500v469h309v192h-309v383h473v195h-674v-1434z" />
<glyph unicode="&#xc9;" horiz-adv-x="911" d="M143 0h701v195h-500v469h309v192h-309v383h473v195h-674v-1434zM371 1526h168l297 327h-277z" />
<glyph unicode="&#xca;" horiz-adv-x="911" d="M143 0h701v195h-500v469h309v192h-309v383h473v195h-674v-1434zM158 1526h155l158 180l158 -180h159l-208 327h-213z" />
<glyph unicode="&#xcb;" horiz-adv-x="911" d="M143 0h701v195h-500v469h309v192h-309v383h473v195h-674v-1434zM164 1653q0 -51 38 -89t91 -38q51 0 89 38t38 89q0 53 -38 91t-89 38q-53 0 -91 -38t-38 -91zM526 1653q0 -51 38 -89t91 -38q51 0 89 38t38 89q0 53 -37.5 91t-89.5 38q-53 0 -91 -38t-38 -91z" />
<glyph unicode="&#xcc;" horiz-adv-x="507" d="M-119 1853l297 -327h168l-188 327h-277zM154 0h200v1434h-200v-1434z" />
<glyph unicode="&#xcd;" horiz-adv-x="507" d="M154 0h200v1434h-200v-1434zM162 1526h168l297 327h-277z" />
<glyph unicode="&#xce;" horiz-adv-x="507" d="M-61 1511h155l158 181l158 -181h159l-209 328h-213zM154 0h200v1434h-200v-1434z" />
<glyph unicode="&#xcf;" horiz-adv-x="507" d="M-55 1653q0 -51 37.5 -89t91.5 -38q51 0 89 38t38 89q0 53 -38 91t-89 38q-53 0 -91 -38t-38 -91zM154 0h200v1434h-200v-1434zM307 1653q0 -51 38 -89t91 -38q51 0 89 38t38 89q0 53 -38 91t-89 38q-53 0 -91 -38t-38 -91z" />
<glyph unicode="&#xd0;" horiz-adv-x="1058" d="M61 657h103v-657h348q113 0 199 53t142 148.5t85 228.5t29 293t-27 291t-82 224t-141 144.5t-205 51.5h-348v-592h-103v-185zM360 197v460h166v185h-166v395h146q76 0 125 -45t77.5 -118t40 -165t11.5 -186t-11.5 -188.5t-40 -169t-76.5 -121.5t-120 -47h-152z" />
<glyph unicode="&#xd1;" horiz-adv-x="1089" d="M143 0h197v717v65q0 41 -1 84t-2 80t-1 58q6 -16 19.5 -46t27.5 -65t28.5 -68.5t24.5 -56.5l346 -768h164v1434h-196v-631v-68q0 -39 1 -82t2 -79.5t1 -57.5q-6 14 -19.5 45t-28 66t-28.5 68.5t-25 56.5l-309 682h-201v-1434zM209 1530h135q6 53 23.5 74.5t48.5 21.5 q16 0 31.5 -7t35.5 -17q72 -45 118 -63.5t99 -18.5q84 0 138.5 65.5t54.5 192.5h-135q-6 -53 -21.5 -77t-46.5 -24q-16 0 -33.5 7.5t-38.5 17.5q-72 45 -115.5 63.5t-96.5 18.5q-84 0 -140.5 -63.5t-56.5 -190.5z" />
<glyph unicode="&#xd2;" horiz-adv-x="1050" d="M92 715q0 -156 24.5 -291t77 -234.5t133.5 -156t195 -56.5q113 0 196 57.5t136 158t78.5 235.5t25.5 291t-25.5 291t-77.5 234t-135 155.5t-196 56.5q-115 0 -195.5 -57.5t-134 -157.5t-78 -235.5t-24.5 -290.5zM158 1853l297 -327h168l-189 327h-276zM297 719 q0 100 10 196.5t36 172t69 121.5t108 46q66 0 110 -47t71.5 -123.5t40 -173t12.5 -196.5t-10.5 -196.5t-37 -172.5t-69.5 -122t-109 -46t-109.5 47t-71.5 124t-39 173t-11 197z" />
<glyph unicode="&#xd3;" horiz-adv-x="1050" d="M92 715q0 -156 24.5 -291t77 -234.5t133.5 -156t195 -56.5q113 0 196 57.5t136 158t78.5 235.5t25.5 291t-25.5 291t-77.5 234t-135 155.5t-196 56.5q-115 0 -195.5 -57.5t-134 -157.5t-78 -235.5t-24.5 -290.5zM297 719q0 100 10 196.5t36 172t69 121.5t108 46 q66 0 110 -47t71.5 -123.5t40 -173t12.5 -196.5t-10.5 -196.5t-37 -172.5t-69.5 -122t-109 -46t-109.5 47t-71.5 124t-39 173t-11 197zM418 1526h168l297 327h-277z" />
<glyph unicode="&#xd4;" horiz-adv-x="1050" d="M92 715q0 -156 24.5 -291t77 -234.5t133.5 -156t195 -56.5q113 0 196 57.5t136 158t78.5 235.5t25.5 291t-25.5 291t-77.5 234t-135 155.5t-196 56.5q-115 0 -195.5 -57.5t-134 -157.5t-78 -235.5t-24.5 -290.5zM205 1516h155l158 180l158 -180h160l-209 327h-213z M297 719q0 100 10 196.5t36 172t69 121.5t108 46q66 0 110 -47t71.5 -123.5t40 -173t12.5 -196.5t-10.5 -196.5t-37 -172.5t-69.5 -122t-109 -46t-109.5 47t-71.5 124t-39 173t-11 197z" />
<glyph unicode="&#xd5;" horiz-adv-x="1050" d="M92 715q0 -156 24.5 -291t77 -234.5t133.5 -156t195 -56.5q113 0 196 57.5t136 158t78.5 235.5t25.5 291t-25.5 291t-77.5 234t-135 155.5t-196 56.5q-115 0 -195.5 -57.5t-134 -157.5t-78 -235.5t-24.5 -290.5zM184 1526h135q6 53 23.5 74.5t48.5 21.5q16 0 31.5 -7 t36.5 -18q72 -45 118 -63t99 -18q84 0 138 65.5t54 192.5h-135q-6 -53 -21.5 -77t-45.5 -24q-16 0 -34 7.5t-38 17.5q-72 45 -116 63.5t-97 18.5q-84 0 -140.5 -63.5t-56.5 -190.5zM297 719q0 100 10 196.5t36 172t69 121.5t108 46q66 0 110 -47t71.5 -123.5t40 -173 t12.5 -196.5t-10.5 -196.5t-37 -172.5t-69.5 -122t-109 -46t-109.5 47t-71.5 124t-39 173t-11 197z" />
<glyph unicode="&#xd6;" horiz-adv-x="1050" d="M92 715q0 -156 24.5 -291t77 -234.5t133.5 -156t195 -56.5q113 0 196 57.5t136 158t78.5 235.5t25.5 291t-25.5 291t-77.5 234t-135 155.5t-196 56.5q-115 0 -195.5 -57.5t-134 -157.5t-78 -235.5t-24.5 -290.5zM209 1653q0 -51 38 -89t91 -38q51 0 89 38t38 89 q0 53 -38 91t-89 38q-53 0 -91 -38t-38 -91zM297 719q0 100 10 196.5t36 172t69 121.5t108 46q66 0 110 -47t71.5 -123.5t40 -173t12.5 -196.5t-10.5 -196.5t-37 -172.5t-69.5 -122t-109 -46t-109.5 47t-71.5 124t-39 173t-11 197zM571 1653q0 -51 38 -89t91 -38q51 0 89 38 t38 89q0 53 -37.5 91t-89.5 38q-53 0 -91 -38t-38 -91z" />
<glyph unicode="&#xd7;" d="M41 709l362 -256q20 -10 35 -4q10 10 15.5 17t-0.5 23l-39 125h260v-280l-127 41q-23 10 -41 -13q-6 -14 4 -34l258 -365l254 365q14 18 6 34q-16 20 -37 13l-129 -41v280h260l-39 -125q-6 -16 -2 -23t15 -17q14 -6 32 4l367 256l-367 256q-16 14 -32 6q-20 -18 -13 -39 l39 -129h-260v274l129 -39q12 -4 19.5 0t17.5 15q6 14 -6 32l-254 365l-258 -363q-10 -23 -4 -34q10 -10 18 -15.5t23 0.5l127 39v-274h-260l39 129q8 20 -15 39q-14 8 -30 -6z" />
<glyph unicode="&#xd8;" horiz-adv-x="1050" d="M92 715q0 -184 34 -336t107 -254l-77 -227h176l37 112q72 -33 153 -33q113 0 196 57.5t136 158t78.5 235.5t25.5 291q0 186 -34.5 337.5t-110.5 252.5l78 227h-176l-39 -113q-66 33 -152 33q-115 0 -195.5 -57.5t-134 -157.5t-78 -235.5t-24.5 -290.5zM293 719 q0 100 10 197.5t37 174t71 124t109 47.5q51 0 92 -29l-284 -842q-18 70 -26.5 153t-8.5 175zM434 203l287 844q20 -72 28.5 -156t8.5 -176q0 -100 -11.5 -197.5t-38 -174.5t-70.5 -124t-110 -47q-55 0 -94 31z" />
<glyph unicode="&#xd9;" horiz-adv-x="1077" d="M137 414q0 -98 30 -178t82 -137.5t126 -89.5t164 -32q186 0 293.5 119t107.5 330v1008h-199v-1014q0 -41 -9 -84t-32.5 -78t-62.5 -56.5t-98 -21.5q-55 0 -94 21.5t-63 55.5t-34 77t-10 88v1012h-201v-1020zM178 1833l297 -328h168l-188 328h-277z" />
<glyph unicode="&#xda;" horiz-adv-x="1077" d="M137 414q0 -98 30 -178t82 -137.5t126 -89.5t164 -32q186 0 293.5 119t107.5 330v1008h-199v-1014q0 -41 -9 -84t-32.5 -78t-62.5 -56.5t-98 -21.5q-55 0 -94 21.5t-63 55.5t-34 77t-10 88v1012h-201v-1020zM438 1505h168l297 328h-276z" />
<glyph unicode="&#xdb;" horiz-adv-x="1077" d="M137 414q0 -98 30 -178t82 -137.5t126 -89.5t164 -32q186 0 293.5 119t107.5 330v1008h-199v-1014q0 -41 -9 -84t-32.5 -78t-62.5 -56.5t-98 -21.5q-55 0 -94 21.5t-63 55.5t-34 77t-10 88v1012h-201v-1020zM225 1526h156l158 180l157 -180h160l-209 327h-213z" />
<glyph unicode="&#xdc;" horiz-adv-x="1077" d="M137 414q0 -98 30 -178t82 -137.5t126 -89.5t164 -32q186 0 293.5 119t107.5 330v1008h-199v-1014q0 -41 -9 -84t-32.5 -78t-62.5 -56.5t-98 -21.5q-55 0 -94 21.5t-63 55.5t-34 77t-10 88v1012h-201v-1020zM229 1653q0 -51 38 -89t91 -38q51 0 89 38t38 89 q0 53 -37.5 91t-89.5 38q-53 0 -91 -38t-38 -91zM592 1653q0 -51 38 -89t91 -38q51 0 89 38t38 89q0 53 -38 91t-89 38q-53 0 -91 -38t-38 -91z" />
<glyph unicode="&#xdd;" horiz-adv-x="1009" d="M45 1434l365 -799v-635h200v641l355 793h-220l-122 -297q-12 -29 -28.5 -72t-33 -87t-30 -84t-19.5 -58q-6 18 -19.5 57t-31 84t-33.5 88t-29 70l-127 299h-227zM406 1516h167l297 327h-276z" />
<glyph unicode="&#xde;" horiz-adv-x="978" d="M143 0h201v322h168q82 0 156.5 26.5t132 79.5t91.5 135t34 191q0 111 -35 190.5t-91.5 129.5t-129 73.5t-148.5 23.5h-178v263h-201v-1434zM344 516v459h164q86 0 148.5 -53t62.5 -174q0 -117 -58.5 -174.5t-146.5 -57.5h-170z" />
<glyph unicode="&#xdf;" horiz-adv-x="948" d="M117 -395l196 106v1399q0 98 32 146.5t116 48.5t118.5 -52.5t34.5 -150.5q0 -88 -38.5 -145.5t-124.5 -57.5h-19v-178h21q111 0 161 -68.5t50 -212.5q0 -129 -49.5 -194.5t-157.5 -65.5h-25v-180h23q219 0 313 115.5t94 330.5q0 168 -52 255t-142 122q66 39 105.5 107.5 t39.5 187.5q0 176 -89 272.5t-259 96.5q-184 0 -266 -94.5t-82 -305.5v-1482z" />
<glyph unicode="&#xe0;" horiz-adv-x="888" d="M63 338q0 -90 24 -157.5t63.5 -112.5t93 -68t112.5 -23q72 0 126.5 25t95.5 72v-74h196v776q0 90 -17.5 151.5t-56 99.5t-100 54.5t-147.5 16.5q-74 0 -155 -27t-155 -76l84 -149q61 37 110.5 52t100.5 15q78 0 109 -37.5t31 -115.5v-105q-33 16 -74 25.5t-90 9.5 q-154 0 -252.5 -88t-98.5 -264zM84 1546l297 -327h168l-189 327h-276zM260 342q0 88 43 129t113 41q55 0 91 -9t71 -32v-215q-57 -100 -183 -100q-63 0 -99 45t-36 141z" />
<glyph unicode="&#xe1;" horiz-adv-x="888" d="M63 338q0 -90 24 -157.5t63.5 -112.5t93 -68t112.5 -23q72 0 126.5 25t95.5 72v-74h196v776q0 90 -17.5 151.5t-56 99.5t-100 54.5t-147.5 16.5q-74 0 -155 -27t-155 -76l84 -149q61 37 110.5 52t100.5 15q78 0 109 -37.5t31 -115.5v-105q-33 16 -74 25.5t-90 9.5 q-154 0 -252.5 -88t-98.5 -264zM260 342q0 88 43 129t113 41q55 0 91 -9t71 -32v-215q-57 -100 -183 -100q-63 0 -99 45t-36 141zM344 1219h168l297 327h-277z" />
<glyph unicode="&#xe2;" horiz-adv-x="888" d="M63 338q0 -90 24 -157.5t63.5 -112.5t93 -68t112.5 -23q72 0 126.5 25t95.5 72v-74h196v776q0 90 -17.5 151.5t-56 99.5t-100 54.5t-147.5 16.5q-74 0 -155 -27t-155 -76l84 -149q61 37 110.5 52t100.5 15q78 0 109 -37.5t31 -115.5v-105q-33 16 -74 25.5t-90 9.5 q-154 0 -252.5 -88t-98.5 -264zM131 1208h156l157 181l158 -181h160l-209 328h-213zM260 342q0 88 43 129t113 41q55 0 91 -9t71 -32v-215q-57 -100 -183 -100q-63 0 -99 45t-36 141z" />
<glyph unicode="&#xe3;" horiz-adv-x="888" d="M63 338q0 -90 24 -157.5t63.5 -112.5t93 -68t112.5 -23q72 0 126.5 25t95.5 72v-74h196v776q0 90 -17.5 151.5t-56 99.5t-100 54.5t-147.5 16.5q-74 0 -155 -27t-155 -76l84 -149q61 37 110.5 52t100.5 15q78 0 109 -37.5t31 -115.5v-105q-33 16 -74 25.5t-90 9.5 q-154 0 -252.5 -88t-98.5 -264zM111 1219h135q6 53 23.5 74.5t47.5 21.5q16 0 32 -7.5t36 -17.5q72 -45 118 -63.5t99 -18.5q84 0 138.5 65.5t54.5 192.5h-136q-6 -53 -21 -76.5t-46 -23.5q-16 0 -33.5 7t-38.5 18q-72 45 -116 63.5t-97 18.5q-84 0 -140 -63.5t-56 -190.5z M260 342q0 88 43 129t113 41q55 0 91 -9t71 -32v-215q-57 -100 -183 -100q-63 0 -99 45t-36 141z" />
<glyph unicode="&#xe4;" horiz-adv-x="888" d="M63 338q0 -90 24 -157.5t63.5 -112.5t93 -68t112.5 -23q72 0 126.5 25t95.5 72v-74h196v776q0 90 -17.5 151.5t-56 99.5t-100 54.5t-147.5 16.5q-74 0 -155 -27t-155 -76l84 -149q61 37 110.5 52t100.5 15q78 0 109 -37.5t31 -115.5v-105q-33 16 -74 25.5t-90 9.5 q-154 0 -252.5 -88t-98.5 -264zM137 1335q0 -51 38 -89t91 -38q51 0 89 38t38 89q0 53 -38 91t-89 38q-53 0 -91 -37.5t-38 -91.5zM260 342q0 88 43 129t113 41q55 0 91 -9t71 -32v-215q-57 -100 -183 -100q-63 0 -99 45t-36 141zM500 1335q0 -51 37.5 -89t91.5 -38 q51 0 89 38t38 89q0 53 -38 91t-89 38q-53 0 -91 -37.5t-38 -91.5z" />
<glyph unicode="&#xe5;" horiz-adv-x="888" d="M63 338q0 -90 24 -157.5t63.5 -112.5t93 -68t112.5 -23q72 0 126.5 25t95.5 72v-74h196v776q0 90 -17.5 151.5t-56 99.5t-100 54.5t-147.5 16.5q-74 0 -155 -27t-155 -76l84 -149q61 37 110.5 52t100.5 15q78 0 109 -37.5t31 -115.5v-105q-33 16 -74 25.5t-90 9.5 q-154 0 -252.5 -88t-98.5 -264zM215 1448q0 -100 65.5 -164.5t165.5 -64.5t166 64.5t66 164.5t-65.5 165.5t-166.5 65.5q-100 0 -165.5 -65.5t-65.5 -165.5zM260 342q0 88 43 129t113 41q55 0 91 -9t71 -32v-215q-57 -100 -183 -100q-63 0 -99 45t-36 141zM334 1448 q0 49 32.5 82t79.5 33t80 -33t33 -82t-32.5 -82t-80.5 -33q-47 0 -79.5 33t-32.5 82z" />
<glyph unicode="&#xe6;" horiz-adv-x="1402" d="M63 338q0 -90 24 -157.5t63.5 -112.5t93 -68t112.5 -23q111 0 184.5 41t139.5 115q45 -76 108.5 -116t167.5 -40t184.5 41t135.5 103l-121 125q-47 -43 -87 -61.5t-107 -18.5q-86 0 -139.5 72.5t-63.5 232.5h563q2 16 2 35v35q0 141 -28.5 245.5t-80 173t-121 103.5 t-149.5 35q-86 0 -145.5 -38t-93.5 -89q-18 31 -38 55.5t-49.5 39.5t-70.5 23.5t-101 8.5q-72 0 -150.5 -27t-152.5 -76l84 -149q61 37 110.5 52t100.5 15q78 0 109 -37.5t31 -115.5v-105q-33 16 -74 25.5t-90 9.5q-154 0 -252.5 -88t-98.5 -264zM260 342q0 88 43 129 t113 41q55 0 91 -9t71 -32v-215q-57 -100 -183 -100q-63 0 -99 45t-36 141zM760 641q25 272 180 272q84 0 131 -75.5t51 -196.5h-362z" />
<glyph unicode="&#xe7;" horiz-adv-x="839" d="M80 532q0 -248 79 -382t214 -164l-31 -148l66 -26q23 14 37 19t38 5q23 0 38.5 -16.5t15.5 -50.5q0 -35 -25 -54.5t-76 -19.5q-35 0 -74.5 8t-74.5 27l-41 -66q49 -29 97 -44t110 -15q104 0 161.5 41t57.5 129q0 76 -39 110.5t-92 34.5q-55 0 -86 -18l14 75 q111 4 178.5 56.5t120.5 134.5l-141 117q-41 -63 -78 -91t-86 -28q-98 0 -141 99.5t-43 271.5q0 178 41.5 275t136.5 97q53 0 90 -28.5t78 -94.5l141 123q-23 39 -51.5 74t-65.5 60.5t-83 40t-103 14.5q-180 0 -281.5 -140.5t-101.5 -425.5z" />
<glyph unicode="&#xe8;" horiz-adv-x="921" d="M80 532q0 -127 25.5 -229t75.5 -175t124 -112t170 -39q104 0 184 41t136 103l-121 125q-47 -43 -87 -61.5t-108 -18.5q-86 0 -139 72.5t-64 232.5h564q2 16 2 35v35q0 141 -29 245.5t-80 173t-120.5 103.5t-149.5 35q-86 0 -155.5 -36t-121 -106.5t-79 -176t-27.5 -247.5 zM98 1546l297 -327h168l-188 327h-277zM279 641q25 272 180 272q84 0 131 -75.5t51 -196.5h-362z" />
<glyph unicode="&#xe9;" horiz-adv-x="921" d="M80 532q0 -127 25.5 -229t75.5 -175t124 -112t170 -39q104 0 184 41t136 103l-121 125q-47 -43 -87 -61.5t-108 -18.5q-86 0 -139 72.5t-64 232.5h564q2 16 2 35v35q0 141 -29 245.5t-80 173t-120.5 103.5t-149.5 35q-86 0 -155.5 -36t-121 -106.5t-79 -176t-27.5 -247.5 zM279 641q25 272 180 272q84 0 131 -75.5t51 -196.5h-362zM358 1219h168l297 327h-276z" />
<glyph unicode="&#xea;" horiz-adv-x="921" d="M80 532q0 -127 25.5 -229t75.5 -175t124 -112t170 -39q104 0 184 41t136 103l-121 125q-47 -43 -87 -61.5t-108 -18.5q-86 0 -139 72.5t-64 232.5h564q2 16 2 35v35q0 141 -29 245.5t-80 173t-120.5 103.5t-149.5 35q-86 0 -155.5 -36t-121 -106.5t-79 -176t-27.5 -247.5 zM145 1198h156l158 180l157 -180h160l-209 328h-213zM279 641q25 272 180 272q84 0 131 -75.5t51 -196.5h-362z" />
<glyph unicode="&#xeb;" horiz-adv-x="921" d="M80 532q0 -127 25.5 -229t75.5 -175t124 -112t170 -39q104 0 184 41t136 103l-121 125q-47 -43 -87 -61.5t-108 -18.5q-86 0 -139 72.5t-64 232.5h564q2 16 2 35v35q0 141 -29 245.5t-80 173t-120.5 103.5t-149.5 35q-86 0 -155.5 -36t-121 -106.5t-79 -176t-27.5 -247.5 zM152 1335q0 -51 37.5 -89t91.5 -38q51 0 89 38t38 89q0 53 -38 91t-89 38q-53 0 -91 -37.5t-38 -91.5zM279 641q25 272 180 272q84 0 131 -75.5t51 -196.5h-362zM514 1335q0 -51 38 -89t91 -38q51 0 89 38t38 89q0 53 -38 91t-89 38q-53 0 -91 -37.5t-38 -91.5z" />
<glyph unicode="&#xec;" horiz-adv-x="450" d="M-147 1546l297 -327h167l-188 327h-276zM127 0h197v1075h-197v-1075z" />
<glyph unicode="&#xed;" horiz-adv-x="450" d="M127 0h197v1075h-197v-1075zM133 1219h168l297 327h-276z" />
<glyph unicode="&#xee;" horiz-adv-x="450" d="M-90 1188h156l157 180l158 -180h160l-209 328h-213zM127 0h197v1075h-197v-1075z" />
<glyph unicode="&#xef;" horiz-adv-x="450" d="M-84 1346q0 -51 38 -89t91 -38q51 0 89 38t38 89q0 53 -38 91t-89 38q-53 0 -91 -38t-38 -91zM127 0h197v1075h-197v-1075zM279 1346q0 -51 37.5 -89t91.5 -38q51 0 89 38t38 89q0 53 -38 91t-89 38q-53 0 -91 -38t-38 -91z" />
<glyph unicode="&#xf0;" horiz-adv-x="933" d="M80 471q0 -127 27.5 -220t79 -153.5t121 -90.5t153.5 -30q104 0 178 35t122 109t70.5 191.5t22.5 283.5q0 459 -174 670l86 90l-115 100l-84 -88q-113 72 -276 88v-168q86 -8 155 -47l-79 -84l114 -100l80 84q76 -102 96 -256q-47 53 -95 73.5t-120 20.5 q-164 0 -263 -130t-99 -378zM279 475q0 166 47 238.5t139 72.5t141 -72.5t49 -238.5q0 -309 -188 -309q-92 0 -140 71.5t-48 237.5z" />
<glyph unicode="&#xf1;" horiz-adv-x="913" d="M117 0h196v813q29 47 71 72.5t89 25.5q74 0 103.5 -57t29.5 -192v-662h197v694q0 205 -62.5 304.5t-218.5 99.5q-70 0 -123 -28t-86 -69v74h-196v-1075zM117 1219h135q6 53 23.5 74.5t48.5 21.5q16 0 31.5 -7.5t35.5 -17.5q72 -45 118 -63.5t99 -18.5q84 0 138.5 65.5 t54.5 192.5h-135q-6 -53 -21.5 -76.5t-46.5 -23.5q-16 0 -33.5 7t-38.5 18q-72 45 -115.5 63.5t-97.5 18.5q-84 0 -140 -63.5t-56 -190.5z" />
<glyph unicode="&#xf2;" horiz-adv-x="933" d="M80 532q0 -141 27.5 -245.5t79 -173t121 -102.5t153.5 -34q178 0 285.5 140.5t107.5 423.5q0 141 -28.5 245.5t-79 173t-121 103.5t-156.5 35q-180 0 -284.5 -140.5t-104.5 -425.5zM100 1546l297 -327h168l-188 327h-277zM279 537q0 373 186 372q92 0 141 -94t49 -278 q0 -168 -48 -269.5t-140 -101.5q-188 0 -188 371z" />
<glyph unicode="&#xf3;" horiz-adv-x="933" d="M80 532q0 -141 27.5 -245.5t79 -173t121 -102.5t153.5 -34q178 0 285.5 140.5t107.5 423.5q0 141 -28.5 245.5t-79 173t-121 103.5t-156.5 35q-180 0 -284.5 -140.5t-104.5 -425.5zM279 537q0 373 186 372q92 0 141 -94t49 -278q0 -168 -48 -269.5t-140 -101.5 q-188 0 -188 371zM360 1219h168l297 327h-276z" />
<glyph unicode="&#xf4;" horiz-adv-x="933" d="M80 532q0 -141 27.5 -245.5t79 -173t121 -102.5t153.5 -34q178 0 285.5 140.5t107.5 423.5q0 141 -28.5 245.5t-79 173t-121 103.5t-156.5 35q-180 0 -284.5 -140.5t-104.5 -425.5zM147 1198h156l158 180l157 -180h160l-209 328h-213zM279 537q0 373 186 372 q92 0 141 -94t49 -278q0 -168 -48 -269.5t-140 -101.5q-188 0 -188 371z" />
<glyph unicode="&#xf5;" horiz-adv-x="933" d="M80 532q0 -141 27.5 -245.5t79 -173t121 -102.5t153.5 -34q178 0 285.5 140.5t107.5 423.5q0 141 -28.5 245.5t-79 173t-121 103.5t-156.5 35q-180 0 -284.5 -140.5t-104.5 -425.5zM127 1219h135q6 53 23.5 74.5t48.5 21.5q16 0 31.5 -7.5t35.5 -17.5q72 -45 118 -63.5 t99 -18.5q84 0 138.5 65.5t54.5 192.5h-135q-6 -53 -21.5 -76.5t-46.5 -23.5q-16 0 -33.5 7t-37.5 18q-72 45 -116 63.5t-97 18.5q-84 0 -140.5 -63.5t-56.5 -190.5zM279 537q0 373 186 372q92 0 141 -94t49 -278q0 -168 -48 -269.5t-140 -101.5q-188 0 -188 371z" />
<glyph unicode="&#xf6;" horiz-adv-x="933" d="M80 532q0 -141 27.5 -245.5t79 -173t121 -102.5t153.5 -34q178 0 285.5 140.5t107.5 423.5q0 141 -28.5 245.5t-79 173t-121 103.5t-156.5 35q-180 0 -284.5 -140.5t-104.5 -425.5zM154 1325q0 -51 37.5 -89t91.5 -38q51 0 89 38t38 89q0 53 -38 91t-89 38q-53 0 -91 -38 t-38 -91zM279 537q0 373 186 372q92 0 141 -94t49 -278q0 -168 -48 -269.5t-140 -101.5q-188 0 -188 371zM516 1325q0 -51 38 -89t91 -38q51 0 89 38t38 89q0 53 -38 91t-89 38q-53 0 -91 -38t-38 -91z" />
<glyph unicode="&#xf7;" d="M41 709l362 -256q20 -10 35 -4q10 10 15.5 17t-0.5 23l-39 125h260v-280l-127 41q-23 10 -41 -13q-6 -14 4 -34l258 -365l254 365q14 18 6 34q-16 20 -37 13l-129 -41v280h260l-39 -125q-6 -16 -2 -23t15 -17q14 -6 32 4l367 256l-367 256q-16 14 -32 6q-20 -18 -13 -39 l39 -129h-260v274l129 -39q12 -4 19.5 0t17.5 15q6 14 -6 32l-254 365l-258 -363q-10 -23 -4 -34q10 -10 18 -15.5t23 0.5l127 39v-274h-260l39 129q8 20 -15 39q-14 8 -30 -6z" />
<glyph unicode="&#xf8;" horiz-adv-x="933" d="M80 532q0 -160 35 -271t98 -181l-68 -182h168l35 96q55 -16 113 -17q178 0 285.5 140.5t107.5 423.5q0 160 -36 273.5t-101 180.5l67 183h-168l-34 -97q-55 16 -113 17q-180 0 -284.5 -140.5t-104.5 -425.5zM270 537q0 188 50.5 284.5t144.5 96.5q30 -1 53 -9l-221 -602 q-27 86 -27 230zM412 166l223 604q29 -90 29 -233q0 -172 -51.5 -275.5t-145.5 -103.5q-31 0 -55 8z" />
<glyph unicode="&#xf9;" horiz-adv-x="913" d="M86 1546l297 -327h168l-189 327h-276zM111 381q0 -205 62.5 -304.5t217.5 -99.5q70 0 123 28t86 69v-74h197v1075h-197v-813q-29 -47 -71 -72.5t-89 -25.5q-74 0 -103.5 57.5t-29.5 192.5v661h-196v-694z" />
<glyph unicode="&#xfa;" horiz-adv-x="913" d="M111 381q0 -205 62.5 -304.5t217.5 -99.5q70 0 123 28t86 69v-74h197v1075h-197v-813q-29 -47 -71 -72.5t-89 -25.5q-74 0 -103.5 57.5t-29.5 192.5v661h-196v-694zM346 1219h168l297 327h-276z" />
<glyph unicode="&#xfb;" horiz-adv-x="913" d="M111 381q0 -205 62.5 -304.5t217.5 -99.5q70 0 123 28t86 69v-74h197v1075h-197v-813q-29 -47 -71 -72.5t-89 -25.5q-74 0 -103.5 57.5t-29.5 192.5v661h-196v-694zM133 1219h156l157 180l158 -180h160l-209 327h-213z" />
<glyph unicode="&#xfc;" horiz-adv-x="913" d="M111 381q0 -205 62.5 -304.5t217.5 -99.5q70 0 123 28t86 69v-74h197v1075h-197v-813q-29 -47 -71 -72.5t-89 -25.5q-74 0 -103.5 57.5t-29.5 192.5v661h-196v-694zM139 1346q0 -51 38 -89t91 -38q51 0 89 38t38 89q0 53 -38 91t-89 38q-53 0 -91 -38t-38 -91zM502 1346 q0 -51 38 -89t91 -38q51 0 89 38t38 89q0 53 -38 91t-89 38q-53 0 -91 -38t-38 -91z" />
<glyph unicode="&#xfd;" horiz-adv-x="888" d="M45 1075l299 -1075l-117 -379h193l424 1454h-209l-127 -508q-8 -31 -17.5 -72.5t-18.5 -84.5t-17.5 -80t-12.5 -58q-4 20 -11 57.5t-16 79.5t-18.5 84t-17.5 72l-125 510h-209zM336 1198h168l297 328h-277z" />
<glyph unicode="&#xfe;" horiz-adv-x="917" d="M117 -395l196 102v350q78 -80 187 -80q160 0 249 139.5t89 409.5q0 160 -23.5 269.5t-65.5 177t-101.5 96.5t-133.5 29q-72 0 -117 -27t-84 -67v489l-196 -102v-1786zM313 258v557q27 43 69 70.5t91 27.5q86 0 126 -93t40 -304q0 -190 -40 -272t-116 -82q-47 0 -92 23.5 t-78 72.5z" />
<glyph unicode="&#xff;" horiz-adv-x="888" d="M45 1075l299 -1075l-117 -379h193l424 1454h-209l-127 -508q-8 -31 -17.5 -72.5t-18.5 -84.5t-17.5 -80t-12.5 -58q-4 20 -11 57.5t-16 79.5t-18.5 84t-17.5 72l-125 510h-209zM129 1325q0 -51 38 -89t91 -38q51 0 89 38t38 89q0 53 -38 91t-89 38q-53 0 -91 -38t-38 -91 zM492 1325q0 -51 37.5 -89t91.5 -38q51 0 89 38t38 89q0 53 -38 91t-89 38q-53 0 -91 -38t-38 -91z" />
<glyph unicode="&#x152;" horiz-adv-x="1505" d="M92 715q0 -156 24.5 -291t77 -234.5t133.5 -156t195 -56.5q82 0 146.5 41t109.5 111v-129h660v195h-500v469h309v192h-309v383h473v195h-633v-138q-35 78 -101.5 119t-152.5 41q-115 0 -195.5 -57.5t-134 -157.5t-78 -235.5t-24.5 -290.5zM297 719q0 100 10 196.5t36 172 t69 121.5t108 46q66 0 110 -47t71.5 -123.5t40 -173t12.5 -196.5t-10.5 -196.5t-37 -172.5t-69.5 -122t-109 -46t-109.5 47t-71.5 124t-39 173t-11 197z" />
<glyph unicode="&#x153;" horiz-adv-x="1484" d="M80 532q0 -141 27.5 -245.5t79 -173t121 -102.5t153.5 -34q104 0 177 49.5t112 125.5q35 -74 107.5 -124.5t180.5 -50.5q104 0 184.5 41t135.5 103l-121 125q-47 -43 -87 -61.5t-108 -18.5q-86 0 -139 72.5t-63 232.5h563q2 16 2 35v35q0 141 -28.5 245.5t-80 173 t-121 103.5t-149.5 35q-98 0 -168 -47t-110 -125q-39 78 -110 125t-169 47q-180 0 -284.5 -140.5t-104.5 -425.5zM279 537q0 373 186 372q92 0 141 -94t49 -278q0 -168 -48 -269.5t-140 -101.5q-188 0 -188 371zM842 641q25 272 180 272q84 0 131 -75.5t51 -196.5h-362z" />
<glyph unicode="&#x178;" horiz-adv-x="1009" d="M45 1434l365 -799v-635h200v641l355 793h-220l-122 -297q-12 -29 -28.5 -72t-33 -87t-30 -84t-19.5 -58q-6 18 -19.5 57t-31 84t-33.5 88t-29 70l-127 299h-227zM197 1642q0 -51 37.5 -88.5t91.5 -37.5q51 0 89 37.5t38 88.5q0 53 -38 91.5t-89 38.5q-53 0 -91 -38 t-38 -92zM559 1642q0 -51 38 -88.5t91 -37.5q51 0 89 37.5t38 88.5q0 53 -38 91.5t-89 38.5q-53 0 -91 -38t-38 -92z" />
<glyph unicode="&#x2c6;" horiz-adv-x="819" d="M94 1219h156l158 180l157 -180h160l-209 327h-213z" />
<glyph unicode="&#x2dc;" horiz-adv-x="819" d="M74 1219h135q6 53 23.5 74.5t48.5 21.5q16 0 31.5 -7.5t35.5 -17.5q72 -45 118 -63.5t99 -18.5q84 0 138.5 65.5t54.5 192.5h-135q-6 -53 -21.5 -76.5t-46.5 -23.5q-16 0 -33.5 7t-38.5 18q-72 45 -115.5 63.5t-97.5 18.5q-84 0 -140 -63.5t-56 -190.5z" />
<glyph unicode="&#x2000;" horiz-adv-x="926" />
<glyph unicode="&#x2001;" horiz-adv-x="1853" />
<glyph unicode="&#x2002;" horiz-adv-x="926" />
<glyph unicode="&#x2003;" horiz-adv-x="1853" />
<glyph unicode="&#x2004;" horiz-adv-x="617" />
<glyph unicode="&#x2005;" horiz-adv-x="463" />
<glyph unicode="&#x2006;" horiz-adv-x="308" />
<glyph unicode="&#x2007;" horiz-adv-x="308" />
<glyph unicode="&#x2008;" horiz-adv-x="231" />
<glyph unicode="&#x2009;" horiz-adv-x="370" />
<glyph unicode="&#x200a;" horiz-adv-x="102" />
<glyph unicode="&#x2010;" horiz-adv-x="614" d="M82 647h450v205h-450v-205z" />
<glyph unicode="&#x2011;" horiz-adv-x="614" d="M82 647h450v205h-450v-205z" />
<glyph unicode="&#x2012;" horiz-adv-x="614" d="M82 647h450v205h-450v-205z" />
<glyph unicode="&#x2013;" horiz-adv-x="819" d="M82 653h655v193h-655v-193z" />
<glyph unicode="&#x2014;" horiz-adv-x="1126" d="M82 653h962v193h-962v-193z" />
<glyph unicode="&#x2018;" horiz-adv-x="495" d="M98 944h244l27 490h-133z" />
<glyph unicode="&#x2019;" horiz-adv-x="495" d="M127 944h133l137 490h-243z" />
<glyph unicode="&#x201a;" horiz-adv-x="495" d="M127 -231h133l137 489h-243z" />
<glyph unicode="&#x201c;" horiz-adv-x="935" d="M98 944h244l27 490h-133zM539 944h243l27 490h-133z" />
<glyph unicode="&#x201d;" horiz-adv-x="935" d="M127 944h133l137 490h-243zM567 944h133l138 490h-244z" />
<glyph unicode="&#x201e;" horiz-adv-x="935" d="M127 -231h133l137 489h-243zM567 -231h133l138 489h-244z" />
<glyph unicode="&#x2022;" horiz-adv-x="819" d="M102 750q0 -66 24 -121.5t65.5 -97.5t97 -65.5t121.5 -23.5q63 0 119.5 23.5t98.5 65.5t65.5 97.5t23.5 121.5q0 63 -23.5 120.5t-65.5 99.5t-98.5 66.5t-119.5 24.5q-66 0 -121.5 -24.5t-97 -66.5t-65.5 -99.5t-24 -120.5z" />
<glyph unicode="&#x2026;" horiz-adv-x="1425" d="M92 123q0 -61 42 -103.5t104 -42.5q61 0 103 42.5t42 103.5t-42 104t-103 43t-103.5 -43t-42.5 -104zM567 123q0 -61 42 -103.5t104 -42.5q61 0 103 42.5t42 103.5t-42 104t-103 43t-103.5 -43t-42.5 -104zM1042 123q0 -61 42 -103.5t104 -42.5q61 0 103 42.5t42 103.5 t-42 104t-103 43t-103.5 -43t-42.5 -104z" />
<glyph unicode="&#x202f;" horiz-adv-x="370" />
<glyph unicode="&#x2039;" horiz-adv-x="610" d="M41 537l276 -537h201l-266 539l266 536h-201z" />
<glyph unicode="&#x203a;" horiz-adv-x="610" d="M92 0h201l276 539l-276 536h-201l266 -538z" />
<glyph unicode="&#x205f;" horiz-adv-x="463" />
<glyph unicode="&#x20ac;" horiz-adv-x="952" d="M88 715q0 -154 22.5 -288t71.5 -233.5t127 -158t191 -58.5q88 0 152.5 25t110.5 72t76.5 114.5t51.5 151.5l-186 59q-27 -115 -69 -172t-122 -57q-86 0 -138 89t-75 226h344v158h-360q-2 18 -2 37v39v39q0 21 2 41h360v157h-344q10 63 26.5 118.5t41 97.5t58.5 67t77 25 q82 0 122 -49.5t70 -161.5l193 53q-16 76 -44 140.5t-73 111.5t-110.5 72.5t-155.5 25.5q-109 0 -187.5 -57.5t-130 -157.5t-76 -235.5t-24.5 -290.5z" />
<glyph unicode="&#x2122;" horiz-adv-x="1177" d="M39 1317h149v-688h117v688h146v117h-412v-117zM559 629h113v325v39t-1 47.5t-1 46.5v41q6 -18 13 -41.5t14.5 -49t14.5 -49t13 -42.5l104 -336l105 336q6 18 14 45t16.5 53.5t15.5 51t11 41.5q0 -35 -1 -91.5t-1 -91.5v-325h115v805h-121l-104 -332q-10 -33 -24.5 -83 t-20.5 -89q-6 37 -22.5 86t-27.5 82l-104 336h-121v-805z" />
<glyph unicode="&#x25fc;" horiz-adv-x="1075" d="M0 0v1075h1075v-1075h-1075z" />
<glyph unicode="&#xfb01;" horiz-adv-x="1034" d="M57 891h109v-891h196v891h177v184h-177v125q0 59 27 87t98 28q45 0 82 -12v163q-63 20 -161 21q-104 0 -173 -63.5t-69 -196.5v-152h-109v-184zM686 1364q0 -49 36 -85t87 -36q49 0 85 36t36 85q0 51 -36 87t-85 36q-51 0 -87 -36t-36 -87zM711 0h196v1075h-196v-1075z " />
<glyph unicode="&#xfb02;" horiz-adv-x="1034" d="M57 891h109v-891h196v891h177v184h-177v125q0 59 27 87t98 28q45 0 82 -12v163q-63 20 -161 21q-104 0 -173 -63.5t-69 -196.5v-152h-109v-184zM711 0h196v1493l-196 -102v-1391z" />
</font>
</defs>
</svg>
