<?xml version="1.0" standalone="no"?>
<!DOCTYPE svg PUBLIC "-//W3C//DTD SVG 1.1//EN" "http://www.w3.org/Graphics/SVG/1.1/DTD/svg11.dtd" >
<svg>
<metadata>
Created by FontForge 20090914 at Mon Jul  6 12:43:48 2015
 By www-data
Copyright (c) The Font Bureau, Inc, 2000. All rights reserved.
</metadata>
<defs>
<font id="Interstate-RegularCondensed" horiz-adv-x="750" >
  <font-face 
    font-family="Interstate-RegularCondensed"
    font-weight="400"
    font-stretch="normal"
    units-per-em="1000"
    panose-1="2 0 6 6 3 0 0 2 0 4"
    ascent="800"
    descent="-200"
    x-height="525"
    cap-height="700"
    bbox="-72 -193 1160 910"
    underline-thickness="20"
    underline-position="-123"
    unicode-range="U+0020-U+FB02"
  />
<missing-glyph horiz-adv-x="500" 
 />
    <glyph glyph-name=".notdef" horiz-adv-x="500" 
 />
    <glyph glyph-name="space" unicode=" " horiz-adv-x="220" 
 />
    <glyph glyph-name="exclam" unicode="!" horiz-adv-x="248" 
d="M173 352v348h-98v-348l16 -150h66zM192 57c0 19.333 -6.5 35.666 -19.5 48.999s-29.167 20 -48.5 20s-35.5 -6.66699 -48.5 -20s-19.5 -29.666 -19.5 -48.999s6.5 -35.5 19.5 -48.5s29.167 -19.5 48.5 -19.5s35.5 6.5 48.5 19.5s19.5 29.167 19.5 48.5z" />
    <glyph glyph-name="quotedbl" unicode="&#x22;" horiz-adv-x="442" 
d="M380 700h-117l25 -327h67zM179 700h-117l25 -327h67z" />
    <glyph glyph-name="numbersign" unicode="#" horiz-adv-x="600" 
d="M555 160v90h-95v200h95v90h-95v160h-93v-160h-134v160h-93v-160h-95v-90h95v-200h-95v-90h95v-160h93v160h134v-160h93v160h95zM367 250h-134v200h134v-200z" />
    <glyph glyph-name="dollar" unicode="$" horiz-adv-x="443" 
d="M403 186c0 29.333 -3.99805 54.668 -11.998 76.001s-19 40.5 -33 57.5s-30.5 32.5 -49.5 46.5s-39.5 28 -61.5 42c-19.333 12.667 -35.5 23.834 -48.5 33.501s-23.5 19.167 -31.5 28.5s-13.667 19 -17 29s-5 21.667 -5 35c0 22 6.33301 39.5 19 52.5s30.667 19.5 54 19.5
c10.667 0 20.5 -1.16699 29.5 -3.5s17.333 -6.16602 25 -11.499s15.167 -12 22.5 -20s15.333 -17.667 24 -29l72 64c-17.333 24.667 -35.833 44.667 -55.5 60s-43.5 25.666 -71.5 30.999v83h-98v-86c-38 -9.33301 -67.833 -28.333 -89.5 -57s-32.5 -64 -32.5 -106
c0 -27.333 3.66699 -51.166 11 -71.499s17.333 -38.5 30 -54.5s27.5 -30.5 44.5 -43.5s35.5 -25.833 55.5 -38.5c23.333 -15.333 42.666 -28.833 57.999 -40.5s27.333 -22.834 36 -33.501s14.667 -21.334 18 -32.001s5 -22.667 5 -36
c0 -28.667 -7.33301 -50.334 -22 -65.001s-35.334 -22 -62.001 -22c-21.333 0 -40.833 6 -58.5 18s-36.167 33 -55.5 63l-77 -62c16.667 -28 36 -51.5 58 -70.5s49 -31.833 81 -38.5v-84h98v84c46 9.33301 80.667 30 104 62s35 72 35 120z" />
    <glyph glyph-name="percent" unicode="%" horiz-adv-x="855" 
d="M347 494c0 32 -2.66602 61.168 -7.99902 87.501s-14 49.166 -26 68.499s-27.333 34.333 -46 45s-41.334 16 -68.001 16c-26 0 -48.333 -5.33301 -67 -16s-34.167 -25.667 -46.5 -45s-21.333 -42.5 -27 -69.5s-8.5 -56.5 -8.5 -88.5s2.83301 -61.167 8.5 -87.5
s14.5 -49 26.5 -68s27.333 -33.833 46 -44.5s40.667 -16 66 -16s47.5 5.33301 66.5 16s34.667 25.667 47 45s21.5 42.333 27.5 69s9 56 9 88zM653.001 700.001h-88l-369 -700h88zM805.001 207.001c0 32 -2.66602 61.168 -7.99902 87.501s-14 49.166 -26 68.499
s-27.333 34.333 -46 45s-41.334 16 -68.001 16c-26 0 -48.333 -5.33301 -67 -16s-34.167 -25.667 -46.5 -45s-21.333 -42.5 -27 -69.5s-8.5 -56.5 -8.5 -88.5s2.83301 -61.167 8.5 -87.5s14.5 -49 26.5 -68s27.333 -33.833 46 -44.5s40.667 -16 66 -16s47.5 5.33301 66.5 16
s34.667 25.667 47 45s21.5 42.333 27.5 69s9 56 9 88zM265.002 492.002c0 -19.333 -1.16895 -37.333 -3.50195 -54s-6.16602 -31.5 -11.499 -44.5s-12.166 -23.167 -20.499 -30.5s-18.5 -11 -30.5 -11c-24 0 -41 13.167 -51 39.5s-15 60.5 -15 102.5
s4.83301 75.667 14.5 101s26.5 38 50.5 38s41.167 -13 51.5 -39s15.5 -60 15.5 -102zM723 205.002c0 -19.333 -1.16895 -37.333 -3.50195 -54s-6.16602 -31.5 -11.499 -44.5s-12.166 -23.167 -20.499 -30.5s-18.5 -11 -30.5 -11c-24 0 -41 13.167 -51 39.5
s-15 60.5 -15 102.5s4.83301 75.667 14.5 101s26.5 38 50.5 38s41.167 -13 51.5 -39s15.5 -60 15.5 -102z" />
    <glyph glyph-name="ampersand" unicode="&#x26;" horiz-adv-x="480" 
d="M471 0l-88.998 150.998c9.33301 24 18.166 50.667 26.499 80s16.833 62 25.5 98l-80 22c-9.33301 -40 -18.333 -75 -27 -105l-126 217c-12 21.333 -20.5 40 -25.5 56s-7.5 32.333 -7.5 49c0 13.333 5 25.166 15 35.499s25.333 15.5 46 15.5c21.333 0 40 -3.66699 56 -11
s34.333 -18.333 55 -33l47 80c-23.333 18 -47 31.833 -71 41.5s-52.667 14.5 -86 14.5c-23.333 0 -44.833 -3.5 -64.5 -10.5s-36.5 -16.833 -50.5 -29.5s-25 -28 -33 -46s-12 -37.667 -12 -59c0 -27.333 5 -52.666 15 -75.999s24.667 -50.666 44 -81.999l17 -30
c-36.667 -30 -64.834 -63.167 -84.501 -99.5s-29.5 -75.166 -29.5 -116.499c0 -51.333 13.167 -93 39.5 -125s67.166 -48 122.499 -48c30.667 0 57.334 5.83301 80.001 17.5s43 29.167 61 52.5l35 -59h101zM288.002 138.998c-11.333 -20.667 -23.833 -35.5 -37.5 -44.5
s-29.5 -13.5 -47.5 -13.5c-50 0 -75 30.667 -75 92c0 19.333 4.66699 40.333 14 63s25.333 45.667 48 69z" />
    <glyph glyph-name="quotesingle" unicode="'" horiz-adv-x="241" 
d="M179 700h-117l25 -327h67z" />
    <glyph glyph-name="parenleft" unicode="(" horiz-adv-x="310" 
d="M274 -70c-19.333 25.333 -36.667 51.499 -52 78.499s-28.333 55.5 -39 85.5s-19 62.333 -25 97s-9 72.667 -9 114c0 40 3 77 9 111s14.333 66 25 96s23.667 58.333 39 85s32.666 53 51.999 79l-53 40c-24 -29.333 -46.5 -58.5 -67.5 -87.5s-39.167 -60 -54.5 -93
s-27.333 -68.667 -36 -107s-13 -81.166 -13 -128.499c0 -46 4.5 -88 13.5 -126s21.333 -73.5 37 -106.5s33.834 -64 54.501 -93s42.667 -57.167 66 -84.5z" />
    <glyph glyph-name="parenright" unicode=")" horiz-adv-x="310" 
d="M260 306c0 46 -4.49902 88.001 -13.499 126.001s-21.333 73.5 -37 106.5s-33.834 64 -54.501 93s-42.667 57.167 -66 84.5l-53 -40c18.667 -25.333 35.834 -51.5 51.501 -78.5s28.834 -55.5 39.501 -85.5s19 -62.333 25 -97s9 -72.667 9 -114c0 -40 -3 -77 -9 -111
s-14.333 -66 -25 -96s-23.834 -58.333 -39.501 -85s-32.834 -53 -51.501 -79l53 -40c24 28.667 46.5 57.667 67.5 87s39.167 60.5 54.5 93.5s27.333 68.667 36 107s13 81.166 13 128.499z" />
    <glyph glyph-name="asterisk" unicode="*" horiz-adv-x="429" 
d="M396 462l-132 57l131 58l-41 71l-114 -82l15 137h-80l14 -140l-114 84l-41 -70l127 -58l-128 -57l41 -71l115 83l-14 -141h80l-15 140l115 -82z" />
    <glyph glyph-name="plus" unicode="+" horiz-adv-x="453" 
d="M418 297v94h-143v158h-97v-158h-143v-94h143v-158h97v158h143z" />
    <glyph glyph-name="comma" unicode="," horiz-adv-x="232" 
d="M187 126h-119l-13 -239h65z" />
    <glyph glyph-name="hyphen" unicode="-" horiz-adv-x="300" 
d="M260 316v100h-220v-100h220z" />
    <glyph glyph-name="hyphen" unicode="&#xad;" horiz-adv-x="300" 
d="M260 316v100h-220v-100h220z" />
    <glyph glyph-name="period" unicode="." horiz-adv-x="232" 
d="M186 59c0 19.333 -6.83301 36 -20.5 50s-30.167 21 -49.5 21s-35.833 -7 -49.5 -21s-20.5 -30.667 -20.5 -50s6.83301 -35.833 20.5 -49.5s30.167 -20.5 49.5 -20.5s35.833 6.83301 49.5 20.5s20.5 30.167 20.5 49.5z" />
    <glyph glyph-name="slash" unicode="/" horiz-adv-x="350" 
d="M356 790h-97l-265 -880h97z" />
    <glyph glyph-name="zero" unicode="0" horiz-adv-x="499" 
d="M456 351c0 51.333 -3.83594 98.999 -11.5029 142.999s-19.667 82 -36 114s-37.666 57.167 -63.999 75.5s-58.166 27.5 -95.499 27.5s-69 -9.33301 -95 -28s-47.167 -44.334 -63.5 -77.001s-28.333 -71 -36 -115s-11.5 -91.333 -11.5 -142s3.66699 -98 11 -142
s19.333 -82.167 36 -114.5s37.834 -57.666 63.501 -75.999s57.167 -27.5 94.5 -27.5c36.667 0 68.167 9.33301 94.5 28s48 44.334 65 77.001s29.333 71 37 115s11.5 91.333 11.5 142zM357.997 348.999c0 -34 -1.66504 -67 -4.99805 -99s-9 -60.167 -17 -84.5
s-18.833 -43.833 -32.5 -58.5s-31.167 -22 -52.5 -22s-39 7.5 -53 22.5s-25.333 34.833 -34 59.5s-14.667 53 -18 85s-5 65 -5 99s1.5 67 4.5 99s8.5 60.167 16.5 84.5s18.833 43.833 32.5 58.5s31.167 22 52.5 22s39.166 -7.5 53.499 -22.5s25.666 -34.833 33.999 -59.5
s14.333 -53 18 -85s5.5 -65 5.5 -99z" />
    <glyph glyph-name="one" unicode="1" horiz-adv-x="275" 
d="M210 0l-0.000976562 700.001h-80c-7.33301 -26.667 -19.666 -45.834 -36.999 -57.501s-42 -19.5 -74 -23.5v-68h94v-551h97z" />
    <glyph glyph-name="two" unicode="2" horiz-adv-x="474" 
d="M420 0v98.001h-260c3.33301 28 8.83301 52.667 16.5 74s17.334 40.833 29.001 58.5s25.167 34.167 40.5 49.5s32.333 30.666 51 45.999c21.333 18 39.5 34.833 54.5 50.5s27.167 31.667 36.5 48s16 33.333 20 51s6 37.167 6 58.5c0 52.667 -15.167 95.334 -45.5 128.001
s-74.833 49 -133.5 49c-41.333 0 -76.5 -8.16699 -105.5 -24.5s-55.167 -36.5 -78.5 -60.5l61 -71c19.333 18 38.333 32.167 57 42.5s38.667 15.5 60 15.5c26.667 0 47.5 -7.83301 62.5 -23.5s22.5 -38.5 22.5 -68.5c0 -24 -5.66699 -45.167 -17 -63.5
s-29.333 -37.5 -54 -57.5c-32 -26 -59.5 -51.5 -82.5 -76.5s-42.5 -52.667 -58.5 -83s-28.333 -64.833 -37 -103.5s-14.334 -84.334 -17.001 -137.001h372z" />
    <glyph glyph-name="three" unicode="3" horiz-adv-x="465" 
d="M418 201c0 28 -3.33301 52.001 -10 72.001s-15.5 37 -26.5 51s-23.333 25.167 -37 33.5s-27.5 14.833 -41.5 19.5c14 6 27 13.333 39 22s22.5 19.167 31.5 31.5s16 26.833 21 43.5s7.5 35.667 7.5 57c0 30 -4.33301 56.167 -13 78.5s-21 41 -37 56s-35 26.333 -57 34
s-46 11.5 -72 11.5c-37.333 0 -69 -7.66699 -95 -23s-51.667 -36 -77 -62l60 -69c20 19.333 38.333 34 55 44s34.334 15 53.001 15c30 0 51.667 -8.66699 65 -26s20 -38 20 -62c0 -36 -11 -63.5 -33 -82.5s-51 -28.5 -87 -28.5h-25v-94h23c92 0 138 -42.333 138 -127
c0 -36 -9.33301 -63.667 -28 -83s-42.334 -29 -71.001 -29c-24 0 -46 5.66699 -66 17s-40.667 31.666 -62 60.999l-72 -61c25.333 -37.333 53.166 -65.333 83.499 -84s67.5 -28 111.5 -28c28.667 0 55.334 4.66699 80.001 14s46 23 64 41s32.167 40.167 42.5 66.5
s15.5 56.5 15.5 90.5z" />
    <glyph glyph-name="four" unicode="4" horiz-adv-x="475" 
d="M442 169v93h-48v438h-93l-273 -454v-77h271v-169h95v169h48zM302 544l-2 -49.999c-0.666992 -16 -1 -32.667 -1 -50v-182h-95c-14 0 -27 -0.166992 -39 -0.5s-23 -0.5 -33 -0.5l23 35.5l26 42.5l68 111c10.667 17.333 20.167 33.666 28.5 48.999z" />
    <glyph glyph-name="five" unicode="5" horiz-adv-x="474" 
d="M431 238c0 71.333 -15.666 127.334 -46.999 168.001s-76.333 61 -135 61c-20.667 0 -37.667 -2.33301 -51 -7s-26.333 -11 -39 -19l9 163h241v96h-331l-18 -362l84 -16c10.667 16 23 28.333 37 37s32 13 54 13c16.667 0 31.167 -3.5 43.5 -10.5
s22.666 -16.833 30.999 -29.5s14.5 -27.334 18.5 -44.001s6 -34.667 6 -54c0 -47.333 -10 -84.166 -30 -110.499s-49 -39.5 -87 -39.5c-23.333 0 -45.5 5.16699 -66.5 15.5s-40.167 23.5 -57.5 39.5l-55 -74c22 -23.333 47.5 -41.833 76.5 -55.5s61.5 -20.5 97.5 -20.5
c74 0 129 22.167 165 66.5s54 105.166 54 182.499z" />
    <glyph glyph-name="six" unicode="6" horiz-adv-x="468" 
d="M435 216c0 32 -4.33105 61.168 -12.998 87.501s-20.834 49 -36.501 68s-34.334 33.833 -56.001 44.5s-45.834 16 -72.501 16c-24.667 0 -45.834 -3.83301 -63.501 -11.5s-33.167 -18.834 -46.5 -33.501c4.66699 30 12.834 58.167 24.501 84.5s26.334 49.833 44.001 70.5
s38.5 37.667 62.5 51s51 22 81 26v92c-51.333 -4.66699 -96.666 -18.834 -135.999 -42.501s-72.333 -55.5 -99 -95.5s-46.834 -87.333 -60.501 -142s-20.5 -115.667 -20.5 -183c0 -45.333 4.66699 -84.333 14 -117s22.166 -59.5 38.499 -80.5s36 -36.5 59 -46.5
s48.5 -15 76.5 -15c31.333 0 59.5 5.33301 84.5 16s46.333 25.834 64 45.501s31.334 43.5 41.001 71.5s14.5 59.333 14.5 94zM340.002 214.001c0 -40.667 -8.83301 -72.832 -26.5 -96.499s-43.167 -35.5 -76.5 -35.5c-32 0 -56.5 11.667 -73.5 35s-25.5 53.666 -25.5 90.999
c0 41.333 8.5 73.5 25.5 96.5s41.5 34.5 73.5 34.5c32.667 0 58 -11.5 76 -34.5s27 -53.167 27 -90.5z" />
    <glyph glyph-name="seven" unicode="7" horiz-adv-x="440" 
d="M402 600v99.999h-372v-95h267c-30.667 -38 -56.5 -79.333 -77.5 -124s-38 -92.167 -51 -142.5s-22.333 -103.833 -28 -160.5s-8.5 -116 -8.5 -178h98c0 58 2.5 114.333 7.5 169s13.833 107.167 26.5 157.5s30.167 98.333 52.5 144s50.833 88.834 85.5 129.501z" />
    <glyph glyph-name="eight" unicode="8" horiz-adv-x="478" 
d="M437 211c0 41.333 -8 76.002 -24 104.002s-36.667 50.667 -62 68c20 13.333 37 31.333 51 54s21 50.334 21 83.001c0 28.667 -4.33301 54.667 -13 78s-20.834 43.333 -36.501 60s-34.667 29.667 -57 39s-47.166 14 -74.499 14c-26.667 0 -51.167 -4.5 -73.5 -13.5
s-41.5 -21.833 -57.5 -38.5s-28.5 -37 -37.5 -61s-13.5 -50.667 -13.5 -80c0 -31.333 6.5 -58.333 19.5 -81s30.167 -40.667 51.5 -54c-24.667 -16.667 -45.167 -38.834 -61.5 -66.501s-24.5 -64.167 -24.5 -109.5c0 -36.667 5.33301 -68.667 16 -96s25 -50 43 -68
s39 -31.5 63 -40.5s49.333 -13.5 76 -13.5c27.333 0 52.833 5.16699 76.5 15.5s44.167 25.166 61.5 44.499s31 42.666 41 69.999s15 58 15 92zM327 520.002c0 -27.333 -7.16699 -50 -21.5 -68s-35.5 -27 -63.5 -27c-27.333 0 -48.5 9 -63.5 27s-22.5 40.667 -22.5 68
c0 30.667 7.33301 54.5 22 71.5s35.667 25.5 63 25.5s48.5 -8.5 63.5 -25.5s22.5 -40.833 22.5 -71.5zM341 209.002c0 -41.333 -8.49902 -72.667 -25.499 -94s-40.5 -32 -70.5 -32c-32 0 -57.333 10.5 -76 31.5s-28 52.5 -28 94.5c0 38 8.83301 68 26.5 90s42.5 33 74.5 33
c31.333 0 55.666 -11 72.999 -33s26 -52 26 -90z" />
    <glyph glyph-name="nine" unicode="9" horiz-adv-x="468" 
d="M425 452c0 45.333 -4.66895 84.332 -14.002 116.999s-22.166 59.5 -38.499 80.5s-36 36.5 -59 46.5s-48.5 15 -76.5 15c-31.333 0 -59.5 -5.33301 -84.5 -16s-46.333 -25.834 -64 -45.501s-31.334 -43.5 -41.001 -71.5s-14.5 -59.333 -14.5 -94
c0 -32 4.33301 -61.167 13 -87.5s20.834 -49 36.501 -68s34.334 -33.833 56.001 -44.5s45.834 -16 72.501 -16c24.667 0 45.834 3.83301 63.501 11.5s33.167 18.834 46.5 33.501c-4.66699 -30 -12.834 -58.167 -24.501 -84.5s-26.334 -49.833 -44.001 -70.5
s-38.5 -37.667 -62.5 -51s-51 -22 -81 -26v-92c51.333 4.66699 96.666 18.834 135.999 42.501s72.333 55.5 99 95.5s46.834 87.333 60.501 142s20.5 115.667 20.5 183zM329.998 491.999c0 -41.333 -8.5 -73.502 -25.5 -96.502s-41.5 -34.5 -73.5 -34.5
c-32.667 0 -58 11.5 -76 34.5s-27 53.167 -27 90.5c0 40.667 8.83301 72.834 26.5 96.501s43.167 35.5 76.5 35.5c32 0 56.5 -11.667 73.5 -35s25.5 -53.666 25.5 -90.999z" />
    <glyph glyph-name="colon" unicode=":" horiz-adv-x="232" 
d="M186 465c0 19.333 -6.83301 36 -20.5 50s-30.167 21 -49.5 21s-35.833 -7 -49.5 -21s-20.5 -30.667 -20.5 -50s6.83301 -35.833 20.5 -49.5s30.167 -20.5 49.5 -20.5s35.833 6.83301 49.5 20.5s20.5 30.167 20.5 49.5zM186 59c0 19.333 -6.83301 36 -20.5 50
s-30.167 21 -49.5 21s-35.833 -7 -49.5 -21s-20.5 -30.667 -20.5 -50s6.83301 -35.833 20.5 -49.5s30.167 -20.5 49.5 -20.5s35.833 6.83301 49.5 20.5s20.5 30.167 20.5 49.5z" />
    <glyph glyph-name="semicolon" unicode=";" horiz-adv-x="232" 
d="M186 465c0 19.333 -6.83301 36 -20.5 50s-30.167 21 -49.5 21s-35.833 -7 -49.5 -21s-20.5 -30.667 -20.5 -50s6.83301 -35.833 20.5 -49.5s30.167 -20.5 49.5 -20.5s35.833 6.83301 49.5 20.5s20.5 30.167 20.5 49.5zM177 126h-119l-13 -239h65z" />
    <glyph glyph-name="semicolon" unicode="&#x37e;" horiz-adv-x="232" 
d="M186 465c0 19.333 -6.83301 36 -20.5 50s-30.167 21 -49.5 21s-35.833 -7 -49.5 -21s-20.5 -30.667 -20.5 -50s6.83301 -35.833 20.5 -49.5s30.167 -20.5 49.5 -20.5s35.833 6.83301 49.5 20.5s20.5 30.167 20.5 49.5zM177 126h-119l-13 -239h65z" />
    <glyph glyph-name="less" unicode="&#x3c;" horiz-adv-x="324" 
d="M278 90v121l-157 134l157 133v120l-241 -210v-88z" />
    <glyph glyph-name="equal" unicode="=" horiz-adv-x="500" 
d="M435 411v95h-370v-95h370zM435 182v95h-370v-95h370z" />
    <glyph glyph-name="greater" unicode="&#x3e;" horiz-adv-x="324" 
d="M287 300v88l-241 210v-121l157 -134l-157 -133v-120z" />
    <glyph glyph-name="question" unicode="?" horiz-adv-x="451" 
d="M411 537c0 52 -15.6631 94 -46.9961 126s-77.333 48 -138 48c-42.667 0 -80.834 -8.66699 -114.501 -26s-64.834 -40.333 -93.501 -69l62 -73c25.333 23.333 49 40.666 71 51.999s45.667 17 71 17c26 0 47.167 -7 63.5 -21s24.5 -35 24.5 -63c0 -40 -19 -72.667 -57 -98
c-23.333 -15.333 -41.833 -30.333 -55.5 -45s-24 -30.667 -31 -48s-11.333 -36.833 -13 -58.5s-2.5 -47.167 -2.5 -76.5h101c0 22 0.5 40.833 1.5 56.5s3.16699 29.334 6.5 41.001s8.66602 22 15.999 31s17.666 18.167 30.999 27.5c14.667 10 28.5 20.5 41.5 31.5
s24 23.5 33 37.5s16.167 29.833 21.5 47.5s8 38.5 8 62.5zM273.004 57c0 19.333 -6.5 35.666 -19.5 48.999s-29.167 20 -48.5 20s-35.5 -6.66699 -48.5 -20s-19.5 -29.666 -19.5 -48.999s6.5 -35.5 19.5 -48.5s29.167 -19.5 48.5 -19.5s35.5 6.5 48.5 19.5
s19.5 29.167 19.5 48.5z" />
    <glyph glyph-name="at" unicode="@" horiz-adv-x="646" 
d="M601 360c0 52.667 -6.83887 100.662 -20.5059 143.995s-32.667 80.333 -57 111s-53.666 54.334 -87.999 71.001s-71.833 25 -112.5 25c-40 0 -77 -8.5 -111 -25.5s-63.333 -41.333 -88 -73s-44 -69.667 -58 -114s-21 -93.833 -21 -148.5s7 -104.167 21 -148.5
s33.333 -82.333 58 -114s54 -56 88 -73s71 -25.5 111 -25.5c22 0 42.167 2 60.5 6s38.166 12.667 59.499 26l-20 47c-15.333 -8.66699 -31.166 -14.667 -47.499 -18s-33.166 -5 -50.499 -5c-34 0 -64.667 7.33301 -92 22s-50.666 35.334 -69.999 62.001
s-34.166 58.834 -44.499 96.501s-15.5 79.5 -15.5 125.5s5.16699 87.5 15.5 124.5s25 68.833 44 95.5s42 47.167 69 61.5s57.5 21.5 91.5 21.5c32.667 0 62.667 -6.5 90 -19.5s50.833 -31.833 70.5 -56.5s35 -55.334 46 -92.001s16.5 -78.334 16.5 -125.001
c0 -50.667 -4.16699 -88.667 -12.5 -114s-23.166 -38 -44.499 -38c-18 0 -30.333 6.16699 -37 18.5s-10 27.5 -10 45.5v168c0 40.667 -10.667 70.834 -32 90.501s-51.333 29.5 -90 29.5c-17.333 0 -35 -3.16699 -53 -9.5s-34.333 -14.5 -49 -24.5l22 -49
c22.667 16 47.334 24 74.001 24c23.333 0 40.666 -4.5 51.999 -13.5s17 -24.167 17 -45.5v-51c-8.66699 6.66699 -21 12.667 -37 18s-31.667 8 -47 8s-29.666 -2.66699 -42.999 -8s-25.333 -13.166 -36 -23.499s-19 -23.5 -25 -39.5s-9 -34.667 -9 -56
c0 -23.333 3.33301 -43.5 10 -60.5s15.5 -31.167 26.5 -42.5s23.5 -19.833 37.5 -25.5s28.333 -8.5 43 -8.5c22 0 41.667 6 59 18s30.666 26 39.999 42c7.33301 -17.333 17.833 -31.666 31.5 -42.999s30.5 -17 50.5 -17c16.667 0 32.167 3.33301 46.5 10
s26.833 17.834 37.5 33.501s18.834 36.667 24.501 63s8.5 59.5 8.5 99.5zM382.994 267.995c-7.33301 -16.667 -17.668 -29.834 -31.001 -39.501s-27 -14.5 -41 -14.5c-24.667 0 -41.5 7.16699 -50.5 21.5s-13.5 33.5 -13.5 57.5c0 21.333 4.83301 38 14.5 50
s24.834 18 45.501 18c17.333 0 32.5 -3.16699 45.5 -9.5s23.167 -13.166 30.5 -20.499v-63z" />
    <glyph glyph-name="A" unicode="A" horiz-adv-x="494" 
d="M469 0l-171 700h-101l-172 -700h104l40 185h152l41 -185h107zM301 278h-112l26 118c2.66699 12 5.5 25.5 8.5 40.5l8.5 44l7.5 40l5.5 28.5l5.5 -28.5l7.5 -40.5c2.66699 -14.667 5.5 -29.5 8.5 -44.5s5.83301 -28.167 8.5 -39.5z" />
    <glyph glyph-name="B" unicode="B" horiz-adv-x="497" 
d="M452 211c0 38 -8.16699 71.333 -24.5 100s-39.5 48.334 -69.5 59.001c28 13.333 48.667 33.666 62 60.999s20 55.333 20 84c0 32.667 -4.83301 60.667 -14.5 84s-23.167 42.5 -40.5 57.5s-37.833 26 -61.5 33s-49.5 10.5 -77.5 10.5h-176v-700h186
c58 0 105.167 17.667 141.5 53s54.5 88 54.5 158zM340 512c0 -34 -9 -58.666 -27 -73.999s-40 -23 -66 -23h-80v190h82c26.667 0 48.5 -6.83301 65.5 -20.5s25.5 -37.834 25.5 -72.501zM352 211.001c0 -42 -8.66699 -71.833 -26 -89.5s-41 -26.5 -71 -26.5h-88v226h78
c30.667 0 56.167 -8.5 76.5 -25.5s30.5 -45.167 30.5 -84.5z" />
    <glyph glyph-name="C" unicode="C" horiz-adv-x="480" 
d="M437 166l-91.001 29.001c-9.33301 -38 -20.5 -65.333 -33.5 -82s-31.167 -25 -54.5 -25c-21.333 0 -39.166 7.66699 -53.499 23s-25.833 35.333 -34.5 60s-14.834 52.834 -18.501 84.501s-5.5 63.5 -5.5 95.5c0 30.667 1.5 61.5 4.5 92.5s8.33301 59 16 84
s18.334 45.333 32.001 61s31.167 23.5 52.5 23.5c27.333 0 46.833 -8.16699 58.5 -24.5s20.834 -40.5 27.501 -72.5l99 25c-4 24.667 -10.333 47.5 -19 68.5s-20.167 39.167 -34.5 54.5s-32 27.166 -53 35.499s-46.167 12.5 -75.5 12.5
c-37.333 0 -69.166 -9.33301 -95.499 -28s-47.833 -44.334 -64.5 -77.001s-29 -71 -37 -115s-12 -91.333 -12 -142c0 -50 3.66699 -96.833 11 -140.5s19.166 -81.667 35.499 -114s37.5 -58 63.5 -77s58 -28.5 96 -28.5c28.667 0 53.5 4.33301 74.5 13s38.833 20.667 53.5 36
s26.667 34 36 56s16.666 46 21.999 72z" />
    <glyph glyph-name="D" unicode="D" horiz-adv-x="507" 
d="M462 353c0 52 -4.33203 99.333 -12.999 142s-22 79.167 -40 109.5s-41 53.833 -69 70.5s-61.333 25 -100 25h-170v-700h170c36.667 0 69 8.66699 97 26s51.167 41.5 69.5 72.5s32.166 68.167 41.499 111.5s14 91 14 143zM361.001 353
c0 -30.667 -1.83301 -61.333 -5.5 -92s-10.167 -58.167 -19.5 -82.5s-21.833 -44.166 -37.5 -59.499s-35.167 -23 -58.5 -23h-72v508h69c24.667 0 45 -7.33301 61 -22s28.667 -33.834 38 -57.501s15.833 -50.5 19.5 -80.5s5.5 -60.333 5.5 -91z" />
    <glyph glyph-name="E" unicode="E" horiz-adv-x="445" 
d="M412 0v95h-244v229h151v94h-151v187h231v95h-329v-700h342z" />
    <glyph glyph-name="F" unicode="F" horiz-adv-x="428" 
d="M404 605v95h-334v-700h98v319h151v94h-151v192h236z" />
    <glyph glyph-name="G" unicode="G" horiz-adv-x="511" 
d="M453 205l0.00292969 155h-178v-96h78v-50c0 -43.333 -6.66699 -75.166 -20 -95.499s-36.666 -30.5 -69.999 -30.5c-23.333 0 -42.5 8 -57.5 24s-26.833 36.667 -35.5 62s-14.834 53.5 -18.501 84.5s-5.5 61.5 -5.5 91.5c0 37.333 2.16699 72 6.5 104s11 59.667 20 83
s20.333 41.666 34 54.999s30.167 20 49.5 20c25.333 0 45 -7.33301 59 -22s25 -40 33 -76l98 26c-10 52.667 -29.5 94.334 -58.5 125.001s-71.833 46 -128.5 46c-36.667 0 -68.334 -8.83301 -95.001 -26.5s-48.834 -42.5 -66.501 -74.5s-30.834 -70.167 -39.501 -114.5
s-13 -92.833 -13 -145.5c0 -50 4 -97 12 -141s20.5 -82.167 37.5 -114.5s38.833 -58 65.5 -77s58.667 -28.5 96 -28.5c35.333 0 65.5 5.66699 90.5 17s45.333 26.833 61 46.5s27.167 42.667 34.5 69s11 54.166 11 83.499z" />
    <glyph glyph-name="H" unicode="H" horiz-adv-x="532" 
d="M462 0v700h-98v-280h-196v280h-98v-700h98v324h196v-324h98z" />
    <glyph glyph-name="I" unicode="I" horiz-adv-x="248" 
d="M173 0v700h-98v-700h98z" />
    <glyph glyph-name="J" unicode="J" horiz-adv-x="438" 
d="M371 200v500h-98v-503c0 -34 -5.66699 -61 -17 -81s-32.333 -30 -63 -30c-25.333 0 -44.5 8 -57.5 24s-23.167 43.667 -30.5 83l-89 -23c3.33301 -26.667 9 -51 17 -73s18.833 -41 32.5 -57s31 -28.5 52 -37.5s46.167 -13.5 75.5 -13.5c60.667 0 105.5 18.333 134.5 55
s43.5 88.667 43.5 156z" />
    <glyph glyph-name="K" unicode="K" horiz-adv-x="482" 
d="M462 0l-166 454l152 246h-111l-115 -190c-4 -6 -8.5 -13.667 -13.5 -23l-16 -28.5l-15.5 -27.5l-11 -20c0 5.33301 0.166992 13 0.5 23l1 31.5c0.333008 11 0.5 21.5 0.5 31.5v26v177h-98v-700h98v257l58 94l130 -351h106z" />
    <glyph glyph-name="L" unicode="L" horiz-adv-x="418" 
d="M392 0v96h-224v604h-98v-700h322z" />
    <glyph glyph-name="M" unicode="M" horiz-adv-x="612" 
d="M542 0l-0.00390625 700h-102l-90 -288c-3.33301 -10 -7.16602 -22.667 -11.499 -38l-13 -46c-4.33301 -15.333 -8.16602 -29.5 -11.499 -42.5s-6 -22.833 -8 -29.5c-1.33301 6 -3.83301 15.5 -7.5 28.5l-11.5 42c-4 15 -8.16699 29.833 -12.5 44.5l-11.5 38l-90 291h-103
v-700h92v282v41c0 17.333 -0.166992 34.666 -0.5 51.999s-0.666016 33.333 -0.999023 48s-0.5 25.334 -0.5 32.001c2 -7.33301 5.16699 -18.333 9.5 -33l14.5 -48.5l16 -53.5l14 -46l90 -293l90 293l14 46l16 53.5l14.5 48.5c4.33301 14.667 7.5 25.667 9.5 33
c0 -6.66699 -0.166992 -17.334 -0.5 -32.001s-0.666016 -30.667 -0.999023 -48s-0.5 -34.666 -0.5 -51.999v-41v-282h96z" />
    <glyph glyph-name="N" unicode="N" horiz-adv-x="532" 
d="M462 0v700h-96v-308v-33c0 -12.667 0.166992 -26 0.5 -40s0.666016 -27 0.999023 -39s0.5 -21.333 0.5 -28l-9.5 22l-13.5 32l-14 33.5l-12 27.5l-151 333h-98v-700h96v350v32c0 13.333 -0.166992 27 -0.5 41s-0.666016 27 -0.999023 39s-0.5 21.333 -0.5 28
c2 -5.33301 5.16699 -12.833 9.5 -22.5l13.5 -31.5l14 -33.5l12 -27.5l169 -375h80z" />
    <glyph glyph-name="O" unicode="O" horiz-adv-x="513" 
d="M468 351c0 50.667 -4.16699 98 -12.5 142s-21 82.167 -38 114.5s-39 57.666 -66 75.999s-58.833 27.5 -95.5 27.5c-37.333 0 -69.166 -9.33301 -95.499 -28s-48.166 -44.334 -65.499 -77.001s-30 -71 -38 -115s-12 -91.333 -12 -142s4 -98 12 -142
s20.5 -82.167 37.5 -114.5s38.667 -57.666 65 -75.999s58.166 -27.5 95.499 -27.5c36.667 0 68.5 9.33301 95.5 28s49.167 44.334 66.5 77.001s30.166 71 38.499 115s12.5 91.333 12.5 142zM368 349c0 -32.667 -1.66602 -64.667 -4.99902 -96s-9.33301 -59.333 -18 -84
s-20 -44.5 -34 -59.5s-31.667 -22.5 -53 -22.5s-39.166 7.66699 -53.499 23s-26 35.5 -35 60.5s-15.333 53.167 -19 84.5s-5.5 63.333 -5.5 96s1.66699 64.667 5 96s9.16602 59.333 17.499 84s19.5 44.5 33.5 59.5s31.667 22.5 53 22.5s39.166 -7.66699 53.499 -23
s26 -35.5 35 -60.5s15.5 -53.167 19.5 -84.5s6 -63.333 6 -96z" />
    <glyph glyph-name="P" unicode="P" horiz-adv-x="478" 
d="M452 496c0 36 -5.66699 67 -17 93s-26.166 47.167 -44.499 63.5s-39.333 28.333 -63 36s-47.834 11.5 -72.501 11.5h-185v-700h98v285h82c26.667 0 52.167 4.33301 76.5 13s45.833 21.667 64.5 39s33.5 39.333 44.5 66s16.5 57.667 16.5 93zM351 493
c0 -38 -9.5 -66.334 -28.5 -85.001s-42.833 -28 -71.5 -28h-83v224h80c28 0 52.167 -8.66699 72.5 -26s30.5 -45.666 30.5 -84.999z" />
    <glyph glyph-name="Q" unicode="Q" horiz-adv-x="513" 
d="M468 350c0 50.667 -4.16699 98.002 -12.5 142.002s-21 82.167 -38 114.5s-39 57.833 -66 76.5s-58.833 28 -95.5 28c-37.333 0 -69.166 -9.33301 -95.499 -28s-48.166 -44.167 -65.499 -76.5s-30 -70.5 -38 -114.5s-12 -91.333 -12 -142s4 -98 12 -142
s20.667 -82.167 38 -114.5s39.166 -57.833 65.499 -76.5s58.166 -28 95.499 -28c14 0 27.167 1.66699 39.5 5s23.833 7.66602 34.5 12.999l28 -43l69 40l-35 55c25.333 32 44.333 73.167 57 123.5s19 106.166 19 167.499zM368 350.002c0 -38 -2.16699 -75.168 -6.5 -111.501
s-12.833 -67.833 -25.5 -94.5l-37 57l-69 -40l48 -73c-6 -2.66699 -13.333 -4 -22 -4c-21.333 0 -39.166 7.83301 -53.499 23.5s-25.666 36 -33.999 61s-14.333 53.333 -18 85s-5.5 63.834 -5.5 96.501s1.83301 64.667 5.5 96s9.66699 59.333 18 84s19.666 44.667 33.999 60
s32.166 23 53.499 23s39.166 -7.66699 53.499 -23s25.833 -35.333 34.5 -60s14.834 -52.667 18.501 -84s5.5 -63.333 5.5 -96z" />
    <glyph glyph-name="R" unicode="R" horiz-adv-x="510" 
d="M464 0l-112 322.001c33.333 13.333 60 34.666 80 63.999s30 69.333 30 120c0 34.667 -5.33301 64.334 -16 89.001s-25 44.667 -43 60s-38.833 26.666 -62.5 33.999s-48.167 11 -73.5 11h-197v-700h98v305h81l106 -305h109zM361 503.001c0 -36.667 -9 -63.167 -27 -79.5
s-43 -24.5 -75 -24.5h-91v206h91c30 0 54.5 -8 73.5 -24s28.5 -42 28.5 -78z" />
    <glyph glyph-name="S" unicode="S" horiz-adv-x="443" 
d="M403 181c0 29.333 -3.99805 55 -11.998 77s-19 41.833 -33 59.5s-30.5 33.667 -49.5 48s-39.5 28.5 -61.5 42.5c-19.333 12.667 -35.5 24.167 -48.5 34.5s-23.5 20.5 -31.5 30.5s-13.667 20.167 -17 30.5s-5 22.166 -5 35.499c0 22 6.33301 39.833 19 53.5
s30.667 20.5 54 20.5c10.667 0 20.5 -1 29.5 -3s17.333 -5.5 25 -10.5s15.167 -11.333 22.5 -19s15.333 -17.167 24 -28.5l72 64c-21.333 30.667 -44.833 54.167 -70.5 70.5s-58.834 24.5 -99.501 24.5c-27.333 0 -51.833 -4.33301 -73.5 -13s-40.167 -20.834 -55.5 -36.501
s-27.166 -34.167 -35.499 -55.5s-12.5 -44.666 -12.5 -69.999c0 -27.333 3.66699 -51.5 11 -72.5s17.333 -39.667 30 -56s27.5 -31.333 44.5 -45s35.5 -26.834 55.5 -39.501c23.333 -15.333 42.666 -29.166 57.999 -41.499s27.333 -24 36 -35s14.667 -22.167 18 -33.5
s5 -23.666 5 -36.999c0 -28.667 -7.33301 -50.667 -22 -66s-35.334 -23 -62.001 -23c-21.333 0 -40.833 5.5 -58.5 16.5s-36.167 31.5 -55.5 61.5l-77 -62c20 -34 44.833 -61.5 74.5 -82.5s66.5 -31.5 110.5 -31.5c30.667 0 58 4.66699 82 14s44 22.5 60 39.5
s28.167 37.333 36.5 61s12.5 49.5 12.5 77.5z" />
    <glyph glyph-name="T" unicode="T" horiz-adv-x="422" 
d="M389 604v96h-356v-96h129v-604h98v604h129z" />
    <glyph glyph-name="U" unicode="U" horiz-adv-x="526" 
d="M459 208l0.00195312 491.999h-97v-495c0 -13.333 -1.5 -27 -4.5 -41s-8.33301 -26.667 -16 -38s-17.834 -20.5 -30.501 -27.5s-28.667 -10.5 -48 -10.5c-18 0 -33.333 3.5 -46 10.5s-22.834 16 -30.501 27s-13.167 23.5 -16.5 37.5s-5 28.333 -5 43v494h-98v-498
c0 -32 4.83301 -61 14.5 -87s23 -48.333 40 -67s37.5 -33.167 61.5 -43.5s50.667 -15.5 80 -15.5c60.667 0 108.5 19.333 143.5 58s52.5 92.334 52.5 161.001z" />
    <glyph glyph-name="V" unicode="V" horiz-adv-x="484" 
d="M459 700h-104l-80 -351l-7.5 -35.5l-9 -43l-8.5 -41c-2.66699 -13 -4.66699 -22.5 -6 -28.5c-1.33301 6 -3.33301 15.5 -6 28.5l-8.5 41.5l-9 43l-7.5 35l-81 351h-107l180 -700h73z" />
    <glyph glyph-name="W" unicode="W" horiz-adv-x="618" 
d="M590 700h-95.0049l-41 -252c-2 -11.333 -4.5 -27.5 -7.5 -48.5l-9.5 -65l-9.5 -62c-3 -19 -4.83301 -31.5 -5.5 -37.5c-0.666992 6 -2.5 18.5 -5.5 37.5l-9.5 62l-10 65c-3.33301 21 -6 36.833 -8 47.5l-41 253h-75l-40 -253c-1.33301 -10 -3.66602 -25.5 -6.99902 -46.5
l-10 -65.5l-9.5 -62.5c-3 -19 -4.83301 -31.5 -5.5 -37.5c-0.666992 6 -2.5 18.5 -5.5 37.5l-9.5 62l-10 65.5c-3.33301 21.333 -6 37.333 -8 48l-42 252h-98l125 -700h73l48 248l8 44.5l10.5 58c3.66699 19.667 6.83398 38 9.50098 55s4.33398 28.5 5.00098 34.5
c0.666992 -6 2.33398 -17.5 5.00098 -34.5s5.83398 -35.5 9.50098 -55.5l11 -59.5l8.5 -45.5l48 -245h75z" />
    <glyph glyph-name="X" unicode="X" horiz-adv-x="465" 
d="M437 0l-153.001 363l143 337h-105l-43 -111c-3.33301 -8 -7.16602 -18 -11.499 -30l-13 -36.5l-12 -34.5l-8.5 -25c-1.33301 5.33301 -3.83301 13.333 -7.5 24s-7.83398 22.167 -12.501 34.5l-13.5 37c-4.33301 12.333 -8.16602 22.5 -11.499 30.5l-43 111h-108l143 -340
l-153 -360h105l53 136c3.33301 8 7.16602 18 11.499 30l13 36l12 33.5l8.5 24.5c1.33301 -5.33301 3.83301 -13.333 7.5 -24s7.83398 -22 12.501 -34l13.5 -35.5l11.5 -30.5l53 -136h108z" />
    <glyph glyph-name="Y" unicode="Y" horiz-adv-x="493" 
d="M471 700l-107.001 -0.000976562l-60 -145c-4 -9.33301 -8.66699 -21 -14 -35l-16 -42.5c-5.33301 -14.333 -10.166 -28 -14.499 -41l-9.5 -28.5l-9.5 28c-4.33301 12.667 -9.33301 26.334 -15 41.001l-16.5 43c-5.33301 14 -10 25.333 -14 34l-62 146h-111l178 -390v-310
h98v313z" />
    <glyph glyph-name="Z" unicode="Z" horiz-adv-x="460" 
d="M413 0v91h-174c-17.333 0 -35.833 -0.166992 -55.5 -0.5s-34.834 -0.833008 -45.501 -1.5l12 21l17.5 31.5l19.5 36.5l19 36l201 395v91h-340v-91h141c17.333 0 35.833 0.166992 55.5 0.5s34.834 0.833008 45.501 1.5l-12 -21l-17.5 -31.5l-19.5 -37l-19 -36.5l-200 -394
v-91h372z" />
    <glyph glyph-name="bracketleft" unicode="[" horiz-adv-x="325" 
d="M274 -100v82h-106v636h106v82h-199v-800h199z" />
    <glyph glyph-name="backslash" unicode="\" horiz-adv-x="350" 
d="M356 -90l-265 880h-97l265 -880h97z" />
    <glyph glyph-name="bracketright" unicode="]" horiz-adv-x="325" 
d="M250 -100v800h-199v-79h106v-642h-106v-79h199z" />
    <glyph glyph-name="asciicircum" unicode="^" horiz-adv-x="444" 
d="M414 382l-152 318h-80l-152 -318h105l86 202l86 -202h107z" />
    <glyph glyph-name="underscore" unicode="_" horiz-adv-x="350" 
d="M350 -170v88h-350v-88h350z" />
    <glyph glyph-name="grave" unicode="`" horiz-adv-x="400" 
d="M297 595l-92 160h-135l145 -160h82z" />
    <glyph glyph-name="a" unicode="a" horiz-adv-x="434" 
d="M378 0l0.00195312 379c0 29.333 -2.83301 54 -8.5 74s-14.834 36.167 -27.501 48.5s-29 21.166 -49 26.499s-44 8 -72 8c-24 0 -49.167 -4.33301 -75.5 -13s-51.5 -21 -75.5 -37l41 -73c20 12 38 20.5 54 25.5s32.333 7.5 49 7.5c25.333 0 43 -6.16699 53 -18.5
s15 -31.166 15 -56.499v-51c-10.667 5.33301 -22.667 9.5 -36 12.5s-28 4.5 -44 4.5c-50 0 -91 -14.333 -123 -43s-48 -71.667 -48 -129c0 -29.333 3.83301 -55 11.5 -77s18 -40.333 31 -55s28.167 -25.667 45.5 -33s35.666 -11 54.999 -11c23.333 0 43.833 4 61.5 12
s33.167 19.667 46.5 35v-36h96zM282.002 125c-18.667 -32.667 -48.332 -49 -88.999 -49c-20.667 0 -36.834 7.33301 -48.501 22s-17.5 37.667 -17.5 69c0 28.667 7 49.667 21 63s32.333 20 55 20c18 0 32.833 -1.5 44.5 -4.5s23.167 -8.16699 34.5 -15.5v-105z" />
    <glyph glyph-name="b" unicode="b" horiz-adv-x="448" 
d="M409 257c0 52 -3.83008 95.833 -11.4971 131.5s-18.334 64.5 -32.001 86.5s-30.167 37.667 -49.5 47s-41 14 -65 14c-23.333 0 -42.333 -4.33301 -57 -13s-28.334 -19.667 -41.001 -33v239l-96 -50v-679h96v28c25.333 -26 55.666 -39 90.999 -39
c52 0 92.5 22.667 121.5 68s43.5 112 43.5 200zM312.003 252c0 -62 -6.5 -106.333 -19.5 -133s-31.833 -40 -56.5 -40c-15.333 0 -30.333 3.83301 -45 11.5s-27.334 19.5 -38.001 35.5v272c8.66699 14 19.834 25.5 33.501 34.5s28.5 13.5 44.5 13.5
c28 0 48.5 -15.167 61.5 -45.5s19.5 -79.833 19.5 -148.5z" />
    <glyph glyph-name="c" unicode="c" horiz-adv-x="410" 
d="M375 82l-69.002 57.001c-13.333 -20.667 -26 -35.5 -38 -44.5s-26 -13.5 -42 -13.5c-32 0 -55 16.167 -69 48.5s-21 76.5 -21 132.5c0 58 6.83301 102.833 20.5 134.5s35.834 47.5 66.501 47.5c17.333 0 32 -4.66699 44 -14s24.667 -24.666 38 -45.999l69 60
c-7.33301 12.667 -15.666 24.667 -24.999 36s-20 21.166 -32 29.499s-25.5 14.833 -40.5 19.5s-31.833 7 -50.5 7c-58.667 0 -104.5 -22.833 -137.5 -68.5s-49.5 -114.834 -49.5 -207.501c0 -92 16.833 -160.167 50.5 -204.5s77.834 -66.5 132.501 -66.5
c38 0 68.667 8.5 92 25.5s43.666 39.5 60.999 67.5z" />
    <glyph glyph-name="d" unicode="d" horiz-adv-x="448" 
d="M391 0l-0.00292969 729l-96 -50v-182c-25.333 26 -55.666 39 -90.999 39c-52 0 -92.5 -22.667 -121.5 -68s-43.5 -112 -43.5 -200c0 -52 3.83301 -95.833 11.5 -131.5s18.334 -64.5 32.001 -86.5s30.167 -37.667 49.5 -47s41 -14 65 -14c23.333 0 42.333 4.33301 57 13
s28.334 19.667 41.001 33v-35h96zM294.997 127c-8.66699 -14 -19.834 -25.5 -33.501 -34.5s-28.5 -13.5 -44.5 -13.5c-28 0 -48.5 15.167 -61.5 45.5s-19.5 79.833 -19.5 148.5c0 62 6.33301 106.333 19 133s31.667 40 57 40c15.333 0 30.333 -3.83301 45 -11.5
s27.334 -19.5 38.001 -35.5v-272z" />
    <glyph glyph-name="e" unicode="e" horiz-adv-x="450" 
d="M411 264c0 46 -4.66504 86.001 -13.998 120.001s-22.333 62.167 -39 84.5s-36.334 39.166 -59.001 50.499s-47 17 -73 17c-28 0 -53.333 -5.83301 -76 -17.5s-42.334 -29 -59.001 -52s-29.5 -51.667 -38.5 -86s-13.5 -74.5 -13.5 -120.5
c0 -41.333 4.16699 -78.666 12.5 -111.999s20.666 -61.833 36.999 -85.5s36.5 -41.834 60.5 -54.501s51.667 -19 83 -19c34 0 64 6.66699 90 20s48 30 66 50l-59 61c-15.333 -14 -29.5 -24 -42.5 -30s-30.5 -9 -52.5 -9c-28 0 -50.667 11.833 -68 35.5
s-27.666 61.5 -30.999 113.5h275c0.666992 5.33301 1 11 1 17v17zM313.002 313.001h-176.998c8 88.667 37.333 133 88 133c27.333 0 48.666 -12.333 63.999 -37s23.666 -56.667 24.999 -96z" />
    <glyph glyph-name="f" unicode="f" horiz-adv-x="291" 
d="M278 636v80c-20.667 6.66699 -47 10 -79 10c-34 0 -62.167 -10.333 -84.5 -31s-33.5 -52.667 -33.5 -96v-74h-53v-90h53v-435h96v435h86v90h-86v61c0 19.333 4.33301 33.5 13 42.5s24.667 13.5 48 13.5c14.667 0 28 -2 40 -6z" />
    <glyph glyph-name="g" unicode="g" horiz-adv-x="448" 
d="M391 46l-0.00292969 479h-96v-28c-25.333 26 -55.666 39 -90.999 39c-52 0 -92.5 -22.667 -121.5 -68s-43.5 -112 -43.5 -200c0 -52 3.83301 -95.833 11.5 -131.5s18.334 -64.5 32.001 -86.5s30.167 -37.667 49.5 -47s41 -14 65 -14c23.333 0 42.333 4.33301 57 13
s28.334 20 41.001 34v-4c0 -24.667 -2.16699 -45.5 -6.5 -62.5s-11.833 -31.333 -22.5 -43s-25.5 -20.667 -44.5 -27s-42.833 -11.5 -71.5 -15.5l27 -77c40 4 73.5 11.667 100.5 23s49 26.833 66 46.5s29.167 43.5 36.5 71.5s11 60.667 11 98zM294.997 127
c-8.66699 -14 -19.834 -25.5 -33.501 -34.5s-28.5 -13.5 -44.5 -13.5c-28 0 -48.5 15.167 -61.5 45.5s-19.5 79.833 -19.5 148.5c0 62 6.33301 106.333 19 133s31.667 40 57 40c15.333 0 30.333 -3.83301 45 -11.5s27.334 -19.5 38.001 -35.5v-272z" />
    <glyph glyph-name="h" unicode="h" horiz-adv-x="446" 
d="M392 0v339.001c0 66.667 -10.167 116.167 -30.5 148.5s-55.833 48.5 -106.5 48.5c-22.667 0 -42.667 -4.5 -60 -13.5s-31.333 -20.167 -42 -33.5v240l-96 -50v-679h96v397c9.33301 15.333 20.833 27.166 34.5 35.499s28.167 12.5 43.5 12.5
c24 0 40.833 -9.33301 50.5 -28s14.5 -50 14.5 -94v-323h96z" />
    <glyph glyph-name="i" unicode="i" horiz-adv-x="220" 
d="M169 666c0 16.667 -5.83301 30.834 -17.5 42.501s-25.5 17.5 -41.5 17.5c-16.667 0 -30.834 -5.83301 -42.501 -17.5s-17.5 -25.834 -17.5 -42.501c0 -16 5.83301 -29.833 17.5 -41.5s25.834 -17.5 42.501 -17.5c16 0 29.833 5.83301 41.5 17.5s17.5 25.5 17.5 41.5z
M158 0v525h-96v-525h96z" />
    <glyph glyph-name="j" unicode="j" horiz-adv-x="220" 
d="M169 666c0 16.667 -5.83301 30.834 -17.5 42.501s-25.5 17.5 -41.5 17.5c-16.667 0 -30.834 -5.83301 -42.501 -17.5s-17.5 -25.834 -17.5 -42.501c0 -16 5.83301 -29.833 17.5 -41.5s25.834 -17.5 42.501 -17.5c16 0 29.833 5.83301 41.5 17.5s17.5 25.5 17.5 41.5z
M158 19v506.001h-96v-512c0 -39.333 -7.5 -68.333 -22.5 -87s-41.833 -32.334 -80.5 -41.001l25 -78c30 4.66699 56 12 78 22s40 23.5 54 40.5s24.5 37.833 31.5 62.5s10.5 53.667 10.5 87z" />
    <glyph glyph-name="k" unicode="k" horiz-adv-x="424" 
d="M397 0l-127.999 343l113 182h-109l-79 -143l-22.5 -41.5l-20.5 -39.5c0 6.66699 0.166992 14.667 0.5 24s0.666016 19.333 0.999023 30s0.5 21 0.5 31v28v315l-96 -50v-679h96v162l52 83l87 -245h105z" />
    <glyph glyph-name="l" unicode="l" horiz-adv-x="220" 
d="M158 0v729l-96 -50v-679h96z" />
    <glyph glyph-name="m" unicode="m" horiz-adv-x="665" 
d="M611 0v329.002c0 34.667 -1.83301 65 -5.5 91s-10.5 47.5 -20.5 64.5s-23.5 29.833 -40.5 38.5s-38.5 13 -64.5 13c-23.333 0 -45 -4 -65 -12s-39.333 -22.667 -58 -44c-11.333 19.333 -25.333 33.5 -42 42.5s-38 13.5 -64 13.5c-22.667 0 -42 -4.5 -58 -13.5
s-29.333 -20.167 -40 -33.5v36h-96v-525h96v397c9.33301 15.333 20.833 27.166 34.5 35.499s28.167 12.5 43.5 12.5c24 0 39.167 -9.5 45.5 -28.5s9.5 -50.167 9.5 -93.5v-323h96v397c9.33301 15.333 20.833 27.166 34.5 35.499s28.167 12.5 43.5 12.5
c24 0 39.167 -9.5 45.5 -28.5s9.5 -50.167 9.5 -93.5v-323h96z" />
    <glyph glyph-name="n" unicode="n" horiz-adv-x="446" 
d="M392 0v339.001c0 66.667 -10.167 116.167 -30.5 148.5s-55.833 48.5 -106.5 48.5c-22.667 0 -42.667 -4.5 -60 -13.5s-31.333 -20.167 -42 -33.5v36h-96v-525h96v397c9.33301 15.333 20.833 27.166 34.5 35.499s28.167 12.5 43.5 12.5c24 0 40.833 -9.33301 50.5 -28
s14.5 -50 14.5 -94v-323h96z" />
    <glyph glyph-name="o" unicode="o" horiz-adv-x="456" 
d="M417 264c0 46 -4.66895 86.002 -14.002 120.002s-22.166 62.167 -38.499 84.5s-36 39.166 -59 50.499s-48.5 17 -76.5 17c-58.667 0 -105 -22.833 -139 -68.5s-51 -114.834 -51 -207.501c0 -46 4.5 -86 13.5 -120s21.833 -62.167 38.5 -84.5s36.334 -39 59.001 -50
s47.667 -16.5 75 -16.5c58 0 104.5 22.833 139.5 68.5s52.5 114.5 52.5 206.5zM319.998 262.002c0 -54.667 -7.83301 -98.5 -23.5 -131.5s-38.5 -49.5 -68.5 -49.5c-61.333 0 -92 60.333 -92 181c0 121.333 30.333 182 91 182c30 0 53 -15.333 69 -46s24 -76 24 -136z" />
    <glyph glyph-name="p" unicode="p" horiz-adv-x="448" 
d="M409 257c0 52 -3.83008 95.833 -11.4971 131.5s-18.334 64.5 -32.001 86.5s-30.167 37.667 -49.5 47s-41 14 -65 14c-23.333 0 -42.333 -4.33301 -57 -13s-28.334 -19.667 -41.001 -33v35h-96v-718l96 50v171c25.333 -26 55.666 -39 90.999 -39
c52 0 92.5 22.667 121.5 68s43.5 112 43.5 200zM312.003 252c0 -62 -6.5 -106.333 -19.5 -133s-31.833 -40 -56.5 -40c-15.333 0 -30.333 3.83301 -45 11.5s-27.334 19.5 -38.001 35.5v272c8.66699 14 19.834 25.5 33.501 34.5s28.5 13.5 44.5 13.5
c28 0 48.5 -15.167 61.5 -45.5s19.5 -79.833 19.5 -148.5z" />
    <glyph glyph-name="q" unicode="q" horiz-adv-x="448" 
d="M391 -143l-0.00292969 668h-96v-28c-25.333 26 -55.666 39 -90.999 39c-52 0 -92.5 -22.667 -121.5 -68s-43.5 -112 -43.5 -200c0 -52 3.83301 -95.833 11.5 -131.5s18.334 -64.5 32.001 -86.5s30.167 -37.667 49.5 -47s41 -14 65 -14c23.333 0 42.333 4.33301 57 13
s28.334 19.667 41.001 33v-228zM294.997 127c-8.66699 -14 -19.834 -25.5 -33.501 -34.5s-28.5 -13.5 -44.5 -13.5c-28 0 -48.5 15.167 -61.5 45.5s-19.5 79.833 -19.5 148.5c0 62 6.33301 106.333 19 133s31.667 40 57 40c15.333 0 30.333 -3.83301 45 -11.5
s27.334 -19.5 38.001 -35.5v-272z" />
    <glyph glyph-name="r" unicode="r" horiz-adv-x="336" 
d="M318 518c-8 5.33301 -17.832 9.66699 -29.499 13s-25.834 5 -42.501 5c-19.333 0 -37 -4.5 -53 -13.5s-29.333 -20.167 -40 -33.5v36h-96v-525h96v397c11.333 16 23.333 26.833 36 32.5s25.667 8.5 39 8.5c15.333 0 28 -1.33301 38 -4s19.667 -6.66699 29 -12z" />
    <glyph glyph-name="s" unicode="s" horiz-adv-x="389" 
d="M351 144c0 21.333 -2.83301 39.8281 -8.5 55.4951s-13.667 29.834 -24 42.501s-23.166 24.334 -38.499 35.001s-33 21.667 -53 33c-18 10 -32.5 18.833 -43.5 26.5s-19.667 14.834 -26 21.501s-10.666 13.167 -12.999 19.5s-3.5 13.5 -3.5 21.5
c0 13.333 4.16699 24.333 12.5 33s21.5 13 39.5 13c16.667 0 34.167 -3.5 52.5 -10.5s36.166 -16.5 53.499 -28.5l39 81c-19.333 15.333 -41.333 27.333 -66 36s-50.334 13 -77.001 13c-48 0 -85 -12.833 -111 -38.5s-39 -61.5 -39 -107.5c0 -20.667 2.66699 -38.667 8 -54
s12.666 -28.833 21.999 -40.5s20.833 -22.334 34.5 -32.001s28.5 -19.167 44.5 -28.5l46.5 -28c13 -8 23.5 -15.667 31.5 -23s13.833 -14.666 17.5 -21.999s5.5 -15.666 5.5 -24.999c0 -17.333 -6.16699 -31.166 -18.5 -41.499s-29.166 -15.5 -50.499 -15.5
c-33.333 0 -74 15 -122 45l-37 -80c23.333 -17.333 49 -31 77 -41s56 -15 84 -15c51.333 0 91.333 13.333 120 40s43 65 43 115z" />
    <glyph glyph-name="t" unicode="t" horiz-adv-x="319" 
d="M276 102c-7.33301 -6 -16.332 -11.166 -26.999 -15.499s-22.334 -6.5 -35.001 -6.5c-13.333 0 -23.333 4 -30 12s-10 21.333 -10 40v303h101v90h-101v204l-96 -51v-153h-57v-90h57v-312c0 -42.667 8 -75.667 24 -99s41.667 -35 77 -35c18 0 34 2.16699 48 6.5
s26.667 10.166 38 17.499z" />
    <glyph glyph-name="u" unicode="u" horiz-adv-x="446" 
d="M389 0v524.999h-96v-397c-9.33301 -15.333 -20.833 -27.166 -34.5 -35.499s-28.167 -12.5 -43.5 -12.5c-24 0 -40.833 9.33301 -50.5 28s-14.5 50 -14.5 94v323h-96v-339c0 -66.667 10.167 -116.167 30.5 -148.5s55.833 -48.5 106.5 -48.5c22.667 0 42.667 4.5 60 13.5
s31.333 20.167 42 33.5v-36h96z" />
    <glyph glyph-name="v" unicode="v" horiz-adv-x="416" 
d="M396 525l-98 0.000976562l-61 -281c-2 -8.66699 -4.16699 -19.334 -6.5 -32.001s-4.83301 -25.5 -7.5 -38.5l-7.5 -37c-2.33301 -11.667 -3.83301 -20.5 -4.5 -26.5c-1.33301 6 -3 14.667 -5 26s-4.33301 23.5 -7 36.5l-8 38l-7 31.5l-64 283h-98l132 -525h111z" />
    <glyph glyph-name="w" unicode="w" horiz-adv-x="597" 
d="M573 525l-92 -0.000976562l-37 -224c-1.33301 -7.33301 -3 -18.333 -5 -33l-6.5 -45.5l-6.5 -44.5c-2 -14 -3.33301 -24 -4 -30c-1.33301 6.66699 -3.16602 17 -5.49902 31s-5 29 -8 45l-9 46c-3 14.667 -5.5 25.667 -7.5 33l-50 222h-87l-48 -222
c-2 -7.33301 -4.33301 -18.333 -7 -33l-8.5 -46l-8.5 -45c-2.66699 -14 -4.33398 -24.333 -5.00098 -31c-0.666992 6 -2 16 -4 30l-6.5 44.5l-7 45l-5.5 33.5l-39 224h-92l106 -525h90l53 250c2 8.66699 4.16699 19.334 6.5 32.001l7 38c2.33301 12.667 4.33301 24.667 6 36
s3.16699 20 4.5 26c0.666992 -6 2 -14.667 4 -26l6.5 -35.5l7 -37c2.33301 -12.333 4.5 -22.5 6.5 -30.5l54 -253h90z" />
    <glyph glyph-name="x" unicode="x" horiz-adv-x="441" 
d="M414 0l-133 274l122 251h-109l-37 -85c-7.33301 -15.333 -14.5 -32 -21.5 -50s-12.167 -32.333 -15.5 -43l-7.5 19.5l-9.5 24.5l-10 25l-9 21l-38 88h-108l123 -251l-134 -274h109l48 108c7.33301 16 14.5 32.833 21.5 50.5l16.5 42.5l7.5 -19.5l9.5 -24.5l9.5 -25
c3 -8 5.83301 -15 8.5 -21l48 -111h109z" />
    <glyph glyph-name="y" unicode="y" horiz-adv-x="434" 
d="M412 525h-102l-62 -248c-2.66699 -10 -5.5 -21.833 -8.5 -35.5l-9 -41.5l-8.5 -39c-2.66699 -12 -4.66699 -21.333 -6 -28l-5.5 28c-2.33301 12 -5 24.833 -8 38.5l-9 41c-3 13.667 -5.83301 25.5 -8.5 35.5l-61 249h-102l146 -525l-57 -185h94z" />
    <glyph glyph-name="z" unicode="z" horiz-adv-x="407" 
d="M361 0v89h-126h-23h-26c-8.66699 0 -17 -0.166992 -25 -0.5s-14.333 -0.5 -19 -0.5c6.66699 8 14.167 18.5 22.5 31.5l26.5 42.5l170 282v81h-308v-89h114h23h26c8.66699 0 17 0.166992 25 0.5s14.333 0.5 19 0.5c-6.66699 -8 -14.167 -18.5 -22.5 -31.5l-26.5 -42.5
l-175 -281v-82h325z" />
    <glyph glyph-name="braceleft" unicode="{" horiz-adv-x="345" 
d="M309 -110v70.0039c-22.667 2.66699 -40.834 7 -54.501 13s-24.334 14.333 -32.001 25s-12.667 23.5 -15 38.5s-3.5 32.833 -3.5 53.5v54c0 23.333 -1.33301 43.666 -4 60.999s-7.16699 32.166 -13.5 44.499s-14.666 22.5 -24.999 30.5s-22.833 14.667 -37.5 20
c14.667 5.33301 27.167 12 37.5 20s18.666 18.167 24.999 30.5s10.833 27.166 13.5 44.499s4 37.666 4 60.999v55c0 20.667 1.16699 38.5 3.5 53.5s7.33301 27.833 15 38.5s18.334 19 32.001 25s31.834 10.333 54.501 13v70c-40.667 0 -74 -4.5 -100 -13.5
s-46.5 -22.333 -61.5 -40s-25.5 -39.667 -31.5 -66s-9 -56.833 -9 -91.5v-69c0 -35.333 -4.66699 -59 -14 -71s-21.333 -18 -36 -18h-26v-84h26c14.667 0 26.667 -6 36 -18s14 -35.667 14 -71v-68c0 -34.667 3 -65.167 9 -91.5s16.5 -48.333 31.5 -66s35.5 -31 61.5 -40
s59.333 -13.5 100 -13.5z" />
    <glyph glyph-name="bar" unicode="|" horiz-adv-x="246" 
d="M168 -185v985h-90v-985h90z" />
    <glyph glyph-name="braceright" unicode="}" horiz-adv-x="345" 
d="M314 259v83.9961h-26c-15.333 0 -27.5 6 -36.5 18s-13.5 35.667 -13.5 71v68c0 34.667 -3 65.167 -9 91.5s-16.5 48.333 -31.5 66s-35.5 31 -61.5 40s-59.333 13.5 -100 13.5v-70c22.667 -2.66699 40.834 -7 54.501 -13s24.167 -14.333 31.5 -25s12.333 -23.5 15 -38.5
s4 -32.833 4 -53.5v-54c0 -23.333 1.33301 -43.666 4 -60.999s7.16699 -32.166 13.5 -44.499s14.5 -22.5 24.5 -30.5s22.667 -14.667 38 -20c-15.333 -5.33301 -28 -12 -38 -20s-18.167 -18.167 -24.5 -30.5s-10.833 -27.166 -13.5 -44.499s-4 -37.666 -4 -60.999v-55
c0 -20.667 -1.33301 -38.5 -4 -53.5s-7.66699 -27.833 -15 -38.5s-17.833 -19 -31.5 -25s-31.834 -10.333 -54.501 -13v-70c40.667 0 74 4.5 100 13.5s46.5 22.333 61.5 40s25.5 39.667 31.5 66s9 56.833 9 91.5v69c0 35.333 4.5 59 13.5 71s21.167 18 36.5 18h26z" />
    <glyph glyph-name="asciitilde" unicode="~" horiz-adv-x="562" 
d="M520 424l-71.999 37.001c-7.33301 -14.667 -13.833 -26.834 -19.5 -36.501s-11.167 -17.5 -16.5 -23.5s-11.166 -10.167 -17.499 -12.5s-13.5 -3.5 -21.5 -3.5c-16 0 -43.333 13.333 -82 40c-16.667 11.333 -31.667 19.833 -45 25.5s-30.333 8.5 -51 8.5
c-37.333 0 -67.666 -12 -90.999 -36s-44 -59 -62 -105l72 -37c14 28.667 25.833 48.5 35.5 59.5s22.5 16.5 38.5 16.5c9.33301 0 20.166 -3 32.499 -9s29.166 -16.333 50.499 -31c16.667 -11.333 31.667 -19.833 45 -25.5s30.333 -8.5 51 -8.5c37.333 0 67.666 12 90.999 36
s44 59 62 105z" />
    <glyph glyph-name="nonbreakingspace" unicode="&#xa0;" horiz-adv-x="110" 
 />
    <glyph glyph-name="exclamdown" unicode="&#xa1;" horiz-adv-x="248" 
d="M192 643c0 19.333 -6.5 35.5 -19.5 48.5s-29.167 19.5 -48.5 19.5s-35.5 -6.5 -48.5 -19.5s-19.5 -29.167 -19.5 -48.5s6.5 -35.666 19.5 -48.999s29.167 -20 48.5 -20s35.5 6.66699 48.5 20s19.5 29.666 19.5 48.999zM173 0v348l-16 150h-66l-16 -150v-348h98z" />
    <glyph glyph-name="cent" unicode="&#xa2;" horiz-adv-x="410" 
d="M375 176l-69.0039 57c-12.667 -20 -25.167 -35.167 -37.5 -45.5s-26.5 -15.5 -42.5 -15.5c-31.333 0 -54.166 16.833 -68.499 50.5s-21.5 78.167 -21.5 133.5c0 58 6.83301 103.333 20.5 136s35.834 49 66.501 49c17.333 0 32.333 -5.16699 45 -15.5
s25.334 -25.833 38.001 -46.5l68 59c-12 20.667 -26.5 39 -43.5 55s-38.167 26.667 -63.5 32v86h-99v-90c-41.333 -13.333 -73.166 -42.166 -95.499 -86.499s-33.5 -104.5 -33.5 -180.5c0 -76.667 11.5 -136.5 34.5 -179.5s54.5 -70.833 94.5 -83.5v-102h99v99
c23.333 6.66699 43.833 17.667 61.5 33s33.167 33.666 46.5 54.999z" />
    <glyph glyph-name="sterling" unicode="&#xa3;" horiz-adv-x="469" 
d="M446 636c-14 13.333 -27.4971 24.668 -40.4971 34.001s-26.5 17 -40.5 23s-29 10.5 -45 13.5s-34 4.5 -54 4.5c-57.333 0 -101.833 -15.833 -133.5 -47.5s-47.5 -74.834 -47.5 -129.501c0 -20.667 2.66699 -41 8 -61s11.666 -37.667 18.999 -53
c7.33301 -16 14.333 -32.667 21 -50h-73v-87h83c-0.666992 -17.333 -2.5 -33.5 -5.5 -48.5s-7.66699 -29.5 -14 -43.5s-14.666 -28.167 -24.999 -42.5s-23.166 -29.833 -38.499 -46.5v-102h372v89h-267c11.333 16 21.166 31.333 29.499 46s15.5 29.667 21.5 45
s10.667 31.333 14 48s5.66602 35 6.99902 55h109v87h-114c-2.66699 11.333 -5.83398 22 -9.50098 32s-8.16699 20.667 -13.5 32c-6.66699 15.333 -12.334 31.333 -17.001 48s-7 33.667 -7 51c0 24 7 43.333 21 58s33.333 22 58 22c12.667 0 24 -0.666992 34 -2
s19.5 -4 28.5 -8s18.167 -9.16699 27.5 -15.5s20 -14.5 32 -24.5z" />
    <glyph glyph-name="currency" unicode="&#xa4;" horiz-adv-x="465" 
d="M139 390l176.002 0.000976562v77h-168c3.33301 20.667 7.66602 40 12.999 58s12 33.833 20 47.5s17.5 24.5 28.5 32.5s23.5 12 37.5 12c26.667 0 46.5 -8 59.5 -24s24.5 -42.333 34.5 -79l94 26c-5.33301 24.667 -12.5 47.5 -21.5 68.5s-20.833 39.167 -35.5 54.5
s-32.667 27.166 -54 35.499s-46.666 12.5 -75.999 12.5c-35.333 0 -65.833 -9.33301 -91.5 -28s-46.834 -44.334 -63.501 -77.001s-29 -71 -37 -115s-12 -91.333 -12 -142c0 -50 3.66699 -96.833 11 -140.5s19 -81.667 35 -114s36.667 -58 62 -77s56.333 -28.5 93 -28.5
c28.667 0 53.5 4 74.5 12s39 19.667 54 35s27.5 34 37.5 56s18.333 46.667 25 74l-91 29c-8.66699 -37.333 -19.834 -65.333 -33.501 -84s-33.5 -28 -59.5 -28c-28 0 -50.5 14.5 -67.5 43.5s-29.167 65.833 -36.5 110.5h168v77h-176c-0.666992 6 -1 12 -1 18v19v19
c0 6.66699 0.333008 13.334 1 20.001z" />
    <glyph glyph-name="yen" unicode="&#xa5;" horiz-adv-x="463" 
d="M441 700h-106l-50 -145l-13.5 -40l-14.5 -43.5l-13 -41c-4 -13 -7 -23.833 -9 -32.5c-2 8.66699 -5 19.5 -9 32.5s-8.5 26.667 -13.5 41l-15 43l-13.5 39.5l-52 146h-110l165 -405v-85h-102v-89h102v-121h94v121h102v89h-102v88z" />
    <glyph glyph-name="brokenbar" unicode="&#xa6;" 
d="M730 346l-179.002 125.002c-5.33301 4.66699 -10.666 5.66699 -15.999 3c-6.66699 -6 -8.66699 -12.333 -6 -19l19 -63h-127v134l63 -19c4 -1.33301 7.16699 -1.33301 9.5 0s5.16602 3.66602 8.49902 6.99902c2 4.66699 1 10 -3 16l-124 178l-126 -177
c-3.33301 -7.33301 -4 -13 -2 -17c3.33301 -3.33301 6.33301 -5.83301 9 -7.5s6.33398 -1.5 11.001 0.5l62 19v-134h-127l19 63c2.66699 6.66699 0.333984 13 -6.99902 19c-4.66699 2.66699 -9.66699 1.66699 -15 -3l-179 -125l177 -125
c6.66699 -3.33301 12.334 -4 17.001 -2c3.33301 3.33301 5.83301 6.16602 7.5 8.49902s1.5 6.16602 -0.5 11.499l-19 61h127v-137l-62 20c-7.33301 3.33301 -14 1.33301 -20 -6c-2 -4.66699 -1.33301 -10.334 2 -17.001l126 -178l124 178c4.66699 6 5.66699 11.667 3 17
c-5.33301 6.66699 -11.333 8.66699 -18 6l-63 -20v137h127l-19 -61c-2 -5.33301 -2.33301 -9.16602 -1 -11.499s3.66602 -5.16602 6.99902 -8.49902c4.66699 -2 10 -1.33301 16 2z" />
    <glyph glyph-name="section" unicode="&#xa7;" horiz-adv-x="507" 
d="M462 261c0 24.667 -3.33398 46.1689 -10.001 64.502s-16.667 34.833 -30 49.5s-30.333 28.334 -51 41.001s-45.334 26 -74.001 40c-20.667 10 -37.834 19.167 -51.501 27.5s-24.5 16.166 -32.5 23.499s-13.667 14.666 -17 21.999s-5 15.666 -5 24.999
c0 21.333 6.16699 37.333 18.5 48s29.166 16 50.499 16c20.667 0 40 -3 58 -9s37 -16.333 57 -31l53 76c-25.333 18.667 -50.666 32.834 -75.999 42.501s-55 14.5 -89 14.5c-57.333 0 -101 -15 -131 -45s-45 -69.333 -45 -118c0 -24 4.16699 -44.833 12.5 -62.5
s21.166 -34.167 38.499 -49.5c-12.667 -7.33301 -24.667 -15.833 -36 -25.5s-21.166 -20.5 -29.499 -32.5s-15 -25.667 -20 -41s-7.5 -32.333 -7.5 -51c0 -24.667 3.16699 -46.167 9.5 -64.5s16.333 -34.833 30 -49.5s30.834 -28.334 51.501 -41.001s45.334 -26 74.001 -40
c20.667 -10 37.834 -19.167 51.501 -27.5s24.5 -16.166 32.5 -23.499s13.667 -14.833 17 -22.5s5 -15.834 5 -24.501c0 -21.333 -6.16699 -37.333 -18.5 -48s-29.166 -16 -50.499 -16c-20.667 0 -40 3 -58 9s-37 16.333 -57 31l-53 -76
c25.333 -18.667 50.666 -32.834 75.999 -42.501s55 -14.5 89 -14.5c57.333 0 101 15 131 45s45 69.333 45 118c0 24 -4.16699 44.833 -12.5 62.5s-21.166 34.167 -38.499 49.5c25.333 14.667 47.166 33.834 65.499 57.501s27.5 54.5 27.5 92.5zM358.999 252.002
c0 -21.333 -6.16699 -39.167 -18.5 -53.5s-29.166 -26.5 -50.499 -36.5c-5.33301 2.66699 -10.666 5.16699 -15.999 7.5s-10.666 5.16602 -15.999 8.49902c-21.333 10.667 -39.166 20.334 -53.499 29.001s-25.666 17.334 -33.999 26.001s-14.166 17.834 -17.499 27.501
s-5 21.167 -5 34.5c0 21.333 6.16699 39.166 18.5 53.499s29.166 26.5 50.499 36.5c5.33301 -2.66699 10.666 -5.16699 15.999 -7.5s10.666 -5.16602 15.999 -8.49902c21.333 -10.667 39.166 -20.334 53.499 -29.001s25.666 -17.334 33.999 -26.001s14.166 -18 17.499 -28
s5 -21.333 5 -34z" />
    <glyph glyph-name="dieresis" unicode="&#xa8;" horiz-adv-x="400" 
d="M351 657c0 17.333 -6.16699 32.166 -18.5 44.499s-26.833 18.5 -43.5 18.5c-17.333 0 -32.166 -6.16699 -44.499 -18.5s-18.5 -27.166 -18.5 -44.499c0 -16.667 6.16699 -31.167 18.5 -43.5s27.166 -18.5 44.499 -18.5c16.667 0 31.167 6.16699 43.5 18.5
s18.5 26.833 18.5 43.5zM174 657c0 17.333 -6.16699 32.166 -18.5 44.499s-26.833 18.5 -43.5 18.5c-17.333 0 -32.166 -6.16699 -44.499 -18.5s-18.5 -27.166 -18.5 -44.499c0 -16.667 6.16699 -31.167 18.5 -43.5s27.166 -18.5 44.499 -18.5
c16.667 0 31.167 6.16699 43.5 18.5s18.5 26.833 18.5 43.5z" />
    <glyph glyph-name="copyright" unicode="&#xa9;" horiz-adv-x="646" 
d="M601 350c0 54.667 -7 104.167 -21 148.5s-33.333 82.333 -58 114s-54 56 -88 73s-71 25.5 -111 25.5s-77 -8.5 -111 -25.5s-63.333 -41.333 -88 -73s-44 -69.667 -58 -114s-21 -93.833 -21 -148.5s7 -104.167 21 -148.5s33.333 -82.333 58 -114s54 -56 88 -73
s71 -25.5 111 -25.5s77 8.5 111 25.5s63.333 41.333 88 73s44 69.667 58 114s21 93.833 21 148.5zM543 349c0 -46 -5.00195 -87.667 -15.002 -125s-24.5 -69.333 -43.5 -96s-41.833 -47.334 -68.5 -62.001s-57 -22 -91 -22s-64.667 7.33301 -92 22
s-50.666 35.5 -69.999 62.5s-34.166 59.333 -44.499 97s-15.5 79.5 -15.5 125.5s5.16699 87.667 15.5 125s25 69.333 44 96s42 47.334 69 62.001s57.5 22 91.5 22s64.5 -7.33301 91.5 -22s50 -35.5 69 -62.5s33.667 -59.333 44 -97s15.5 -79.5 15.5 -125.5zM427.998 250
l-53 16.998c-5.33301 -20.667 -11.5 -35.834 -18.5 -45.501s-16.833 -14.5 -29.5 -14.5c-12 0 -21.833 4.33301 -29.5 13s-13.834 19.834 -18.501 33.501s-8 29.167 -10 46.5s-3 35 -3 53c0 16.667 0.833008 33.667 2.5 51s4.5 32.833 8.5 46.5s9.66699 24.834 17 33.501
s17 13 29 13c14.667 0 25.334 -4.33301 32.001 -13s11.667 -21.667 15 -39l58 14c-5.33301 28.667 -15.5 52 -30.5 70s-39.167 27 -72.5 27c-21.333 0 -39.333 -5.16699 -54 -15.5s-26.834 -24.666 -36.501 -42.999s-16.667 -40 -21 -65s-6.5 -51.833 -6.5 -80.5
c0 -28 2 -54.5 6 -79.5s10.5 -46.667 19.5 -65s21 -32.833 36 -43.5s33.167 -16 54.5 -16c32.667 0 56.834 9.5 72.501 28.5s26.5 43.5 32.5 73.5z" />
    <glyph glyph-name="ordfeminine" unicode="&#xaa;" horiz-adv-x="378" 
d="M323 277l-0.00195312 307.001c0 47.333 -9.66699 80.333 -29 99s-52.666 28 -99.999 28c-19.333 0 -39.333 -3.5 -60 -10.5s-40.667 -17.167 -60 -30.5l33 -59c16 10 30.5 17 43.5 21s26.167 6 39.5 6c21.333 0 35.833 -5 43.5 -15s11.5 -25.333 11.5 -46v-41
c-8.66699 4 -18.167 7.33301 -28.5 10s-22.166 4 -35.499 4c-40.667 0 -74 -11.667 -100 -35s-39 -58.333 -39 -105c0 -24 3.16699 -44.833 9.5 -62.5s14.833 -32.334 25.5 -44.001s23 -20.5 37 -26.5s28.667 -9 44 -9c36.667 0 65.667 12.667 87 38v-29h78z
M244.998 378.001c-14.667 -26.667 -38.667 -40 -72 -40c-16.667 0 -29.667 6 -39 18s-14 30.667 -14 56c0 23.333 5.66699 40.333 17 51s26 16 44 16c15.333 0 27.5 -1.33301 36.5 -4s18.167 -6.66699 27.5 -12v-85z" />
    <glyph glyph-name="guillemotleft" unicode="&#xab;" horiz-adv-x="490" 
d="M445 0l-130 263l130 262h-98l-135 -263l135 -262h98zM253 0l-130 263l130 262h-98l-135 -263l135 -262h98z" />
    <glyph glyph-name="logicalnot" unicode="&#xac;" horiz-adv-x="550" 
d="M530 346l-179.001 124.998c-7.33301 4.66699 -13.666 5.66699 -18.999 3c-8 -6 -10.667 -13.333 -8 -22l18 -58h-297v-96h297l-18 -57c-2 -5.33301 -2.16699 -9.66602 -0.5 -12.999s4.5 -6.66602 8.5 -9.99902c4.66699 -2.66699 11 -2 19 2z" />
    <glyph glyph-name="registered" unicode="&#xae;" horiz-adv-x="646" 
d="M601 350c0 54.667 -7 104.167 -21 148.5s-33.333 82.333 -58 114s-54 56 -88 73s-71 25.5 -111 25.5s-77 -8.5 -111 -25.5s-63.333 -41.333 -88 -73s-44 -69.667 -58 -114s-21 -93.833 -21 -148.5s7 -104.167 21 -148.5s33.333 -82.333 58 -114s54 -56 88 -73
s71 -25.5 111 -25.5s77 8.5 111 25.5s63.333 41.333 88 73s44 69.667 58 114s21 93.833 21 148.5zM543 349c0 -46 -5.00195 -87.667 -15.002 -125s-24.5 -69.333 -43.5 -96s-41.833 -47.334 -68.5 -62.001s-57 -22 -91 -22s-64.667 7.33301 -92 22
s-50.666 35.5 -69.999 62.5s-34.166 59.333 -44.499 97s-15.5 79.5 -15.5 125.5s5.16699 87.667 15.5 125s25 69.333 44 96s42 47.334 69 62.001s57.5 22 91.5 22s64.5 -7.33301 91.5 -22s50 -35.5 69 -62.5s33.667 -59.333 44 -97s15.5 -79.5 15.5 -125.5zM446.998 443
c0 20 -3.16992 37 -9.50293 51s-14.666 25.5 -24.999 34.5s-22.166 15.667 -35.499 20s-27.333 6.5 -42 6.5h-111v-394h58v169h42l58 -169h64l-62 180c18.667 7.33301 33.834 19.333 45.501 36s17.5 38.667 17.5 66zM386.995 443c0 -20 -4.99902 -34.5 -14.999 -43.5
s-23.667 -13.5 -41 -13.5h-49v112h51c15.333 0 28.166 -4.16699 38.499 -12.5s15.5 -22.5 15.5 -42.5z" />
    <glyph glyph-name="macron" unicode="&#xaf;" horiz-adv-x="400" 
d="M330 610v85h-260v-85h260z" />
    <glyph glyph-name="macron" unicode="&#x2c9;" horiz-adv-x="400" 
d="M330 610v85h-260v-85h260z" />
    <glyph glyph-name="degree" unicode="&#xb0;" horiz-adv-x="400" 
d="M368 544c0 23.333 -4.33301 45.166 -13 65.499s-20.5 38 -35.5 53s-32.667 26.833 -53 35.5s-42.5 13 -66.5 13c-23.333 0 -45.333 -4.33301 -66 -13s-38.5 -20.5 -53.5 -35.5s-26.833 -32.667 -35.5 -53s-13 -42.166 -13 -65.499c0 -24 4.33301 -46.333 13 -67
s20.5 -38.5 35.5 -53.5s32.833 -26.833 53.5 -35.5s42.667 -13 66 -13c24 0 46.167 4.33301 66.5 13s38 20.5 53 35.5s26.833 32.833 35.5 53.5s13 43 13 67zM289 544c0 -12.667 -2.33301 -24.5 -7 -35.5s-11 -20.667 -19 -29s-17.333 -14.833 -28 -19.5
s-22.334 -7 -35.001 -7c-12 0 -23.5 2.33301 -34.5 7s-20.5 11.167 -28.5 19.5s-14.333 18 -19 29s-7 22.833 -7 35.5c0 12 2.33301 23.333 7 34s11 20.167 19 28.5s17.5 14.833 28.5 19.5s22.5 7 34.5 7c12.667 0 24.334 -2.33301 35.001 -7s20 -11.167 28 -19.5
s14.333 -17.833 19 -28.5s7 -22 7 -34z" />
    <glyph glyph-name="plusminus" unicode="&#xb1;" 
d="M730 346l-179.002 125.002c-5.33301 4.66699 -10.666 5.66699 -15.999 3c-6.66699 -6 -8.66699 -12.333 -6 -19l19 -63h-127v134l63 -19c4 -1.33301 7.16699 -1.33301 9.5 0s5.16602 3.66602 8.49902 6.99902c2 4.66699 1 10 -3 16l-124 178l-126 -177
c-3.33301 -7.33301 -4 -13 -2 -17c3.33301 -3.33301 6.33301 -5.83301 9 -7.5s6.33398 -1.5 11.001 0.5l62 19v-134h-127l19 63c2.66699 6.66699 0.333984 13 -6.99902 19c-4.66699 2.66699 -9.66699 1.66699 -15 -3l-179 -125l177 -125
c6.66699 -3.33301 12.334 -4 17.001 -2c3.33301 3.33301 5.83301 6.16602 7.5 8.49902s1.5 6.16602 -0.5 11.499l-19 61h127v-137l-62 20c-7.33301 3.33301 -14 1.33301 -20 -6c-2 -4.66699 -1.33301 -10.334 2 -17.001l126 -178l124 178c4.66699 6 5.66699 11.667 3 17
c-5.33301 6.66699 -11.333 8.66699 -18 6l-63 -20v137h127l-19 -61c-2 -5.33301 -2.33301 -9.16602 -1 -11.499s3.66602 -5.16602 6.99902 -8.49902c4.66699 -2 10 -1.33301 16 2z" />
    <glyph glyph-name="twosuperior" unicode="&#xb2;" 
d="M730 346l-179.002 125.002c-5.33301 4.66699 -10.666 5.66699 -15.999 3c-6.66699 -6 -8.66699 -12.333 -6 -19l19 -63h-127v134l63 -19c4 -1.33301 7.16699 -1.33301 9.5 0s5.16602 3.66602 8.49902 6.99902c2 4.66699 1 10 -3 16l-124 178l-126 -177
c-3.33301 -7.33301 -4 -13 -2 -17c3.33301 -3.33301 6.33301 -5.83301 9 -7.5s6.33398 -1.5 11.001 0.5l62 19v-134h-127l19 63c2.66699 6.66699 0.333984 13 -6.99902 19c-4.66699 2.66699 -9.66699 1.66699 -15 -3l-179 -125l177 -125
c6.66699 -3.33301 12.334 -4 17.001 -2c3.33301 3.33301 5.83301 6.16602 7.5 8.49902s1.5 6.16602 -0.5 11.499l-19 61h127v-137l-62 20c-7.33301 3.33301 -14 1.33301 -20 -6c-2 -4.66699 -1.33301 -10.334 2 -17.001l126 -178l124 178c4.66699 6 5.66699 11.667 3 17
c-5.33301 6.66699 -11.333 8.66699 -18 6l-63 -20v137h127l-19 -61c-2 -5.33301 -2.33301 -9.16602 -1 -11.499s3.66602 -5.16602 6.99902 -8.49902c4.66699 -2 10 -1.33301 16 2z" />
    <glyph glyph-name="threesuperior" unicode="&#xb3;" 
d="M730 346l-179.002 125.002c-5.33301 4.66699 -10.666 5.66699 -15.999 3c-6.66699 -6 -8.66699 -12.333 -6 -19l19 -63h-127v134l63 -19c4 -1.33301 7.16699 -1.33301 9.5 0s5.16602 3.66602 8.49902 6.99902c2 4.66699 1 10 -3 16l-124 178l-126 -177
c-3.33301 -7.33301 -4 -13 -2 -17c3.33301 -3.33301 6.33301 -5.83301 9 -7.5s6.33398 -1.5 11.001 0.5l62 19v-134h-127l19 63c2.66699 6.66699 0.333984 13 -6.99902 19c-4.66699 2.66699 -9.66699 1.66699 -15 -3l-179 -125l177 -125
c6.66699 -3.33301 12.334 -4 17.001 -2c3.33301 3.33301 5.83301 6.16602 7.5 8.49902s1.5 6.16602 -0.5 11.499l-19 61h127v-137l-62 20c-7.33301 3.33301 -14 1.33301 -20 -6c-2 -4.66699 -1.33301 -10.334 2 -17.001l126 -178l124 178c4.66699 6 5.66699 11.667 3 17
c-5.33301 6.66699 -11.333 8.66699 -18 6l-63 -20v137h127l-19 -61c-2 -5.33301 -2.33301 -9.16602 -1 -11.499s3.66602 -5.16602 6.99902 -8.49902c4.66699 -2 10 -1.33301 16 2z" />
    <glyph glyph-name="acute" unicode="&#xb4;" horiz-adv-x="400" 
d="M330 755h-135l-92 -160h82z" />
    <glyph glyph-name="mu" unicode="&#xb5;" horiz-adv-x="700" 
d="M680 346l-179.001 125c-7.33301 4.66699 -13.666 5.66699 -18.999 3c-8 -6 -10.667 -13.333 -8 -22l18 -58h-284l18 58c2.66699 8.66699 0 16 -8 22c-5.33301 2.66699 -11.666 1.66699 -18.999 -3l-179 -125l179 -126c7.33301 -4 13.666 -4.66699 18.999 -2
c4 3.33301 6.83301 6.66602 8.5 9.99902s1.5 7.66602 -0.5 12.999l-18 57h284l-18 -57c-2 -5.33301 -2.16699 -9.66602 -0.5 -12.999s4.5 -6.66602 8.5 -9.99902c4.66699 -2.66699 11 -2 19 2z" />
    <glyph glyph-name="mu" unicode="&#x3bc;" horiz-adv-x="700" 
d="M680 346l-179.001 125c-7.33301 4.66699 -13.666 5.66699 -18.999 3c-8 -6 -10.667 -13.333 -8 -22l18 -58h-284l18 58c2.66699 8.66699 0 16 -8 22c-5.33301 2.66699 -11.666 1.66699 -18.999 -3l-179 -125l179 -126c7.33301 -4 13.666 -4.66699 18.999 -2
c4 3.33301 6.83301 6.66602 8.5 9.99902s1.5 7.66602 -0.5 12.999l-18 57h284l-18 -57c-2 -5.33301 -2.16699 -9.66602 -0.5 -12.999s4.5 -6.66602 8.5 -9.99902c4.66699 -2.66699 11 -2 19 2z" />
    <glyph glyph-name="paragraph" unicode="&#xb6;" horiz-adv-x="607" 
d="M542 -185v885h-298c-26.667 0 -52.167 -4.33301 -76.5 -13s-45.833 -21.834 -64.5 -39.501s-33.5 -39.667 -44.5 -66s-16.5 -57.166 -16.5 -92.499c0 -36 5.83301 -67 17.5 -93s26.834 -47.167 45.501 -63.5s39.667 -28.333 63 -36s46.666 -11.5 69.999 -11.5h35v-470h95
v789h79v-789h95z" />
    <glyph glyph-name="periodcentered" unicode="&#xb7;" horiz-adv-x="232" 
d="M186 367c0 19.333 -6.83301 36 -20.5 50s-30.167 21 -49.5 21s-35.833 -7 -49.5 -21s-20.5 -30.667 -20.5 -50s6.83301 -35.833 20.5 -49.5s30.167 -20.5 49.5 -20.5s35.833 6.83301 49.5 20.5s20.5 30.167 20.5 49.5z" />
    <glyph glyph-name="periodcentered" unicode="&#x22c5;" horiz-adv-x="232" 
d="M186 367c0 19.333 -6.83301 36 -20.5 50s-30.167 21 -49.5 21s-35.833 -7 -49.5 -21s-20.5 -30.667 -20.5 -50s6.83301 -35.833 20.5 -49.5s30.167 -20.5 49.5 -20.5s35.833 6.83301 49.5 20.5s20.5 30.167 20.5 49.5z" />
    <glyph glyph-name="cedilla" unicode="&#xb8;" horiz-adv-x="400" 
d="M310 -110c0 24.667 -6.33301 42.6641 -19 53.9971s-27.667 17 -45 17c-18 0 -32 -3 -42 -9l11 60h-47l-19 -91l32 -13c7.33301 4.66699 13.333 7.83398 18 9.50098s11 2.5 19 2.5c7.33301 0 13.5 -2.66699 18.5 -8s7.5 -13.666 7.5 -24.999s-4 -20.166 -12 -26.499
s-20.333 -9.5 -37 -9.5c-11.333 0 -23.5 1.33301 -36.5 4s-25.167 7 -36.5 13l-20 -32c16 -9.33301 31.833 -16.5 47.5 -21.5s33.5 -7.5 53.5 -7.5c34 0 60.333 6.66699 79 20s28 34.333 28 63z" />
    <glyph glyph-name="onesuperior" unicode="&#xb9;" 
d="M730 346l-179.002 125.002c-5.33301 4.66699 -10.666 5.66699 -15.999 3c-6.66699 -6 -8.66699 -12.333 -6 -19l19 -63h-127v134l63 -19c4 -1.33301 7.16699 -1.33301 9.5 0s5.16602 3.66602 8.49902 6.99902c2 4.66699 1 10 -3 16l-124 178l-126 -177
c-3.33301 -7.33301 -4 -13 -2 -17c3.33301 -3.33301 6.33301 -5.83301 9 -7.5s6.33398 -1.5 11.001 0.5l62 19v-134h-127l19 63c2.66699 6.66699 0.333984 13 -6.99902 19c-4.66699 2.66699 -9.66699 1.66699 -15 -3l-179 -125l177 -125
c6.66699 -3.33301 12.334 -4 17.001 -2c3.33301 3.33301 5.83301 6.16602 7.5 8.49902s1.5 6.16602 -0.5 11.499l-19 61h127v-137l-62 20c-7.33301 3.33301 -14 1.33301 -20 -6c-2 -4.66699 -1.33301 -10.334 2 -17.001l126 -178l124 178c4.66699 6 5.66699 11.667 3 17
c-5.33301 6.66699 -11.333 8.66699 -18 6l-63 -20v137h127l-19 -61c-2 -5.33301 -2.33301 -9.16602 -1 -11.499s3.66602 -5.16602 6.99902 -8.49902c4.66699 -2 10 -1.33301 16 2z" />
    <glyph glyph-name="ordmasculine" unicode="&#xba;" horiz-adv-x="384" 
d="M345 491c0 36.667 -3.66602 68.834 -10.999 96.501s-17.666 50.667 -30.999 69s-29.333 32 -48 41s-39.334 13.5 -62.001 13.5c-48 0 -85.667 -18.667 -113 -56s-41 -93.333 -41 -168s14 -129.834 42 -165.501s64 -53.5 108 -53.5c47.333 0 85.166 18.5 113.499 55.5
s42.5 92.833 42.5 167.5zM266.001 489c0 -44 -6.33398 -79.5 -19.001 -106.5s-31 -40.5 -55 -40.5c-50 0 -75 49 -75 147s24.667 147 74 147c24.667 0 43.334 -12.5 56.001 -37.5s19 -61.5 19 -109.5z" />
    <glyph glyph-name="guillemotright" unicode="&#xbb;" horiz-adv-x="490" 
d="M470 263l-135 262h-98l130 -263l-130 -262h98zM278 263l-135 262h-98l130 -263l-130 -262h98z" />
    <glyph glyph-name="onequarter" unicode="&#xbc;" 
d="M730 346l-179.002 125.002c-5.33301 4.66699 -10.666 5.66699 -15.999 3c-6.66699 -6 -8.66699 -12.333 -6 -19l19 -63h-127v134l63 -19c4 -1.33301 7.16699 -1.33301 9.5 0s5.16602 3.66602 8.49902 6.99902c2 4.66699 1 10 -3 16l-124 178l-126 -177
c-3.33301 -7.33301 -4 -13 -2 -17c3.33301 -3.33301 6.33301 -5.83301 9 -7.5s6.33398 -1.5 11.001 0.5l62 19v-134h-127l19 63c2.66699 6.66699 0.333984 13 -6.99902 19c-4.66699 2.66699 -9.66699 1.66699 -15 -3l-179 -125l177 -125
c6.66699 -3.33301 12.334 -4 17.001 -2c3.33301 3.33301 5.83301 6.16602 7.5 8.49902s1.5 6.16602 -0.5 11.499l-19 61h127v-137l-62 20c-7.33301 3.33301 -14 1.33301 -20 -6c-2 -4.66699 -1.33301 -10.334 2 -17.001l126 -178l124 178c4.66699 6 5.66699 11.667 3 17
c-5.33301 6.66699 -11.333 8.66699 -18 6l-63 -20v137h127l-19 -61c-2 -5.33301 -2.33301 -9.16602 -1 -11.499s3.66602 -5.16602 6.99902 -8.49902c4.66699 -2 10 -1.33301 16 2z" />
    <glyph glyph-name="onehalf" unicode="&#xbd;" 
d="M730 346l-179.002 125.002c-5.33301 4.66699 -10.666 5.66699 -15.999 3c-6.66699 -6 -8.66699 -12.333 -6 -19l19 -63h-127v134l63 -19c4 -1.33301 7.16699 -1.33301 9.5 0s5.16602 3.66602 8.49902 6.99902c2 4.66699 1 10 -3 16l-124 178l-126 -177
c-3.33301 -7.33301 -4 -13 -2 -17c3.33301 -3.33301 6.33301 -5.83301 9 -7.5s6.33398 -1.5 11.001 0.5l62 19v-134h-127l19 63c2.66699 6.66699 0.333984 13 -6.99902 19c-4.66699 2.66699 -9.66699 1.66699 -15 -3l-179 -125l177 -125
c6.66699 -3.33301 12.334 -4 17.001 -2c3.33301 3.33301 5.83301 6.16602 7.5 8.49902s1.5 6.16602 -0.5 11.499l-19 61h127v-137l-62 20c-7.33301 3.33301 -14 1.33301 -20 -6c-2 -4.66699 -1.33301 -10.334 2 -17.001l126 -178l124 178c4.66699 6 5.66699 11.667 3 17
c-5.33301 6.66699 -11.333 8.66699 -18 6l-63 -20v137h127l-19 -61c-2 -5.33301 -2.33301 -9.16602 -1 -11.499s3.66602 -5.16602 6.99902 -8.49902c4.66699 -2 10 -1.33301 16 2z" />
    <glyph glyph-name="threequarters" unicode="&#xbe;" 
d="M730 346l-179.002 125.002c-5.33301 4.66699 -10.666 5.66699 -15.999 3c-6.66699 -6 -8.66699 -12.333 -6 -19l19 -63h-127v134l63 -19c4 -1.33301 7.16699 -1.33301 9.5 0s5.16602 3.66602 8.49902 6.99902c2 4.66699 1 10 -3 16l-124 178l-126 -177
c-3.33301 -7.33301 -4 -13 -2 -17c3.33301 -3.33301 6.33301 -5.83301 9 -7.5s6.33398 -1.5 11.001 0.5l62 19v-134h-127l19 63c2.66699 6.66699 0.333984 13 -6.99902 19c-4.66699 2.66699 -9.66699 1.66699 -15 -3l-179 -125l177 -125
c6.66699 -3.33301 12.334 -4 17.001 -2c3.33301 3.33301 5.83301 6.16602 7.5 8.49902s1.5 6.16602 -0.5 11.499l-19 61h127v-137l-62 20c-7.33301 3.33301 -14 1.33301 -20 -6c-2 -4.66699 -1.33301 -10.334 2 -17.001l126 -178l124 178c4.66699 6 5.66699 11.667 3 17
c-5.33301 6.66699 -11.333 8.66699 -18 6l-63 -20v137h127l-19 -61c-2 -5.33301 -2.33301 -9.16602 -1 -11.499s3.66602 -5.16602 6.99902 -8.49902c4.66699 -2 10 -1.33301 16 2z" />
    <glyph glyph-name="questiondown" unicode="&#xbf;" horiz-adv-x="451" 
d="M314 643c0 19.333 -6.5 35.5 -19.5 48.5s-29.167 19.5 -48.5 19.5s-35.5 -6.5 -48.5 -19.5s-19.5 -29.167 -19.5 -48.5s6.5 -35.666 19.5 -48.999s29.167 -20 48.5 -20s35.5 6.66699 48.5 20s19.5 29.666 19.5 48.999zM433 84l-62.001 73
c-25.333 -23.333 -49 -40.666 -71 -51.999s-45.667 -17 -71 -17c-26 0 -47.167 7 -63.5 21s-24.5 35 -24.5 63c0 40 19 72.667 57 98c23.333 15.333 41.833 30.333 55.5 45s24 30.667 31 48s11.333 36.833 13 58.5s2.5 47.167 2.5 76.5h-101c0 -22 -0.5 -40.833 -1.5 -56.5
s-3.16699 -29.334 -6.5 -41.001s-8.83301 -22.167 -16.5 -31.5s-17.834 -18.333 -30.501 -27c-15.333 -10 -29.333 -20.5 -42 -31.5s-23.5 -23.5 -32.5 -37.5s-16.167 -29.833 -21.5 -47.5s-8 -38.5 -8 -62.5c0 -52 15.667 -94 47 -126s77.333 -48 138 -48
c42.667 0 80.834 8.66699 114.501 26s64.834 40.333 93.501 69z" />
    <glyph glyph-name="Agrave" unicode="&#xc0;" horiz-adv-x="494" 
d="M469 0l-171 700h-101l-172 -700h104l40 185h152l41 -185h107zM301 278h-112l26 118c2.66699 12 5.5 25.5 8.5 40.5l8.5 44l7.5 40l5.5 28.5l5.5 -28.5l7.5 -40.5c2.66699 -14.667 5.5 -29.5 8.5 -44.5s5.83301 -28.167 8.5 -39.5zM297 745l-92 160h-135l145 -160h82z" />
    <glyph glyph-name="Aacute" unicode="&#xc1;" horiz-adv-x="494" 
d="M469 0l-171 700h-101l-172 -700h104l40 185h152l41 -185h107zM301 278h-112l26 118c2.66699 12 5.5 25.5 8.5 40.5l8.5 44l7.5 40l5.5 28.5l5.5 -28.5l7.5 -40.5c2.66699 -14.667 5.5 -29.5 8.5 -44.5s5.83301 -28.167 8.5 -39.5zM424 905h-135l-92 -160h82z" />
    <glyph glyph-name="Acircumflex" unicode="&#xc2;" horiz-adv-x="494" 
d="M469 0l-171 700h-101l-172 -700h104l40 185h152l41 -185h107zM301 278h-112l26 118c2.66699 12 5.5 25.5 8.5 40.5l8.5 44l7.5 40l5.5 28.5l5.5 -28.5l7.5 -40.5c2.66699 -14.667 5.5 -29.5 8.5 -44.5s5.83301 -28.167 8.5 -39.5zM401 734l-102 160h-104l-102 -160h76
l77 88l77 -88h78z" />
    <glyph glyph-name="Atilde" unicode="&#xc3;" horiz-adv-x="494" 
d="M469 0l-171 700h-101l-172 -700h104l40 185h152l41 -185h107zM301 278h-112l26 118c2.66699 12 5.5 25.5 8.5 40.5l8.5 44l7.5 40l5.5 28.5l5.5 -28.5l7.5 -40.5c2.66699 -14.667 5.5 -29.5 8.5 -44.5s5.83301 -28.167 8.5 -39.5zM417 866l-66.002 0.00195312
c-2 -17.333 -5.5 -29.833 -10.5 -37.5s-12.5 -11.5 -22.5 -11.5c-5.33301 0 -10.833 1.16699 -16.5 3.5s-11.834 5.16602 -18.501 8.49902c-23.333 14.667 -42.166 25 -56.499 31s-30.166 9 -47.499 9c-27.333 0 -50.166 -10.333 -68.499 -31s-27.5 -51.667 -27.5 -93h66
c2 17.333 5.83301 29.5 11.5 36.5s13.5 10.5 23.5 10.5c5.33301 0 10.5 -1.16699 15.5 -3.5l17.5 -8.5c23.333 -14.667 42.5 -25 57.5 -31s31.167 -9 48.5 -9c27.333 0 49.833 10.667 67.5 32s26.5 52.666 26.5 93.999z" />
    <glyph glyph-name="Adieresis" unicode="&#xc4;" horiz-adv-x="494" 
d="M469 0l-171 700h-101l-172 -700h104l40 185h152l41 -185h107zM301 278h-112l26 118c2.66699 12 5.5 25.5 8.5 40.5l8.5 44l7.5 40l5.5 28.5l5.5 -28.5l7.5 -40.5c2.66699 -14.667 5.5 -29.5 8.5 -44.5s5.83301 -28.167 8.5 -39.5zM398 807
c0 17.333 -6.16699 32.166 -18.5 44.499s-26.833 18.5 -43.5 18.5c-17.333 0 -32.166 -6.16699 -44.499 -18.5s-18.5 -27.166 -18.5 -44.499c0 -16.667 6.16699 -31.167 18.5 -43.5s27.166 -18.5 44.499 -18.5c16.667 0 31.167 6.16699 43.5 18.5s18.5 26.833 18.5 43.5z
M221 807c0 17.333 -6.16699 32.166 -18.5 44.499s-26.833 18.5 -43.5 18.5c-17.333 0 -32.166 -6.16699 -44.499 -18.5s-18.5 -27.166 -18.5 -44.499c0 -16.667 6.16699 -31.167 18.5 -43.5s27.166 -18.5 44.499 -18.5c16.667 0 31.167 6.16699 43.5 18.5
s18.5 26.833 18.5 43.5z" />
    <glyph glyph-name="Aring" unicode="&#xc5;" horiz-adv-x="494" 
d="M469 0l-157.001 644c14.667 9.33301 26.334 22.166 35.001 38.499s13 34.5 13 54.5c0 32.667 -10.667 59.667 -32 81s-48.333 32 -81 32s-59.667 -10.667 -81 -32s-32 -48.333 -32 -81c0 -20.667 4.33301 -39.167 13 -55.5s20.667 -29.166 36 -38.499l-158 -643h104
l40 185h152l41 -185h107zM301.999 737c0 -16 -5.33301 -29.333 -16 -40s-23.667 -16 -39 -16s-28.333 5.33301 -39 16s-16 24 -16 40s5.33301 29.333 16 40s23.667 16 39 16s28.333 -5.33301 39 -16s16 -24 16 -40zM300.999 278h-112l26 118c2.66699 12 5.5 25.5 8.5 40.5
l8.5 44l7.5 40l5.5 28.5l5.5 -28.5l7.5 -40.5c2.66699 -14.667 5.5 -29.5 8.5 -44.5s5.83301 -28.167 8.5 -39.5z" />
    <glyph glyph-name="AE" unicode="&#xc6;" horiz-adv-x="667" 
d="M634 0v95h-234v229h141v94h-141v187h221v95h-362l-242 -700h99l54 165h137v-165h327zM309 597c0 -8.66699 -0.166992 -18.666 -0.5 -29.999l-1 -34.5c-0.333008 -11.667 -0.5 -22.834 -0.5 -33.501v-28v-213h-107l67 204l10 31l12 37l11.5 37c3.66699 12 6.5 22 8.5 30z
" />
    <glyph glyph-name="Ccedilla" unicode="&#xc7;" horiz-adv-x="480" 
d="M437 166l-91.0029 29.001c-9.33301 -38 -20.5 -65.333 -33.5 -82s-31.167 -25 -54.5 -25c-21.333 0 -39.166 7.66699 -53.499 23s-25.833 35.333 -34.5 60s-14.834 52.834 -18.501 84.501s-5.5 63.5 -5.5 95.5c0 30.667 1.5 61.5 4.5 92.5s8.33301 59 16 84
s18.334 45.333 32.001 61s31.167 23.5 52.5 23.5c27.333 0 46.833 -8.16699 58.5 -24.5s20.834 -40.5 27.501 -72.5l99 25c-4 24.667 -10.333 47.5 -19 68.5s-20.167 39.167 -34.5 54.5s-32 27.166 -53 35.499s-46.167 12.5 -75.5 12.5
c-37.333 0 -69.166 -9.33301 -95.499 -28s-47.833 -44.334 -64.5 -77.001s-29 -71 -37 -115s-12 -91.333 -12 -142c0 -45.333 3 -88.333 9 -129s15.833 -76.834 29.5 -108.501s31.167 -58 52.5 -79s47.666 -34.5 78.999 -40.5l-15 -71l32 -13
c7.33301 4.66699 13.333 7.83398 18 9.50098s11 2.5 19 2.5c7.33301 0 13.5 -2.66699 18.5 -8s7.5 -13.666 7.5 -24.999s-4 -20.166 -12 -26.499s-20.333 -9.5 -37 -9.5c-11.333 0 -23.5 1.33301 -36.5 4s-25.167 7 -36.5 13l-20 -32c16 -9.33301 31.833 -16.5 47.5 -21.5
s33.5 -7.5 53.5 -7.5c34 0 60.333 6.66699 79 20s28 34.333 28 63c0 24.667 -6.33301 42.667 -19 54s-27.667 17 -45 17c-18 0 -32 -3 -42 -9l7 37c26.667 1.33301 49.834 6.5 69.501 15.5s36.5 21.167 50.5 36.5s25.333 33.666 34 54.999s15.667 44.666 21 69.999z" />
    <glyph glyph-name="Egrave" unicode="&#xc8;" horiz-adv-x="445" 
d="M412 0v95h-244v229h151v94h-151v187h231v95h-329v-700h342zM281 745l-92 160h-135l145 -160h82z" />
    <glyph glyph-name="Eacute" unicode="&#xc9;" horiz-adv-x="445" 
d="M412 0v95h-244v229h151v94h-151v187h231v95h-329v-700h342zM408 905h-135l-92 -160h82z" />
    <glyph glyph-name="Ecircumflex" unicode="&#xca;" horiz-adv-x="445" 
d="M412 0v95h-244v229h151v94h-151v187h231v95h-329v-700h342zM385 745l-102 160h-104l-102 -160h76l77 88l77 -88h78z" />
    <glyph glyph-name="Edieresis" unicode="&#xcb;" horiz-adv-x="445" 
d="M412 0v95h-244v229h151v94h-151v187h231v95h-329v-700h342zM382 807c0 17.333 -6.16699 32.166 -18.5 44.499s-26.833 18.5 -43.5 18.5c-17.333 0 -32.166 -6.16699 -44.499 -18.5s-18.5 -27.166 -18.5 -44.499c0 -16.667 6.16699 -31.167 18.5 -43.5
s27.166 -18.5 44.499 -18.5c16.667 0 31.167 6.16699 43.5 18.5s18.5 26.833 18.5 43.5zM205 807c0 17.333 -6.16699 32.166 -18.5 44.499s-26.833 18.5 -43.5 18.5c-17.333 0 -32.166 -6.16699 -44.499 -18.5s-18.5 -27.166 -18.5 -44.499
c0 -16.667 6.16699 -31.167 18.5 -43.5s27.166 -18.5 44.499 -18.5c16.667 0 31.167 6.16699 43.5 18.5s18.5 26.833 18.5 43.5z" />
    <glyph glyph-name="Igrave" unicode="&#xcc;" horiz-adv-x="248" 
d="M173 0v700h-98v-700h98zM169 745l-92 160h-135l145 -160h82z" />
    <glyph glyph-name="Iacute" unicode="&#xcd;" horiz-adv-x="248" 
d="M173 0v700h-98v-700h98zM306 905h-135l-92 -160h82z" />
    <glyph glyph-name="Icircumflex" unicode="&#xce;" horiz-adv-x="248" 
d="M173 0v700h-98v-700h98zM278 738l-102 160h-104l-102 -160h76l77 88l77 -88h78z" />
    <glyph glyph-name="Idieresis" unicode="&#xcf;" horiz-adv-x="248" 
d="M173 0v700h-98v-700h98zM275 807c0 17.333 -6.16699 32.166 -18.5 44.499s-26.833 18.5 -43.5 18.5c-17.333 0 -32.166 -6.16699 -44.499 -18.5s-18.5 -27.166 -18.5 -44.499c0 -16.667 6.16699 -31.167 18.5 -43.5s27.166 -18.5 44.499 -18.5
c16.667 0 31.167 6.16699 43.5 18.5s18.5 26.833 18.5 43.5zM98 807c0 17.333 -6.16699 32.166 -18.5 44.499s-26.833 18.5 -43.5 18.5c-17.333 0 -32.166 -6.16699 -44.499 -18.5s-18.5 -27.166 -18.5 -44.499c0 -16.667 6.16699 -31.167 18.5 -43.5
s27.166 -18.5 44.499 -18.5c16.667 0 31.167 6.16699 43.5 18.5s18.5 26.833 18.5 43.5z" />
    <glyph glyph-name="Eth" unicode="&#xd0;" horiz-adv-x="517" 
d="M472 353c0 52 -4.33203 99.333 -12.999 142s-22 79.167 -40 109.5s-41 53.833 -69 70.5s-61.333 25 -100 25h-170v-289h-50v-90h50v-321h170c36.667 0 69 8.66699 97 26s51.167 41.5 69.5 72.5s32.166 68.167 41.499 111.5s14 91 14 143zM371.001 353
c0 -30.667 -1.83301 -61.333 -5.5 -92s-10.167 -58.167 -19.5 -82.5s-21.833 -44.166 -37.5 -59.499s-35.167 -23 -58.5 -23h-74v225h81v90h-81v193h71c24.667 0 45 -7.33301 61 -22s28.667 -33.834 38 -57.501s15.833 -50.5 19.5 -80.5s5.5 -60.333 5.5 -91z" />
    <glyph glyph-name="Ntilde" unicode="&#xd1;" horiz-adv-x="532" 
d="M462 0v700h-96v-308v-33c0 -12.667 0.166992 -26 0.5 -40s0.666016 -27 0.999023 -39s0.5 -21.333 0.5 -28l-9.5 22l-13.5 32l-14 33.5l-12 27.5l-151 333h-98v-700h96v350v32c0 13.333 -0.166992 27 -0.5 41s-0.666016 27 -0.999023 39s-0.5 21.333 -0.5 28
c2 -5.33301 5.16699 -12.833 9.5 -22.5l13.5 -31.5l14 -33.5l12 -27.5l169 -375h80zM436 868l-66.002 0.00195312c-2 -17.333 -5.5 -29.833 -10.5 -37.5s-12.5 -11.5 -22.5 -11.5c-5.33301 0 -10.833 1.16699 -16.5 3.5s-11.834 5.16602 -18.501 8.49902
c-23.333 14.667 -42.166 25 -56.499 31s-30.166 9 -47.499 9c-27.333 0 -50.166 -10.333 -68.499 -31s-27.5 -51.667 -27.5 -93h66c2 17.333 5.83301 29.5 11.5 36.5s13.5 10.5 23.5 10.5c5.33301 0 10.5 -1.16699 15.5 -3.5l17.5 -8.5c23.333 -14.667 42.5 -25 57.5 -31
s31.167 -9 48.5 -9c27.333 0 49.833 10.667 67.5 32s26.5 52.666 26.5 93.999z" />
    <glyph glyph-name="Ograve" unicode="&#xd2;" horiz-adv-x="513" 
d="M468 351c0 50.667 -4.16699 98 -12.5 142s-21 82.167 -38 114.5s-39 57.666 -66 75.999s-58.833 27.5 -95.5 27.5c-37.333 0 -69.166 -9.33301 -95.499 -28s-48.166 -44.334 -65.499 -77.001s-30 -71 -38 -115s-12 -91.333 -12 -142s4 -98 12 -142
s20.5 -82.167 37.5 -114.5s38.667 -57.666 65 -75.999s58.166 -27.5 95.499 -27.5c36.667 0 68.5 9.33301 95.5 28s49.167 44.334 66.5 77.001s30.166 71 38.499 115s12.5 91.333 12.5 142zM368 349c0 -32.667 -1.66602 -64.667 -4.99902 -96s-9.33301 -59.333 -18 -84
s-20 -44.5 -34 -59.5s-31.667 -22.5 -53 -22.5s-39.166 7.66699 -53.499 23s-26 35.5 -35 60.5s-15.333 53.167 -19 84.5s-5.5 63.333 -5.5 96s1.66699 64.667 5 96s9.16602 59.333 17.499 84s19.5 44.5 33.5 59.5s31.667 22.5 53 22.5s39.166 -7.66699 53.499 -23
s26 -35.5 35 -60.5s15.5 -53.167 19.5 -84.5s6 -63.333 6 -96zM304.001 745l-92 160h-135l145 -160h82z" />
    <glyph glyph-name="Oacute" unicode="&#xd3;" horiz-adv-x="513" 
d="M468 351c0 50.667 -4.16699 98 -12.5 142s-21 82.167 -38 114.5s-39 57.666 -66 75.999s-58.833 27.5 -95.5 27.5c-37.333 0 -69.166 -9.33301 -95.499 -28s-48.166 -44.334 -65.499 -77.001s-30 -71 -38 -115s-12 -91.333 -12 -142s4 -98 12 -142
s20.5 -82.167 37.5 -114.5s38.667 -57.666 65 -75.999s58.166 -27.5 95.499 -27.5c36.667 0 68.5 9.33301 95.5 28s49.167 44.334 66.5 77.001s30.166 71 38.499 115s12.5 91.333 12.5 142zM368 349c0 -32.667 -1.66602 -64.667 -4.99902 -96s-9.33301 -59.333 -18 -84
s-20 -44.5 -34 -59.5s-31.667 -22.5 -53 -22.5s-39.166 7.66699 -53.499 23s-26 35.5 -35 60.5s-15.333 53.167 -19 84.5s-5.5 63.333 -5.5 96s1.66699 64.667 5 96s9.16602 59.333 17.499 84s19.5 44.5 33.5 59.5s31.667 22.5 53 22.5s39.166 -7.66699 53.499 -23
s26 -35.5 35 -60.5s15.5 -53.167 19.5 -84.5s6 -63.333 6 -96zM431.001 905h-135l-92 -160h82z" />
    <glyph glyph-name="Ocircumflex" unicode="&#xd4;" horiz-adv-x="513" 
d="M468 351c0 50.667 -4.16699 98 -12.5 142s-21 82.167 -38 114.5s-39 57.666 -66 75.999s-58.833 27.5 -95.5 27.5c-37.333 0 -69.166 -9.33301 -95.499 -28s-48.166 -44.334 -65.499 -77.001s-30 -71 -38 -115s-12 -91.333 -12 -142s4 -98 12 -142
s20.5 -82.167 37.5 -114.5s38.667 -57.666 65 -75.999s58.166 -27.5 95.499 -27.5c36.667 0 68.5 9.33301 95.5 28s49.167 44.334 66.5 77.001s30.166 71 38.499 115s12.5 91.333 12.5 142zM368 349c0 -32.667 -1.66602 -64.667 -4.99902 -96s-9.33301 -59.333 -18 -84
s-20 -44.5 -34 -59.5s-31.667 -22.5 -53 -22.5s-39.166 7.66699 -53.499 23s-26 35.5 -35 60.5s-15.333 53.167 -19 84.5s-5.5 63.333 -5.5 96s1.66699 64.667 5 96s9.16602 59.333 17.499 84s19.5 44.5 33.5 59.5s31.667 22.5 53 22.5s39.166 -7.66699 53.499 -23
s26 -35.5 35 -60.5s15.5 -53.167 19.5 -84.5s6 -63.333 6 -96zM408.001 740l-102 160h-104l-102 -160h76l77 88l77 -88h78z" />
    <glyph glyph-name="Otilde" unicode="&#xd5;" horiz-adv-x="513" 
d="M468 351c0 50.667 -4.16699 98 -12.5 142s-21 82.167 -38 114.5s-39 57.666 -66 75.999s-58.833 27.5 -95.5 27.5c-37.333 0 -69.166 -9.33301 -95.499 -28s-48.166 -44.334 -65.499 -77.001s-30 -71 -38 -115s-12 -91.333 -12 -142s4 -98 12 -142
s20.5 -82.167 37.5 -114.5s38.667 -57.666 65 -75.999s58.166 -27.5 95.499 -27.5c36.667 0 68.5 9.33301 95.5 28s49.167 44.334 66.5 77.001s30.166 71 38.499 115s12.5 91.333 12.5 142zM368 349c0 -32.667 -1.66602 -64.667 -4.99902 -96s-9.33301 -59.333 -18 -84
s-20 -44.5 -34 -59.5s-31.667 -22.5 -53 -22.5s-39.166 7.66699 -53.499 23s-26 35.5 -35 60.5s-15.333 53.167 -19 84.5s-5.5 63.333 -5.5 96s1.66699 64.667 5 96s9.16602 59.333 17.499 84s19.5 44.5 33.5 59.5s31.667 22.5 53 22.5s39.166 -7.66699 53.499 -23
s26 -35.5 35 -60.5s15.5 -53.167 19.5 -84.5s6 -63.333 6 -96zM424.001 866l-66.002 0.00195312c-2 -17.333 -5.5 -29.833 -10.5 -37.5s-12.5 -11.5 -22.5 -11.5c-5.33301 0 -10.833 1.16699 -16.5 3.5s-11.834 5.16602 -18.501 8.49902
c-23.333 14.667 -42.166 25 -56.499 31s-30.166 9 -47.499 9c-27.333 0 -50.166 -10.333 -68.499 -31s-27.5 -51.667 -27.5 -93h66c2 17.333 5.83301 29.5 11.5 36.5s13.5 10.5 23.5 10.5c5.33301 0 10.5 -1.16699 15.5 -3.5l17.5 -8.5c23.333 -14.667 42.5 -25 57.5 -31
s31.167 -9 48.5 -9c27.333 0 49.833 10.667 67.5 32s26.5 52.666 26.5 93.999z" />
    <glyph glyph-name="Odieresis" unicode="&#xd6;" horiz-adv-x="513" 
d="M468 351c0 50.667 -4.16699 98 -12.5 142s-21 82.167 -38 114.5s-39 57.666 -66 75.999s-58.833 27.5 -95.5 27.5c-37.333 0 -69.166 -9.33301 -95.499 -28s-48.166 -44.334 -65.499 -77.001s-30 -71 -38 -115s-12 -91.333 -12 -142s4 -98 12 -142
s20.5 -82.167 37.5 -114.5s38.667 -57.666 65 -75.999s58.166 -27.5 95.499 -27.5c36.667 0 68.5 9.33301 95.5 28s49.167 44.334 66.5 77.001s30.166 71 38.499 115s12.5 91.333 12.5 142zM368 349c0 -32.667 -1.66602 -64.667 -4.99902 -96s-9.33301 -59.333 -18 -84
s-20 -44.5 -34 -59.5s-31.667 -22.5 -53 -22.5s-39.166 7.66699 -53.499 23s-26 35.5 -35 60.5s-15.333 53.167 -19 84.5s-5.5 63.333 -5.5 96s1.66699 64.667 5 96s9.16602 59.333 17.499 84s19.5 44.5 33.5 59.5s31.667 22.5 53 22.5s39.166 -7.66699 53.499 -23
s26 -35.5 35 -60.5s15.5 -53.167 19.5 -84.5s6 -63.333 6 -96zM404.001 807c0 17.333 -6.16699 32.166 -18.5 44.499s-26.833 18.5 -43.5 18.5c-17.333 0 -32.166 -6.16699 -44.499 -18.5s-18.5 -27.166 -18.5 -44.499c0 -16.667 6.16699 -31.167 18.5 -43.5
s27.166 -18.5 44.499 -18.5c16.667 0 31.167 6.16699 43.5 18.5s18.5 26.833 18.5 43.5zM227.001 807c0 17.333 -6.16699 32.166 -18.5 44.499s-26.833 18.5 -43.5 18.5c-17.333 0 -32.166 -6.16699 -44.499 -18.5s-18.5 -27.166 -18.5 -44.499
c0 -16.667 6.16699 -31.167 18.5 -43.5s27.166 -18.5 44.499 -18.5c16.667 0 31.167 6.16699 43.5 18.5s18.5 26.833 18.5 43.5z" />
    <glyph glyph-name="multiply" unicode="&#xd7;" 
d="M730 346l-179.002 125.002c-5.33301 4.66699 -10.666 5.66699 -15.999 3c-6.66699 -6 -8.66699 -12.333 -6 -19l19 -63h-127v134l63 -19c4 -1.33301 7.16699 -1.33301 9.5 0s5.16602 3.66602 8.49902 6.99902c2 4.66699 1 10 -3 16l-124 178l-126 -177
c-3.33301 -7.33301 -4 -13 -2 -17c3.33301 -3.33301 6.33301 -5.83301 9 -7.5s6.33398 -1.5 11.001 0.5l62 19v-134h-127l19 63c2.66699 6.66699 0.333984 13 -6.99902 19c-4.66699 2.66699 -9.66699 1.66699 -15 -3l-179 -125l177 -125
c6.66699 -3.33301 12.334 -4 17.001 -2c3.33301 3.33301 5.83301 6.16602 7.5 8.49902s1.5 6.16602 -0.5 11.499l-19 61h127v-137l-62 20c-7.33301 3.33301 -14 1.33301 -20 -6c-2 -4.66699 -1.33301 -10.334 2 -17.001l126 -178l124 178c4.66699 6 5.66699 11.667 3 17
c-5.33301 6.66699 -11.333 8.66699 -18 6l-63 -20v137h127l-19 -61c-2 -5.33301 -2.33301 -9.16602 -1 -11.499s3.66602 -5.16602 6.99902 -8.49902c4.66699 -2 10 -1.33301 16 2z" />
    <glyph glyph-name="Oslash" unicode="&#xd8;" horiz-adv-x="513" 
d="M468 351c0 60.667 -5.66797 115.666 -17.001 164.999s-29.333 90.333 -54 123l38 111h-86l-19 -55c-21.333 10.667 -46 16 -74 16c-37.333 0 -69.166 -9.33301 -95.499 -28s-48.166 -44.334 -65.499 -77.001s-30 -71 -38 -115s-12 -91.333 -12 -142
c0 -60 5.5 -114.667 16.5 -164s28.5 -90.666 52.5 -123.999l-38 -111h86l18 55c23.333 -10.667 48.333 -16 75 -16c36.667 0 68.5 9.33301 95.5 28s49.167 44.334 66.5 77.001s30.166 71 38.499 115s12.5 91.333 12.5 142zM298.999 601.999l-138.999 -411.001
c-6 22.667 -10.333 47.5 -13 74.5s-4 55.5 -4 85.5c0 32.667 1.66699 64.834 5 96.501s9.33301 60 18 85s20.167 45.167 34.5 60.5s32.166 23 53.499 23c16.667 0 31.667 -4.66699 45 -14zM370 348.998c0 -32.667 -1.83398 -64.834 -5.50098 -96.501
s-9.83398 -60 -18.501 -85s-20.167 -45.167 -34.5 -60.5s-32.166 -23 -53.499 -23c-18 0 -33.333 5 -46 15l140 412c6.66699 -23.333 11.334 -48.666 14.001 -75.999s4 -56 4 -86z" />
    <glyph glyph-name="Ugrave" unicode="&#xd9;" horiz-adv-x="526" 
d="M459 208l0.00195312 491.999h-97v-495c0 -13.333 -1.5 -27 -4.5 -41s-8.33301 -26.667 -16 -38s-17.834 -20.5 -30.501 -27.5s-28.667 -10.5 -48 -10.5c-18 0 -33.333 3.5 -46 10.5s-22.834 16 -30.501 27s-13.167 23.5 -16.5 37.5s-5 28.333 -5 43v494h-98v-498
c0 -32 4.83301 -61 14.5 -87s23 -48.333 40 -67s37.5 -33.167 61.5 -43.5s50.667 -15.5 80 -15.5c60.667 0 108.5 19.333 143.5 58s52.5 92.334 52.5 161.001zM314.002 734.999l-92 160h-135l145 -160h82z" />
    <glyph glyph-name="Uacute" unicode="&#xda;" horiz-adv-x="526" 
d="M459 208l0.00195312 491.999h-97v-495c0 -13.333 -1.5 -27 -4.5 -41s-8.33301 -26.667 -16 -38s-17.834 -20.5 -30.501 -27.5s-28.667 -10.5 -48 -10.5c-18 0 -33.333 3.5 -46 10.5s-22.834 16 -30.501 27s-13.167 23.5 -16.5 37.5s-5 28.333 -5 43v494h-98v-498
c0 -32 4.83301 -61 14.5 -87s23 -48.333 40 -67s37.5 -33.167 61.5 -43.5s50.667 -15.5 80 -15.5c60.667 0 108.5 19.333 143.5 58s52.5 92.334 52.5 161.001zM441.002 894.999h-135l-92 -160h82z" />
    <glyph glyph-name="Ucircumflex" unicode="&#xdb;" horiz-adv-x="526" 
d="M459 208l0.00195312 491.999h-97v-495c0 -13.333 -1.5 -27 -4.5 -41s-8.33301 -26.667 -16 -38s-17.834 -20.5 -30.501 -27.5s-28.667 -10.5 -48 -10.5c-18 0 -33.333 3.5 -46 10.5s-22.834 16 -30.501 27s-13.167 23.5 -16.5 37.5s-5 28.333 -5 43v494h-98v-498
c0 -32 4.83301 -61 14.5 -87s23 -48.333 40 -67s37.5 -33.167 61.5 -43.5s50.667 -15.5 80 -15.5c60.667 0 108.5 19.333 143.5 58s52.5 92.334 52.5 161.001zM418.002 744.999l-102 160h-104l-102 -160h76l77 88l77 -88h78z" />
    <glyph glyph-name="Udieresis" unicode="&#xdc;" horiz-adv-x="526" 
d="M459 208l0.00195312 491.999h-97v-495c0 -13.333 -1.5 -27 -4.5 -41s-8.33301 -26.667 -16 -38s-17.834 -20.5 -30.501 -27.5s-28.667 -10.5 -48 -10.5c-18 0 -33.333 3.5 -46 10.5s-22.834 16 -30.501 27s-13.167 23.5 -16.5 37.5s-5 28.333 -5 43v494h-98v-498
c0 -32 4.83301 -61 14.5 -87s23 -48.333 40 -67s37.5 -33.167 61.5 -43.5s50.667 -15.5 80 -15.5c60.667 0 108.5 19.333 143.5 58s52.5 92.334 52.5 161.001zM414.002 806.999c0 17.333 -6.16699 32.166 -18.5 44.499s-26.833 18.5 -43.5 18.5
c-17.333 0 -32.166 -6.16699 -44.499 -18.5s-18.5 -27.166 -18.5 -44.499c0 -16.667 6.16699 -31.167 18.5 -43.5s27.166 -18.5 44.499 -18.5c16.667 0 31.167 6.16699 43.5 18.5s18.5 26.833 18.5 43.5zM237.002 806.999c0 17.333 -6.16699 32.166 -18.5 44.499
s-26.833 18.5 -43.5 18.5c-17.333 0 -32.166 -6.16699 -44.499 -18.5s-18.5 -27.166 -18.5 -44.499c0 -16.667 6.16699 -31.167 18.5 -43.5s27.166 -18.5 44.499 -18.5c16.667 0 31.167 6.16699 43.5 18.5s18.5 26.833 18.5 43.5z" />
    <glyph glyph-name="Yacute" unicode="&#xdd;" horiz-adv-x="493" 
d="M471 700l-107.001 -0.000976562l-60 -145c-4 -9.33301 -8.66699 -21 -14 -35l-16 -42.5c-5.33301 -14.333 -10.166 -28 -14.499 -41l-9.5 -28.5l-9.5 28c-4.33301 12.667 -9.33301 26.334 -15 41.001l-16.5 43c-5.33301 14 -10 25.333 -14 34l-62 146h-111l178 -390v-310
h98v313zM424.999 899.999h-135l-92 -160h82z" />
    <glyph glyph-name="Thorn" unicode="&#xde;" horiz-adv-x="478" 
d="M452 368c0 36 -5.66699 67 -17 93s-26.166 47.167 -44.499 63.5s-39.333 28.333 -63 36s-47.834 11.5 -72.501 11.5h-87v128h-98v-700h98v157h82c26.667 0 52.167 4.33301 76.5 13s45.833 21.667 64.5 39s33.5 39.333 44.5 66s16.5 57.667 16.5 93zM351 365
c0 -38 -9.5 -66.334 -28.5 -85.001s-42.833 -28 -71.5 -28h-83v224h80c28 0 52.167 -8.66699 72.5 -26s30.5 -45.666 30.5 -84.999z" />
    <glyph glyph-name="germandbls" unicode="&#xdf;" horiz-adv-x="463" 
d="M421 218c0 54.667 -8.49805 96.1709 -25.498 124.504s-40.167 48.166 -69.5 59.499c21.333 12.667 38.5 30.167 51.5 52.5s19.5 52.833 19.5 91.5c0 57.333 -14.5 101.666 -43.5 132.999s-71.167 47 -126.5 47c-60 0 -103.333 -15.333 -130 -46s-40 -80.334 -40 -149.001
v-724l96 52v683c0 32 5.16699 55.833 15.5 71.5s29.166 23.5 56.499 23.5s46.666 -8.5 57.999 -25.5s17 -41.5 17 -73.5c0 -28.667 -6.33301 -52.334 -19 -71.001s-33 -28 -61 -28h-9v-87h10c36 0 62.167 -11.167 78.5 -33.5s24.5 -56.833 24.5 -103.5
c0 -42 -8 -73.667 -24 -95s-41.667 -32 -77 -32h-12v-88h11c71.333 -0 122.333 18.833 153 56.5s46 91.5 46 161.5z" />
    <glyph glyph-name="agrave" unicode="&#xe0;" horiz-adv-x="434" 
d="M378 0l0.00195312 379c0 29.333 -2.83301 54 -8.5 74s-14.834 36.167 -27.501 48.5s-29 21.166 -49 26.499s-44 8 -72 8c-24 0 -49.167 -4.33301 -75.5 -13s-51.5 -21 -75.5 -37l41 -73c20 12 38 20.5 54 25.5s32.333 7.5 49 7.5c25.333 0 43 -6.16699 53 -18.5
s15 -31.166 15 -56.499v-51c-10.667 5.33301 -22.667 9.5 -36 12.5s-28 4.5 -44 4.5c-50 0 -91 -14.333 -123 -43s-48 -71.667 -48 -129c0 -29.333 3.83301 -55 11.5 -77s18 -40.333 31 -55s28.167 -25.667 45.5 -33s35.666 -11 54.999 -11c23.333 0 43.833 4 61.5 12
s33.167 19.667 46.5 35v-36h96zM282.002 125c-18.667 -32.667 -48.332 -49 -88.999 -49c-20.667 0 -36.834 7.33301 -48.501 22s-17.5 37.667 -17.5 69c0 28.667 7 49.667 21 63s32.333 20 55 20c18 0 32.833 -1.5 44.5 -4.5s23.167 -8.16699 34.5 -15.5v-105zM268.004 595
l-92 160h-135l145 -160h82z" />
    <glyph glyph-name="aacute" unicode="&#xe1;" horiz-adv-x="434" 
d="M378 0l0.00195312 379c0 29.333 -2.83301 54 -8.5 74s-14.834 36.167 -27.501 48.5s-29 21.166 -49 26.499s-44 8 -72 8c-24 0 -49.167 -4.33301 -75.5 -13s-51.5 -21 -75.5 -37l41 -73c20 12 38 20.5 54 25.5s32.333 7.5 49 7.5c25.333 0 43 -6.16699 53 -18.5
s15 -31.166 15 -56.499v-51c-10.667 5.33301 -22.667 9.5 -36 12.5s-28 4.5 -44 4.5c-50 0 -91 -14.333 -123 -43s-48 -71.667 -48 -129c0 -29.333 3.83301 -55 11.5 -77s18 -40.333 31 -55s28.167 -25.667 45.5 -33s35.666 -11 54.999 -11c23.333 0 43.833 4 61.5 12
s33.167 19.667 46.5 35v-36h96zM282.002 125c-18.667 -32.667 -48.332 -49 -88.999 -49c-20.667 0 -36.834 7.33301 -48.501 22s-17.5 37.667 -17.5 69c0 28.667 7 49.667 21 63s32.333 20 55 20c18 0 32.833 -1.5 44.5 -4.5s23.167 -8.16699 34.5 -15.5v-105zM395.004 755
h-135l-92 -160h82z" />
    <glyph glyph-name="acircumflex" unicode="&#xe2;" horiz-adv-x="434" 
d="M378 0l0.00195312 379c0 29.333 -2.83301 54 -8.5 74s-14.834 36.167 -27.501 48.5s-29 21.166 -49 26.499s-44 8 -72 8c-24 0 -49.167 -4.33301 -75.5 -13s-51.5 -21 -75.5 -37l41 -73c20 12 38 20.5 54 25.5s32.333 7.5 49 7.5c25.333 0 43 -6.16699 53 -18.5
s15 -31.166 15 -56.499v-51c-10.667 5.33301 -22.667 9.5 -36 12.5s-28 4.5 -44 4.5c-50 0 -91 -14.333 -123 -43s-48 -71.667 -48 -129c0 -29.333 3.83301 -55 11.5 -77s18 -40.333 31 -55s28.167 -25.667 45.5 -33s35.666 -11 54.999 -11c23.333 0 43.833 4 61.5 12
s33.167 19.667 46.5 35v-36h96zM282.002 125c-18.667 -32.667 -48.332 -49 -88.999 -49c-20.667 0 -36.834 7.33301 -48.501 22s-17.5 37.667 -17.5 69c0 28.667 7 49.667 21 63s32.333 20 55 20c18 0 32.833 -1.5 44.5 -4.5s23.167 -8.16699 34.5 -15.5v-105zM372.004 590
l-102 160h-104l-102 -160h76l77 88l77 -88h78z" />
    <glyph glyph-name="atilde" unicode="&#xe3;" horiz-adv-x="434" 
d="M378 0l0.00195312 379c0 29.333 -2.83301 54 -8.5 74s-14.834 36.167 -27.501 48.5s-29 21.166 -49 26.499s-44 8 -72 8c-24 0 -49.167 -4.33301 -75.5 -13s-51.5 -21 -75.5 -37l41 -73c20 12 38 20.5 54 25.5s32.333 7.5 49 7.5c25.333 0 43 -6.16699 53 -18.5
s15 -31.166 15 -56.499v-51c-10.667 5.33301 -22.667 9.5 -36 12.5s-28 4.5 -44 4.5c-50 0 -91 -14.333 -123 -43s-48 -71.667 -48 -129c0 -29.333 3.83301 -55 11.5 -77s18 -40.333 31 -55s28.167 -25.667 45.5 -33s35.666 -11 54.999 -11c23.333 0 43.833 4 61.5 12
s33.167 19.667 46.5 35v-36h96zM282.002 125c-18.667 -32.667 -48.332 -49 -88.999 -49c-20.667 0 -36.834 7.33301 -48.501 22s-17.5 37.667 -17.5 69c0 28.667 7 49.667 21 63s32.333 20 55 20c18 0 32.833 -1.5 44.5 -4.5s23.167 -8.16699 34.5 -15.5v-105zM388.004 716
l-66.002 0.00195312c-2 -17.333 -5.5 -29.833 -10.5 -37.5s-12.5 -11.5 -22.5 -11.5c-5.33301 0 -10.833 1.16699 -16.5 3.5s-11.834 5.16602 -18.501 8.49902c-23.333 14.667 -42.166 25 -56.499 31s-30.166 9 -47.499 9c-27.333 0 -50.166 -10.333 -68.499 -31
s-27.5 -51.667 -27.5 -93h66c2 17.333 5.83301 29.5 11.5 36.5s13.5 10.5 23.5 10.5c5.33301 0 10.5 -1.16699 15.5 -3.5l17.5 -8.5c23.333 -14.667 42.5 -25 57.5 -31s31.167 -9 48.5 -9c27.333 0 49.833 10.667 67.5 32s26.5 52.666 26.5 93.999z" />
    <glyph glyph-name="adieresis" unicode="&#xe4;" horiz-adv-x="434" 
d="M378 0l0.00195312 379c0 29.333 -2.83301 54 -8.5 74s-14.834 36.167 -27.501 48.5s-29 21.166 -49 26.499s-44 8 -72 8c-24 0 -49.167 -4.33301 -75.5 -13s-51.5 -21 -75.5 -37l41 -73c20 12 38 20.5 54 25.5s32.333 7.5 49 7.5c25.333 0 43 -6.16699 53 -18.5
s15 -31.166 15 -56.499v-51c-10.667 5.33301 -22.667 9.5 -36 12.5s-28 4.5 -44 4.5c-50 0 -91 -14.333 -123 -43s-48 -71.667 -48 -129c0 -29.333 3.83301 -55 11.5 -77s18 -40.333 31 -55s28.167 -25.667 45.5 -33s35.666 -11 54.999 -11c23.333 0 43.833 4 61.5 12
s33.167 19.667 46.5 35v-36h96zM282.002 125c-18.667 -32.667 -48.332 -49 -88.999 -49c-20.667 0 -36.834 7.33301 -48.501 22s-17.5 37.667 -17.5 69c0 28.667 7 49.667 21 63s32.333 20 55 20c18 0 32.833 -1.5 44.5 -4.5s23.167 -8.16699 34.5 -15.5v-105zM369.004 652
c0 17.333 -6.16699 32.166 -18.5 44.499s-26.833 18.5 -43.5 18.5c-17.333 0 -32.166 -6.16699 -44.499 -18.5s-18.5 -27.166 -18.5 -44.499c0 -16.667 6.16699 -31.167 18.5 -43.5s27.166 -18.5 44.499 -18.5c16.667 0 31.167 6.16699 43.5 18.5s18.5 26.833 18.5 43.5z
M192.004 652c0 17.333 -6.16699 32.166 -18.5 44.499s-26.833 18.5 -43.5 18.5c-17.333 0 -32.166 -6.16699 -44.499 -18.5s-18.5 -27.166 -18.5 -44.499c0 -16.667 6.16699 -31.167 18.5 -43.5s27.166 -18.5 44.499 -18.5c16.667 0 31.167 6.16699 43.5 18.5
s18.5 26.833 18.5 43.5z" />
    <glyph glyph-name="aring" unicode="&#xe5;" horiz-adv-x="434" 
d="M378 0l0.00195312 379c0 29.333 -2.83301 54 -8.5 74s-14.834 36.167 -27.501 48.5s-29 21.166 -49 26.499s-44 8 -72 8c-24 0 -49.167 -4.33301 -75.5 -13s-51.5 -21 -75.5 -37l41 -73c20 12 38 20.5 54 25.5s32.333 7.5 49 7.5c25.333 0 43 -6.16699 53 -18.5
s15 -31.166 15 -56.499v-51c-10.667 5.33301 -22.667 9.5 -36 12.5s-28 4.5 -44 4.5c-50 0 -91 -14.333 -123 -43s-48 -71.667 -48 -129c0 -29.333 3.83301 -55 11.5 -77s18 -40.333 31 -55s28.167 -25.667 45.5 -33s35.666 -11 54.999 -11c23.333 0 43.833 4 61.5 12
s33.167 19.667 46.5 35v-36h96zM282.002 125c-18.667 -32.667 -48.332 -49 -88.999 -49c-20.667 0 -36.834 7.33301 -48.501 22s-17.5 37.667 -17.5 69c0 28.667 7 49.667 21 63s32.333 20 55 20c18 0 32.833 -1.5 44.5 -4.5s23.167 -8.16699 34.5 -15.5v-105zM331.004 707
c0 32.667 -10.667 59.667 -32 81s-48.333 32 -81 32s-59.667 -10.667 -81 -32s-32 -48.333 -32 -81s10.667 -59.5 32 -80.5s48.333 -31.5 81 -31.5s59.667 10.5 81 31.5s32 47.833 32 80.5zM273.004 707c0 -16 -5.33301 -29.333 -16 -40s-23.667 -16 -39 -16
s-28.333 5.33301 -39 16s-16 24 -16 40s5.33301 29.333 16 40s23.667 16 39 16s28.333 -5.33301 39 -16s16 -24 16 -40z" />
    <glyph glyph-name="ae" unicode="&#xe6;" horiz-adv-x="685" 
d="M646 264c0 46 -4.66895 86 -14.002 120s-22.333 62.167 -39 84.5s-36.334 39.166 -59.001 50.499s-47 17 -73 17c-28 0 -51.667 -6.16699 -71 -18.5s-34.666 -26.833 -45.999 -43.5c-6 10 -12.167 19 -18.5 27s-14.333 14.5 -24 19.5s-21.167 8.83301 -34.5 11.5
s-29.666 4 -48.999 4c-23.333 0 -47.833 -4.33301 -73.5 -13s-50.5 -21 -74.5 -37l41 -73c20 12 38 20.5 54 25.5s32.333 7.5 49 7.5c25.333 0 43 -6.16699 53 -18.5s15 -31.166 15 -56.499v-51c-10.667 5.33301 -22.667 9.5 -36 12.5s-28 4.5 -44 4.5
c-50 0 -91 -14.333 -123 -43s-48 -71.667 -48 -129c0 -29.333 3.83301 -55 11.5 -77s18 -40.333 31 -55s28.167 -25.667 45.5 -33s35.666 -11 54.999 -11c36 0 66 6.66699 90 20s46.667 32 68 56c14.667 -24.667 32.334 -43.5 53.001 -56.5s48 -19.5 82 -19.5
s64 6.66699 90 20s48 30 66 50l-59 61c-15.333 -14 -29.5 -24 -42.5 -30s-30.5 -9 -52.5 -9c-28 0 -50.667 11.833 -68 35.5s-27.666 61.5 -30.999 113.5h275c0.666992 5.33301 1 11 1 17v17zM547.998 313h-176.998c8 88.667 37.333 133 88 133
c27.333 0 48.666 -12.333 63.999 -37s23.666 -56.667 24.999 -96zM282 125c-18.667 -32.667 -48.332 -49 -88.999 -49c-20.667 0 -36.834 7.33301 -48.501 22s-17.5 37.667 -17.5 69c0 28.667 7 49.667 21 63s32.333 20 55 20c18 0 32.833 -1.5 44.5 -4.5
s23.167 -8.16699 34.5 -15.5v-105z" />
    <glyph glyph-name="ccedilla" unicode="&#xe7;" horiz-adv-x="410" 
d="M375 82l-69.002 56.999c-13.333 -20.667 -26 -35.5 -38 -44.5s-26 -13.5 -42 -13.5c-32 0 -55 16.167 -69 48.5s-21 76.5 -21 132.5c0 58 6.83301 102.833 20.5 134.5s35.834 47.5 66.501 47.5c17.333 0 32 -4.66699 44 -14s24.667 -24.666 38 -45.999l69 60
c-7.33301 12.667 -15.666 24.667 -24.999 36s-20 21.166 -32 29.499s-25.5 14.833 -40.5 19.5s-31.833 7 -50.5 7c-58.667 0 -104.5 -22.833 -137.5 -68.5s-49.5 -114.834 -49.5 -207.501c0 -80.667 12.833 -142.834 38.5 -186.501s60.5 -70.5 104.5 -80.5l-15 -72l32 -13
c7.33301 4.66699 13.333 7.83398 18 9.50098s11 2.5 19 2.5c7.33301 0 13.5 -2.66699 18.5 -8s7.5 -13.666 7.5 -24.999s-4 -20.166 -12 -26.499s-20.333 -9.5 -37 -9.5c-11.333 0 -23.5 1.33301 -36.5 4s-25.167 7 -36.5 13l-20 -32c16 -9.33301 31.833 -16.5 47.5 -21.5
s33.5 -7.5 53.5 -7.5c34 0 60.333 6.66699 79 20s28 34.333 28 63c0 24.667 -6.33301 42.667 -19 54s-27.667 17 -45 17c-18 0 -32 -3 -42 -9l7 37c36 1.33301 65 10.5 87 27.5s41.667 38.833 59 65.5z" />
    <glyph glyph-name="egrave" unicode="&#xe8;" horiz-adv-x="450" 
d="M411 264c0 46 -4.66504 86.001 -13.998 120.001s-22.333 62.167 -39 84.5s-36.334 39.166 -59.001 50.499s-47 17 -73 17c-28 0 -53.333 -5.83301 -76 -17.5s-42.334 -29 -59.001 -52s-29.5 -51.667 -38.5 -86s-13.5 -74.5 -13.5 -120.5
c0 -41.333 4.16699 -78.666 12.5 -111.999s20.666 -61.833 36.999 -85.5s36.5 -41.834 60.5 -54.501s51.667 -19 83 -19c34 0 64 6.66699 90 20s48 30 66 50l-59 61c-15.333 -14 -29.5 -24 -42.5 -30s-30.5 -9 -52.5 -9c-28 0 -50.667 11.833 -68 35.5
s-27.666 61.5 -30.999 113.5h275c0.666992 5.33301 1 11 1 17v17zM313.002 313.001h-176.998c8 88.667 37.333 133 88 133c27.333 0 48.666 -12.333 63.999 -37s23.666 -56.667 24.999 -96zM275.004 595.001l-92 160h-135l145 -160h82z" />
    <glyph glyph-name="eacute" unicode="&#xe9;" horiz-adv-x="450" 
d="M411 264c0 46 -4.66504 86.001 -13.998 120.001s-22.333 62.167 -39 84.5s-36.334 39.166 -59.001 50.499s-47 17 -73 17c-28 0 -53.333 -5.83301 -76 -17.5s-42.334 -29 -59.001 -52s-29.5 -51.667 -38.5 -86s-13.5 -74.5 -13.5 -120.5
c0 -41.333 4.16699 -78.666 12.5 -111.999s20.666 -61.833 36.999 -85.5s36.5 -41.834 60.5 -54.501s51.667 -19 83 -19c34 0 64 6.66699 90 20s48 30 66 50l-59 61c-15.333 -14 -29.5 -24 -42.5 -30s-30.5 -9 -52.5 -9c-28 0 -50.667 11.833 -68 35.5
s-27.666 61.5 -30.999 113.5h275c0.666992 5.33301 1 11 1 17v17zM313.002 313.001h-176.998c8 88.667 37.333 133 88 133c27.333 0 48.666 -12.333 63.999 -37s23.666 -56.667 24.999 -96zM402.004 755.001h-135l-92 -160h82z" />
    <glyph glyph-name="ecircumflex" unicode="&#xea;" horiz-adv-x="450" 
d="M411 264c0 46 -4.66504 86.001 -13.998 120.001s-22.333 62.167 -39 84.5s-36.334 39.166 -59.001 50.499s-47 17 -73 17c-28 0 -53.333 -5.83301 -76 -17.5s-42.334 -29 -59.001 -52s-29.5 -51.667 -38.5 -86s-13.5 -74.5 -13.5 -120.5
c0 -41.333 4.16699 -78.666 12.5 -111.999s20.666 -61.833 36.999 -85.5s36.5 -41.834 60.5 -54.501s51.667 -19 83 -19c34 0 64 6.66699 90 20s48 30 66 50l-59 61c-15.333 -14 -29.5 -24 -42.5 -30s-30.5 -9 -52.5 -9c-28 0 -50.667 11.833 -68 35.5
s-27.666 61.5 -30.999 113.5h275c0.666992 5.33301 1 11 1 17v17zM313.002 313.001h-176.998c8 88.667 37.333 133 88 133c27.333 0 48.666 -12.333 63.999 -37s23.666 -56.667 24.999 -96zM379.004 585.001l-102 160h-104l-102 -160h76l77 88l77 -88h78z" />
    <glyph glyph-name="edieresis" unicode="&#xeb;" horiz-adv-x="450" 
d="M411 264c0 46 -4.66504 86.001 -13.998 120.001s-22.333 62.167 -39 84.5s-36.334 39.166 -59.001 50.499s-47 17 -73 17c-28 0 -53.333 -5.83301 -76 -17.5s-42.334 -29 -59.001 -52s-29.5 -51.667 -38.5 -86s-13.5 -74.5 -13.5 -120.5
c0 -41.333 4.16699 -78.666 12.5 -111.999s20.666 -61.833 36.999 -85.5s36.5 -41.834 60.5 -54.501s51.667 -19 83 -19c34 0 64 6.66699 90 20s48 30 66 50l-59 61c-15.333 -14 -29.5 -24 -42.5 -30s-30.5 -9 -52.5 -9c-28 0 -50.667 11.833 -68 35.5
s-27.666 61.5 -30.999 113.5h275c0.666992 5.33301 1 11 1 17v17zM313.002 313.001h-176.998c8 88.667 37.333 133 88 133c27.333 0 48.666 -12.333 63.999 -37s23.666 -56.667 24.999 -96zM376.004 652.001c0 17.333 -6.16699 32.166 -18.5 44.499s-26.833 18.5 -43.5 18.5
c-17.333 0 -32.166 -6.16699 -44.499 -18.5s-18.5 -27.166 -18.5 -44.499c0 -16.667 6.16699 -31.167 18.5 -43.5s27.166 -18.5 44.499 -18.5c16.667 0 31.167 6.16699 43.5 18.5s18.5 26.833 18.5 43.5zM199.004 652.001c0 17.333 -6.16699 32.166 -18.5 44.499
s-26.833 18.5 -43.5 18.5c-17.333 0 -32.166 -6.16699 -44.499 -18.5s-18.5 -27.166 -18.5 -44.499c0 -16.667 6.16699 -31.167 18.5 -43.5s27.166 -18.5 44.499 -18.5c16.667 0 31.167 6.16699 43.5 18.5s18.5 26.833 18.5 43.5z" />
    <glyph glyph-name="igrave" unicode="&#xec;" horiz-adv-x="220" 
d="M158 0v525h-96v-525h96zM155 595l-92 160h-135l145 -160h82z" />
    <glyph glyph-name="iacute" unicode="&#xed;" horiz-adv-x="220" 
d="M158 0v525h-96v-525h96zM292 755h-135l-92 -160h82z" />
    <glyph glyph-name="icircumflex" unicode="&#xee;" horiz-adv-x="220" 
d="M158 0v525h-96v-525h96zM264 580l-102 160h-104l-102 -160h76l77 88l77 -88h78z" />
    <glyph glyph-name="idieresis" unicode="&#xef;" horiz-adv-x="220" 
d="M158 0v525h-96v-525h96zM261 657c0 17.333 -6.16699 32.166 -18.5 44.499s-26.833 18.5 -43.5 18.5c-17.333 0 -32.166 -6.16699 -44.499 -18.5s-18.5 -27.166 -18.5 -44.499c0 -16.667 6.16699 -31.167 18.5 -43.5s27.166 -18.5 44.499 -18.5
c16.667 0 31.167 6.16699 43.5 18.5s18.5 26.833 18.5 43.5zM84 657c0 17.333 -6.16699 32.166 -18.5 44.499s-26.833 18.5 -43.5 18.5c-17.333 0 -32.166 -6.16699 -44.499 -18.5s-18.5 -27.166 -18.5 -44.499c0 -16.667 6.16699 -31.167 18.5 -43.5
s27.166 -18.5 44.499 -18.5c16.667 0 31.167 6.16699 43.5 18.5s18.5 26.833 18.5 43.5z" />
    <glyph glyph-name="eth" unicode="&#xf0;" horiz-adv-x="456" 
d="M417 291c0 149.333 -28.3359 258.335 -85.0029 327.002l42 44l-56 49l-41 -43c-36.667 23.333 -81.667 37.666 -135 42.999v-82c28 -2.66699 53.333 -10.334 76 -23.001l-39 -41l56 -49l39 41c24.667 -33.333 40.334 -75 47.001 -125
c-15.333 17.333 -30.833 29.333 -46.5 36s-35.167 10 -58.5 10c-53.333 0 -96.166 -21.167 -128.499 -63.5s-48.5 -103.833 -48.5 -184.5c0 -41.333 4.5 -77.166 13.5 -107.499s21.833 -55.333 38.5 -75s36.334 -34.334 59.001 -44.001s47.667 -14.5 75 -14.5
c34 0 63 5.66699 87 17s43.833 29 59.5 53s27.167 55.167 34.5 93.5s11 84.5 11 138.5zM319.997 232.002c0 -100.667 -30.667 -151 -92 -151c-30 0 -52.833 11.667 -68.5 35s-23.5 62 -23.5 116s7.66699 92.833 23 116.5s38 35.5 68 35.5s53 -11.833 69 -35.5
s24 -62.5 24 -116.5z" />
    <glyph glyph-name="ntilde" unicode="&#xf1;" horiz-adv-x="446" 
d="M392 0v339.001c0 66.667 -10.167 116.167 -30.5 148.5s-55.833 48.5 -106.5 48.5c-22.667 0 -42.667 -4.5 -60 -13.5s-31.333 -20.167 -42 -33.5v36h-96v-525h96v397c9.33301 15.333 20.833 27.166 34.5 35.499s28.167 12.5 43.5 12.5c24 0 40.833 -9.33301 50.5 -28
s14.5 -50 14.5 -94v-323h96zM391 716.001l-66.002 0.00195312c-2 -17.333 -5.5 -29.833 -10.5 -37.5s-12.5 -11.5 -22.5 -11.5c-5.33301 0 -10.833 1.16699 -16.5 3.5s-11.834 5.16602 -18.501 8.49902c-23.333 14.667 -42.166 25 -56.499 31s-30.166 9 -47.499 9
c-27.333 0 -50.166 -10.333 -68.499 -31s-27.5 -51.667 -27.5 -93h66c2 17.333 5.83301 29.5 11.5 36.5s13.5 10.5 23.5 10.5c5.33301 0 10.5 -1.16699 15.5 -3.5l17.5 -8.5c23.333 -14.667 42.5 -25 57.5 -31s31.167 -9 48.5 -9c27.333 0 49.833 10.667 67.5 32
s26.5 52.666 26.5 93.999z" />
    <glyph glyph-name="ograve" unicode="&#xf2;" horiz-adv-x="456" 
d="M417 264c0 46 -4.66895 86.002 -14.002 120.002s-22.166 62.167 -38.499 84.5s-36 39.166 -59 50.499s-48.5 17 -76.5 17c-58.667 0 -105 -22.833 -139 -68.5s-51 -114.834 -51 -207.501c0 -46 4.5 -86 13.5 -120s21.833 -62.167 38.5 -84.5s36.334 -39 59.001 -50
s47.667 -16.5 75 -16.5c58 0 104.5 22.833 139.5 68.5s52.5 114.5 52.5 206.5zM319.998 262.002c0 -54.667 -7.83301 -98.5 -23.5 -131.5s-38.5 -49.5 -68.5 -49.5c-61.333 0 -92 60.333 -92 181c0 121.333 30.333 182 91 182c30 0 53 -15.333 69 -46s24 -76 24 -136z
M275.998 595.002l-92 160h-135l145 -160h82z" />
    <glyph glyph-name="oacute" unicode="&#xf3;" horiz-adv-x="456" 
d="M417 264c0 46 -4.66895 86.002 -14.002 120.002s-22.166 62.167 -38.499 84.5s-36 39.166 -59 50.499s-48.5 17 -76.5 17c-58.667 0 -105 -22.833 -139 -68.5s-51 -114.834 -51 -207.501c0 -46 4.5 -86 13.5 -120s21.833 -62.167 38.5 -84.5s36.334 -39 59.001 -50
s47.667 -16.5 75 -16.5c58 0 104.5 22.833 139.5 68.5s52.5 114.5 52.5 206.5zM319.998 262.002c0 -54.667 -7.83301 -98.5 -23.5 -131.5s-38.5 -49.5 -68.5 -49.5c-61.333 0 -92 60.333 -92 181c0 121.333 30.333 182 91 182c30 0 53 -15.333 69 -46s24 -76 24 -136z
M402.998 755.002h-135l-92 -160h82z" />
    <glyph glyph-name="ocircumflex" unicode="&#xf4;" horiz-adv-x="456" 
d="M417 264c0 46 -4.66895 86.002 -14.002 120.002s-22.166 62.167 -38.499 84.5s-36 39.166 -59 50.499s-48.5 17 -76.5 17c-58.667 0 -105 -22.833 -139 -68.5s-51 -114.834 -51 -207.501c0 -46 4.5 -86 13.5 -120s21.833 -62.167 38.5 -84.5s36.334 -39 59.001 -50
s47.667 -16.5 75 -16.5c58 0 104.5 22.833 139.5 68.5s52.5 114.5 52.5 206.5zM319.998 262.002c0 -54.667 -7.83301 -98.5 -23.5 -131.5s-38.5 -49.5 -68.5 -49.5c-61.333 0 -92 60.333 -92 181c0 121.333 30.333 182 91 182c30 0 53 -15.333 69 -46s24 -76 24 -136z
M379.998 585.002l-102 160h-104l-102 -160h76l77 88l77 -88h78z" />
    <glyph glyph-name="otilde" unicode="&#xf5;" horiz-adv-x="456" 
d="M417 264c0 46 -4.66895 86.002 -14.002 120.002s-22.166 62.167 -38.499 84.5s-36 39.166 -59 50.499s-48.5 17 -76.5 17c-58.667 0 -105 -22.833 -139 -68.5s-51 -114.834 -51 -207.501c0 -46 4.5 -86 13.5 -120s21.833 -62.167 38.5 -84.5s36.334 -39 59.001 -50
s47.667 -16.5 75 -16.5c58 0 104.5 22.833 139.5 68.5s52.5 114.5 52.5 206.5zM319.998 262.002c0 -54.667 -7.83301 -98.5 -23.5 -131.5s-38.5 -49.5 -68.5 -49.5c-61.333 0 -92 60.333 -92 181c0 121.333 30.333 182 91 182c30 0 53 -15.333 69 -46s24 -76 24 -136z
M395.998 716.002l-66.002 0.00195312c-2 -17.333 -5.5 -29.833 -10.5 -37.5s-12.5 -11.5 -22.5 -11.5c-5.33301 0 -10.833 1.16699 -16.5 3.5s-11.834 5.16602 -18.501 8.49902c-23.333 14.667 -42.166 25 -56.499 31s-30.166 9 -47.499 9
c-27.333 0 -50.166 -10.333 -68.499 -31s-27.5 -51.667 -27.5 -93h66c2 17.333 5.83301 29.5 11.5 36.5s13.5 10.5 23.5 10.5c5.33301 0 10.5 -1.16699 15.5 -3.5l17.5 -8.5c23.333 -14.667 42.5 -25 57.5 -31s31.167 -9 48.5 -9c27.333 0 49.833 10.667 67.5 32
s26.5 52.666 26.5 93.999z" />
    <glyph glyph-name="odieresis" unicode="&#xf6;" horiz-adv-x="456" 
d="M417 264c0 46 -4.66895 86.002 -14.002 120.002s-22.166 62.167 -38.499 84.5s-36 39.166 -59 50.499s-48.5 17 -76.5 17c-58.667 0 -105 -22.833 -139 -68.5s-51 -114.834 -51 -207.501c0 -46 4.5 -86 13.5 -120s21.833 -62.167 38.5 -84.5s36.334 -39 59.001 -50
s47.667 -16.5 75 -16.5c58 0 104.5 22.833 139.5 68.5s52.5 114.5 52.5 206.5zM319.998 262.002c0 -54.667 -7.83301 -98.5 -23.5 -131.5s-38.5 -49.5 -68.5 -49.5c-61.333 0 -92 60.333 -92 181c0 121.333 30.333 182 91 182c30 0 53 -15.333 69 -46s24 -76 24 -136z
M376.998 647.002c0 17.333 -6.16699 32.166 -18.5 44.499s-26.833 18.5 -43.5 18.5c-17.333 0 -32.166 -6.16699 -44.499 -18.5s-18.5 -27.166 -18.5 -44.499c0 -16.667 6.16699 -31.167 18.5 -43.5s27.166 -18.5 44.499 -18.5c16.667 0 31.167 6.16699 43.5 18.5
s18.5 26.833 18.5 43.5zM199.998 647.002c0 17.333 -6.16699 32.166 -18.5 44.499s-26.833 18.5 -43.5 18.5c-17.333 0 -32.166 -6.16699 -44.499 -18.5s-18.5 -27.166 -18.5 -44.499c0 -16.667 6.16699 -31.167 18.5 -43.5s27.166 -18.5 44.499 -18.5
c16.667 0 31.167 6.16699 43.5 18.5s18.5 26.833 18.5 43.5z" />
    <glyph glyph-name="divide" unicode="&#xf7;" 
d="M730 346l-179.002 125.002c-5.33301 4.66699 -10.666 5.66699 -15.999 3c-6.66699 -6 -8.66699 -12.333 -6 -19l19 -63h-127v134l63 -19c4 -1.33301 7.16699 -1.33301 9.5 0s5.16602 3.66602 8.49902 6.99902c2 4.66699 1 10 -3 16l-124 178l-126 -177
c-3.33301 -7.33301 -4 -13 -2 -17c3.33301 -3.33301 6.33301 -5.83301 9 -7.5s6.33398 -1.5 11.001 0.5l62 19v-134h-127l19 63c2.66699 6.66699 0.333984 13 -6.99902 19c-4.66699 2.66699 -9.66699 1.66699 -15 -3l-179 -125l177 -125
c6.66699 -3.33301 12.334 -4 17.001 -2c3.33301 3.33301 5.83301 6.16602 7.5 8.49902s1.5 6.16602 -0.5 11.499l-19 61h127v-137l-62 20c-7.33301 3.33301 -14 1.33301 -20 -6c-2 -4.66699 -1.33301 -10.334 2 -17.001l126 -178l124 178c4.66699 6 5.66699 11.667 3 17
c-5.33301 6.66699 -11.333 8.66699 -18 6l-63 -20v137h127l-19 -61c-2 -5.33301 -2.33301 -9.16602 -1 -11.499s3.66602 -5.16602 6.99902 -8.49902c4.66699 -2 10 -1.33301 16 2z" />
    <glyph glyph-name="oslash" unicode="&#xf8;" horiz-adv-x="456" 
d="M417 264c0 52 -5.83301 96.501 -17.5 133.501s-28.167 66.5 -49.5 88.5l33 89h-82l-17 -47c-18 5.33301 -36.333 8 -55 8c-58.667 0 -105 -22.833 -139 -68.5s-51 -114.834 -51 -207.501c0 -52 5.66699 -96.167 17 -132.5s27.333 -65.833 48 -88.5l-33 -89h82l17 47
c18 -5.33301 36.333 -8 55 -8c58 0 104.5 22.833 139.5 68.5s52.5 114.5 52.5 206.5zM253 444.001l-108 -293.999c-8.66699 28 -13 65.333 -13 112c0 61.333 8.16699 107.666 24.5 138.999s39.833 47 70.5 47c10 0 18.667 -1.33301 26 -4zM324 262.002
c0 -56 -8.33203 -100.833 -24.999 -134.5s-40.334 -50.5 -71.001 -50.5c-10 0 -19 1.33301 -27 4l109 295c9.33301 -29.333 14 -67.333 14 -114z" />
    <glyph glyph-name="ugrave" unicode="&#xf9;" horiz-adv-x="446" 
d="M389 0v524.999h-96v-397c-9.33301 -15.333 -20.833 -27.166 -34.5 -35.499s-28.167 -12.5 -43.5 -12.5c-24 0 -40.833 9.33301 -50.5 28s-14.5 50 -14.5 94v323h-96v-339c0 -66.667 10.167 -116.167 30.5 -148.5s55.833 -48.5 106.5 -48.5c22.667 0 42.667 4.5 60 13.5
s31.333 20.167 42 33.5v-36h96zM269 594.999l-92 160h-135l145 -160h82z" />
    <glyph glyph-name="uacute" unicode="&#xfa;" horiz-adv-x="446" 
d="M389 0v524.999h-96v-397c-9.33301 -15.333 -20.833 -27.166 -34.5 -35.499s-28.167 -12.5 -43.5 -12.5c-24 0 -40.833 9.33301 -50.5 28s-14.5 50 -14.5 94v323h-96v-339c0 -66.667 10.167 -116.167 30.5 -148.5s55.833 -48.5 106.5 -48.5c22.667 0 42.667 4.5 60 13.5
s31.333 20.167 42 33.5v-36h96zM396 754.999h-135l-92 -160h82z" />
    <glyph glyph-name="ucircumflex" unicode="&#xfb;" horiz-adv-x="446" 
d="M389 0v524.999h-96v-397c-9.33301 -15.333 -20.833 -27.166 -34.5 -35.499s-28.167 -12.5 -43.5 -12.5c-24 0 -40.833 9.33301 -50.5 28s-14.5 50 -14.5 94v323h-96v-339c0 -66.667 10.167 -116.167 30.5 -148.5s55.833 -48.5 106.5 -48.5c22.667 0 42.667 4.5 60 13.5
s31.333 20.167 42 33.5v-36h96zM373 594.999l-102 160h-104l-102 -160h76l77 88l77 -88h78z" />
    <glyph glyph-name="udieresis" unicode="&#xfc;" horiz-adv-x="446" 
d="M389 0v524.999h-96v-397c-9.33301 -15.333 -20.833 -27.166 -34.5 -35.499s-28.167 -12.5 -43.5 -12.5c-24 0 -40.833 9.33301 -50.5 28s-14.5 50 -14.5 94v323h-96v-339c0 -66.667 10.167 -116.167 30.5 -148.5s55.833 -48.5 106.5 -48.5c22.667 0 42.667 4.5 60 13.5
s31.333 20.167 42 33.5v-36h96zM370 656.999c0 17.333 -6.16699 32.166 -18.5 44.499s-26.833 18.5 -43.5 18.5c-17.333 0 -32.166 -6.16699 -44.499 -18.5s-18.5 -27.166 -18.5 -44.499c0 -16.667 6.16699 -31.167 18.5 -43.5s27.166 -18.5 44.499 -18.5
c16.667 0 31.167 6.16699 43.5 18.5s18.5 26.833 18.5 43.5zM193 656.999c0 17.333 -6.16699 32.166 -18.5 44.499s-26.833 18.5 -43.5 18.5c-17.333 0 -32.166 -6.16699 -44.499 -18.5s-18.5 -27.166 -18.5 -44.499c0 -16.667 6.16699 -31.167 18.5 -43.5
s27.166 -18.5 44.499 -18.5c16.667 0 31.167 6.16699 43.5 18.5s18.5 26.833 18.5 43.5z" />
    <glyph glyph-name="yacute" unicode="&#xfd;" horiz-adv-x="434" 
d="M412 525h-102l-62 -248c-2.66699 -10 -5.5 -21.833 -8.5 -35.5l-9 -41.5l-8.5 -39c-2.66699 -12 -4.66699 -21.333 -6 -28l-5.5 28c-2.33301 12 -5 24.833 -8 38.5l-9 41c-3 13.667 -5.83301 25.5 -8.5 35.5l-61 249h-102l146 -525l-57 -185h94zM391 745h-135l-92 -160
h82z" />
    <glyph glyph-name="thorn" unicode="&#xfe;" horiz-adv-x="448" 
d="M409 257c0 52 -3.83008 95.833 -11.4971 131.5s-18.334 64.5 -32.001 86.5s-30.167 37.667 -49.5 47s-41 14 -65 14c-23.333 0 -42.333 -4.33301 -57 -13s-28.334 -19.667 -41.001 -33v239l-96 -50v-872l96 50v171c25.333 -26 55.666 -39 90.999 -39
c52 0 92.5 22.667 121.5 68s43.5 112 43.5 200zM312.003 252c0 -62 -6.5 -106.333 -19.5 -133s-31.833 -40 -56.5 -40c-15.333 0 -30.333 3.83301 -45 11.5s-27.334 19.5 -38.001 35.5v272c8.66699 14 19.834 25.5 33.501 34.5s28.5 13.5 44.5 13.5
c28 0 48.5 -15.167 61.5 -45.5s19.5 -79.833 19.5 -148.5z" />
    <glyph glyph-name="ydieresis" unicode="&#xff;" horiz-adv-x="434" 
d="M412 525h-102l-62 -248c-2.66699 -10 -5.5 -21.833 -8.5 -35.5l-9 -41.5l-8.5 -39c-2.66699 -12 -4.66699 -21.333 -6 -28l-5.5 28c-2.33301 12 -5 24.833 -8 38.5l-9 41c-3 13.667 -5.83301 25.5 -8.5 35.5l-61 249h-102l146 -525l-57 -185h94zM365 647
c0 17.333 -6.16699 32.166 -18.5 44.499s-26.833 18.5 -43.5 18.5c-17.333 0 -32.166 -6.16699 -44.499 -18.5s-18.5 -27.166 -18.5 -44.499c0 -16.667 6.16699 -31.167 18.5 -43.5s27.166 -18.5 44.499 -18.5c16.667 0 31.167 6.16699 43.5 18.5s18.5 26.833 18.5 43.5z
M188 647c0 17.333 -6.16699 32.166 -18.5 44.499s-26.833 18.5 -43.5 18.5c-17.333 0 -32.166 -6.16699 -44.499 -18.5s-18.5 -27.166 -18.5 -44.499c0 -16.667 6.16699 -31.167 18.5 -43.5s27.166 -18.5 44.499 -18.5c16.667 0 31.167 6.16699 43.5 18.5
s18.5 26.833 18.5 43.5z" />
    <glyph glyph-name="dotlessi" unicode="&#x131;" horiz-adv-x="220" 
d="M158 0v525h-96v-525h96z" />
    <glyph glyph-name="Lslash" unicode="&#x141;" horiz-adv-x="428" 
d="M402 0v96h-226v199l103 82v105l-103 -82v300h-96v-368l-40 -33v-105l40 33v-227h322z" />
    <glyph glyph-name="lslash" unicode="&#x142;" horiz-adv-x="248" 
d="M214 340v105l-43 -35v319l-94 -50v-337l-43 -34v-105l43 34v-237h94v305z" />
    <glyph glyph-name="OE" unicode="&#x152;" horiz-adv-x="735" 
d="M702 0l-0.000976562 95.001h-244v229h151v94h-151v187h231v95h-309v-67c-11.333 25.333 -27.833 44.666 -49.5 57.999s-46.5 20 -74.5 20c-37.333 0 -69.166 -9.33301 -95.499 -28s-48.166 -44.334 -65.499 -77.001s-30 -71 -38 -115s-12 -91.333 -12 -142s4 -98 12 -142
s20.5 -82.167 37.5 -114.5s38.667 -57.666 65 -75.999s58.166 -27.5 95.499 -27.5c26.667 0 50.5 6.66699 71.5 20s38.833 31.333 53.5 54v-63h322zM367.999 349.001c0 -32.667 -1.66602 -64.667 -4.99902 -96s-9.33301 -59.333 -18 -84s-20 -44.5 -34 -59.5
s-31.667 -22.5 -53 -22.5s-39.166 7.66699 -53.499 23s-26 35.5 -35 60.5s-15.333 53.167 -19 84.5s-5.5 63.333 -5.5 96s1.66699 64.667 5 96s9.16602 59.333 17.499 84s19.5 44.5 33.5 59.5s31.667 22.5 53 22.5s39.166 -7.66699 53.499 -23s26 -35.5 35 -60.5
s15.5 -53.167 19.5 -84.5s6 -63.333 6 -96z" />
    <glyph glyph-name="oe" unicode="&#x153;" horiz-adv-x="725" 
d="M686 264c0 46 -4.66895 86.002 -14.002 120.002s-22.333 62.167 -39 84.5s-36.334 39.166 -59.001 50.499s-47 17 -73 17c-32 0 -59.333 -7.66699 -82 -23s-40.667 -35.666 -54 -60.999c-12.667 25.333 -30.5 45.666 -53.5 60.999s-50.5 23 -82.5 23
c-58.667 0 -105 -22.833 -139 -68.5s-51 -114.834 -51 -207.501c0 -46 4.5 -86 13.5 -120s21.833 -62.167 38.5 -84.5s36.334 -39 59.001 -50s47.667 -16.5 75 -16.5c34 0 62.833 8 86.5 24s41.834 36.333 54.501 61c11.333 -24 28.833 -44.167 52.5 -60.5
s53.167 -24.5 88.5 -24.5c34 0 64 6.66699 90 20s48 30 66 50l-59 61c-15.333 -14 -29.5 -24 -42.5 -30s-30.5 -9 -52.5 -9c-28 0 -50.667 11.833 -68 35.5s-27.666 61.5 -30.999 113.5h275c0.666992 5.33301 1 11 1 17v17zM587.998 313.002h-176.998
c8 88.667 37.333 133 88 133c27.333 0 48.666 -12.333 63.999 -37s23.666 -56.667 24.999 -96zM320 262.002c0 -54.667 -7.83301 -98.5 -23.5 -131.5s-38.5 -49.5 -68.5 -49.5c-61.333 0 -92 60.333 -92 181c0 121.333 30.333 182 91 182c30 0 53 -15.333 69 -46
s24 -76 24 -136z" />
    <glyph glyph-name="Scaron" unicode="&#x160;" horiz-adv-x="443" 
d="M403 181c0 29.333 -3.99805 55 -11.998 77s-19 41.833 -33 59.5s-30.5 33.667 -49.5 48s-39.5 28.5 -61.5 42.5c-19.333 12.667 -35.5 24.167 -48.5 34.5s-23.5 20.5 -31.5 30.5s-13.667 20.167 -17 30.5s-5 22.166 -5 35.499c0 22 6.33301 39.833 19 53.5
s30.667 20.5 54 20.5c10.667 0 20.5 -1 29.5 -3s17.333 -5.5 25 -10.5s15.167 -11.333 22.5 -19s15.333 -17.167 24 -28.5l72 64c-21.333 30.667 -44.833 54.167 -70.5 70.5s-58.834 24.5 -99.501 24.5c-27.333 0 -51.833 -4.33301 -73.5 -13s-40.167 -20.834 -55.5 -36.501
s-27.166 -34.167 -35.499 -55.5s-12.5 -44.666 -12.5 -69.999c0 -27.333 3.66699 -51.5 11 -72.5s17.333 -39.667 30 -56s27.5 -31.333 44.5 -45s35.5 -26.834 55.5 -39.501c23.333 -15.333 42.666 -29.166 57.999 -41.499s27.333 -24 36 -35s14.667 -22.167 18 -33.5
s5 -23.666 5 -36.999c0 -28.667 -7.33301 -50.667 -22 -66s-35.334 -23 -62.001 -23c-21.333 0 -40.833 5.5 -58.5 16.5s-36.167 31.5 -55.5 61.5l-77 -62c20 -34 44.833 -61.5 74.5 -82.5s66.5 -31.5 110.5 -31.5c30.667 0 58 4.66699 82 14s44 22.5 60 39.5
s28.167 37.333 36.5 61s12.5 49.5 12.5 77.5zM368.002 910h-76l-77 -88l-77 88h-78l102 -160h104z" />
    <glyph glyph-name="scaron" unicode="&#x161;" horiz-adv-x="389" 
d="M351 144c0 21.333 -2.83301 39.8281 -8.5 55.4951s-13.667 29.834 -24 42.501s-23.166 24.334 -38.499 35.001s-33 21.667 -53 33c-18 10 -32.5 18.833 -43.5 26.5s-19.667 14.834 -26 21.501s-10.666 13.167 -12.999 19.5s-3.5 13.5 -3.5 21.5
c0 13.333 4.16699 24.333 12.5 33s21.5 13 39.5 13c16.667 0 34.167 -3.5 52.5 -10.5s36.166 -16.5 53.499 -28.5l39 81c-19.333 15.333 -41.333 27.333 -66 36s-50.334 13 -77.001 13c-48 0 -85 -12.833 -111 -38.5s-39 -61.5 -39 -107.5c0 -20.667 2.66699 -38.667 8 -54
s12.666 -28.833 21.999 -40.5s20.833 -22.334 34.5 -32.001s28.5 -19.167 44.5 -28.5l46.5 -28c13 -8 23.5 -15.667 31.5 -23s13.833 -14.666 17.5 -21.999s5.5 -15.666 5.5 -24.999c0 -17.333 -6.16699 -31.166 -18.5 -41.499s-29.166 -15.5 -50.499 -15.5
c-33.333 0 -74 15 -122 45l-37 -80c23.333 -17.333 49 -31 77 -41s56 -15 84 -15c51.333 0 91.333 13.333 120 40s43 65 43 115zM342 754.995h-76l-77 -88l-77 88h-78l102 -160h104z" />
    <glyph glyph-name="Ydieresis" unicode="&#x178;" horiz-adv-x="493" 
d="M471 700l-107.001 -0.000976562l-60 -145c-4 -9.33301 -8.66699 -21 -14 -35l-16 -42.5c-5.33301 -14.333 -10.166 -28 -14.499 -41l-9.5 -28.5l-9.5 28c-4.33301 12.667 -9.33301 26.334 -15 41.001l-16.5 43c-5.33301 14 -10 25.333 -14 34l-62 146h-111l178 -390v-310
h98v313zM397.999 801.999c0 17.333 -6.16699 32.166 -18.5 44.499s-26.833 18.5 -43.5 18.5c-17.333 0 -32.166 -6.16699 -44.499 -18.5s-18.5 -27.166 -18.5 -44.499c0 -16.667 6.16699 -31.167 18.5 -43.5s27.166 -18.5 44.499 -18.5c16.667 0 31.167 6.16699 43.5 18.5
s18.5 26.833 18.5 43.5zM220.999 801.999c0 17.333 -6.16699 32.166 -18.5 44.499s-26.833 18.5 -43.5 18.5c-17.333 0 -32.166 -6.16699 -44.499 -18.5s-18.5 -27.166 -18.5 -44.499c0 -16.667 6.16699 -31.167 18.5 -43.5s27.166 -18.5 44.499 -18.5
c16.667 0 31.167 6.16699 43.5 18.5s18.5 26.833 18.5 43.5z" />
    <glyph glyph-name="Zcaron" unicode="&#x17d;" horiz-adv-x="460" 
d="M413 0v91h-174c-17.333 0 -35.833 -0.166992 -55.5 -0.5s-34.834 -0.833008 -45.501 -1.5l12 21l17.5 31.5l19.5 36.5l19 36l201 395v91h-340v-91h141c17.333 0 35.833 0.166992 55.5 0.5s34.834 0.833008 45.501 1.5l-12 -21l-17.5 -31.5l-19.5 -37l-19 -36.5l-200 -394
v-91h372zM386 905h-76l-77 -88l-77 88h-78l102 -160h104z" />
    <glyph glyph-name="zcaron" unicode="&#x17e;" horiz-adv-x="407" 
d="M361 0v89h-126h-23h-26c-8.66699 0 -17 -0.166992 -25 -0.5s-14.333 -0.5 -19 -0.5c6.66699 8 14.167 18.5 22.5 31.5l26.5 42.5l170 282v81h-308v-89h114h23h26c8.66699 0 17 0.166992 25 0.5s14.333 0.5 19 0.5c-6.66699 -8 -14.167 -18.5 -22.5 -31.5l-26.5 -42.5
l-175 -281v-82h325zM356 755h-76l-77 -88l-77 88h-78l102 -160h104z" />
    <glyph glyph-name="florin" unicode="&#x192;" horiz-adv-x="340" 
d="M309 619l-0.000976562 82c-12 3.33301 -25.167 5.83301 -39.5 7.5s-29.166 2.5 -44.499 2.5c-38 0 -68 -9.33301 -90 -28s-33 -51.667 -33 -99v-59h-53v-88h53v-630l96 52v578h96v88h-96v44c0 19.333 4 33.5 12 42.5s22.333 13.5 43 13.5c7.33301 0 16.5 -0.5 27.5 -1.5
s20.5 -2.5 28.5 -4.5z" />
    <glyph glyph-name="circumflex" unicode="&#x2c6;" horiz-adv-x="400" 
d="M354 595l-102 160h-104l-102 -160h76l77 88l77 -88h78z" />
    <glyph glyph-name="caron" unicode="&#x2c7;" horiz-adv-x="400" 
d="M354 755h-76l-77 -88l-77 88h-78l102 -160h104z" />
    <glyph glyph-name="breve" unicode="&#x2d8;" horiz-adv-x="400" 
d="M355 755h-69.001c-6 -26 -15.167 -45.833 -27.5 -59.5s-31.166 -20.5 -56.499 -20.5c-26 0 -45.5 6.83301 -58.5 20.5s-22.167 33.5 -27.5 59.5h-69c5.33301 -50.667 21 -90 47 -118s61.333 -42 106 -42c46.667 0 82.5 14.667 107.5 44s40.833 68 47.5 116z" />
    <glyph glyph-name="dotaccent" unicode="&#x2d9;" horiz-adv-x="400" 
d="M264 659c0 17.333 -6.33301 32.5 -19 45.5s-27.667 19.5 -45 19.5s-32.5 -6.5 -45.5 -19.5s-19.5 -28.167 -19.5 -45.5s6.5 -32.333 19.5 -45s28.167 -19 45.5 -19s32.333 6.33301 45 19s19 27.667 19 45z" />
    <glyph glyph-name="ring" unicode="&#x2da;" horiz-adv-x="400" 
d="M313 707c0 32.667 -10.667 59.667 -32 81s-48.333 32 -81 32s-59.667 -10.667 -81 -32s-32 -48.333 -32 -81s10.667 -59.5 32 -80.5s48.333 -31.5 81 -31.5s59.667 10.5 81 31.5s32 47.833 32 80.5zM255 707c0 -16 -5.33301 -29.333 -16 -40s-23.667 -16 -39 -16
s-28.333 5.33301 -39 16s-16 24 -16 40s5.33301 29.333 16 40s23.667 16 39 16s28.333 -5.33301 39 -16s16 -24 16 -40z" />
    <glyph glyph-name="ogonek" unicode="&#x2db;" horiz-adv-x="400" 
d="M306 -150l-22.001 33c-15.333 -9.33301 -27.666 -15.666 -36.999 -18.999s-19 -5 -29 -5c-13.333 0 -23 3.66699 -29 11s-9 17.333 -9 30c0 13.333 4.5 28 13.5 44s24.167 34.667 45.5 56h-50c-25.333 -15.333 -46 -32.833 -62 -52.5s-24 -40.5 -24 -62.5
c0 -24.667 7.66699 -43.834 23 -57.501s38.333 -20.5 69 -20.5c20.667 0 40 4 58 12s35.667 18.333 53 31z" />
    <glyph glyph-name="tilde" unicode="&#x2dc;" horiz-adv-x="400" 
d="M370 716l-66.002 0.00195312c-2 -17.333 -5.5 -29.833 -10.5 -37.5s-12.5 -11.5 -22.5 -11.5c-5.33301 0 -10.833 1.16699 -16.5 3.5s-11.834 5.16602 -18.501 8.49902c-23.333 14.667 -42.166 25 -56.499 31s-30.166 9 -47.499 9c-27.333 0 -50.166 -10.333 -68.499 -31
s-27.5 -51.667 -27.5 -93h66c2 17.333 5.83301 29.5 11.5 36.5s13.5 10.5 23.5 10.5c5.33301 0 10.5 -1.16699 15.5 -3.5l17.5 -8.5c23.333 -14.667 42.5 -25 57.5 -31s31.167 -9 48.5 -9c27.333 0 49.833 10.667 67.5 32s26.5 52.666 26.5 93.999z" />
    <glyph glyph-name="hungarumlaut" unicode="&#x2dd;" horiz-adv-x="400" 
d="M424 755h-130l-97 -160h82zM234 755h-130l-97 -160h82z" />
    <glyph glyph-name="pi" unicode="&#x3c0;" horiz-adv-x="646" 
d="M601 350c0 54.667 -7 104.167 -21 148.5s-33.333 82.333 -58 114s-54 56 -88 73s-71 25.5 -111 25.5s-77 -8.5 -111 -25.5s-63.333 -41.333 -88 -73s-44 -69.667 -58 -114s-21 -93.833 -21 -148.5s7 -104.167 21 -148.5s33.333 -82.333 58 -114s54 -56 88 -73
s71 -25.5 111 -25.5s77 8.5 111 25.5s63.333 41.333 88 73s44 69.667 58 114s21 93.833 21 148.5zM543 349c0 -46 -5.00195 -87.667 -15.002 -125s-24.5 -69.333 -43.5 -96s-41.833 -47.334 -68.5 -62.001s-57 -22 -91 -22s-64.667 7.33301 -92 22
s-50.666 35.5 -69.999 62.5s-34.166 59.333 -44.499 97s-15.5 79.5 -15.5 125.5s5.16699 87.667 15.5 125s25 69.333 44 96s42 47.334 69 62.001s57.5 22 91.5 22s64.5 -7.33301 91.5 -22s50 -35.5 69 -62.5s33.667 -59.333 44 -97s15.5 -79.5 15.5 -125.5zM451.998 432
c0 20.667 -3.33301 38.1689 -10 52.502s-15.334 26.166 -26.001 35.499s-22.667 16.166 -36 20.499s-26.666 6.5 -39.999 6.5h-111v-394h58v159h50c14.667 0 29 2.5 43 7.5s26.333 12.5 37 22.5s19.167 22.5 25.5 37.5s9.5 32.5 9.5 52.5zM391.998 430.002
c0 -20.667 -5.33301 -36.167 -16 -46.5s-23.667 -15.5 -39 -15.5h-50v123h50c14 0 26.667 -4.66699 38 -14s17 -25 17 -47z" />
    <glyph glyph-name="endash" unicode="&#x2013;" horiz-adv-x="400" 
d="M360 319v94h-320v-94h320z" />
    <glyph glyph-name="emdash" unicode="&#x2014;" horiz-adv-x="550" 
d="M510 319v94h-470v-94h470z" />
    <glyph glyph-name="quoteleft" unicode="&#x2018;" horiz-adv-x="242" 
d="M180 700h-65l-67 -239h119z" />
    <glyph glyph-name="quoteright" unicode="&#x2019;" horiz-adv-x="242" 
d="M194 700h-119l-13 -239h65z" />
    <glyph glyph-name="quotesinglbase" unicode="&#x201a;" horiz-adv-x="242" 
d="M194 126h-119l-13 -239h65z" />
    <glyph glyph-name="quotedblleft" unicode="&#x201c;" horiz-adv-x="457" 
d="M395 700h-65l-67 -239h119zM180 700h-65l-67 -239h119z" />
    <glyph glyph-name="quotedblright" unicode="&#x201d;" horiz-adv-x="457" 
d="M409 700h-119l-13 -239h65zM194 700h-119l-13 -239h65z" />
    <glyph glyph-name="quotedblbase" unicode="&#x201e;" horiz-adv-x="457" 
d="M409 126h-119l-13 -239h65zM194 126h-119l-13 -239h65z" />
    <glyph glyph-name="dagger" unicode="&#x2020;" horiz-adv-x="442" 
d="M410 384v90h-141v226h-96v-226h-141v-90h141v-484h96v484h141z" />
    <glyph glyph-name="daggerdbl" unicode="&#x2021;" horiz-adv-x="442" 
d="M410 127v90h-141v167h141v90h-141v226h-96v-226h-141v-90h141v-167h-141v-90h141v-227h96v227h141z" />
    <glyph glyph-name="bullet" unicode="&#x2022;" horiz-adv-x="400" 
d="M350 366c0 20.667 -3.83301 40.334 -11.5 59.001s-18.334 34.834 -32.001 48.501s-29.667 24.5 -48 32.5s-37.833 12 -58.5 12c-21.333 0 -41 -4 -59 -12s-33.833 -18.833 -47.5 -32.5s-24.334 -29.834 -32.001 -48.501s-11.5 -38.334 -11.5 -59.001
c0 -21.333 3.83301 -41 11.5 -59s18.334 -33.833 32.001 -47.5s29.5 -24.334 47.5 -32.001s37.667 -11.5 59 -11.5c20.667 0 40.167 3.83301 58.5 11.5s34.333 18.334 48 32.001s24.334 29.5 32.001 47.5s11.5 37.667 11.5 59z" />
    <glyph glyph-name="ellipsis" unicode="&#x2026;" horiz-adv-x="696" 
d="M651 60c0 20 -6.83301 37 -20.5 51s-30.5 21 -50.5 21s-36.833 -7 -50.5 -21s-20.5 -31 -20.5 -51s6.83301 -36.833 20.5 -50.5s30.5 -20.5 50.5 -20.5s36.833 6.83301 50.5 20.5s20.5 30.5 20.5 50.5zM419 60c0 20 -6.83301 37 -20.5 51s-30.5 21 -50.5 21
s-36.833 -7 -50.5 -21s-20.5 -31 -20.5 -51s6.83301 -36.833 20.5 -50.5s30.5 -20.5 50.5 -20.5s36.833 6.83301 50.5 20.5s20.5 30.5 20.5 50.5zM187 60c0 20 -6.83301 37 -20.5 51s-30.5 21 -50.5 21s-36.833 -7 -50.5 -21s-20.5 -31 -20.5 -51
s6.83301 -36.833 20.5 -50.5s30.5 -20.5 50.5 -20.5s36.833 6.83301 50.5 20.5s20.5 30.5 20.5 50.5z" />
    <glyph glyph-name="perthousand" unicode="&#x2030;" horiz-adv-x="1203" 
d="M347 494c0 32 -2.66602 61.168 -7.99902 87.501s-14 49.166 -26 68.499s-27.333 34.333 -46 45s-41.334 16 -68.001 16c-26 0 -48.333 -5.33301 -67 -16s-34.167 -25.667 -46.5 -45s-21.333 -42.5 -27 -69.5s-8.5 -56.5 -8.5 -88.5s2.83301 -61.167 8.5 -87.5
s14.5 -49 26.5 -68s27.333 -33.833 46 -44.5s40.667 -16 66 -16s47.5 5.33301 66.5 16s34.667 25.667 47 45s21.5 42.333 27.5 69s9 56 9 88zM653.001 700.001h-88l-369 -700h88zM1160 207.001c0 32 -2.66602 61.168 -7.99902 87.501s-14 49.166 -26 68.499
s-27.333 34.333 -46 45s-41.334 16 -68.001 16c-26 0 -48.333 -5.33301 -67 -16s-34.167 -25.667 -46.5 -45s-21.333 -42.5 -27 -69.5s-8.5 -56.5 -8.5 -88.5s2.83301 -61.167 8.5 -87.5s14.5 -49 26.5 -68s27.333 -33.833 46 -44.5s40.667 -16 66 -16s47.5 5.33301 66.5 16
s34.667 25.667 47 45s21.5 42.333 27.5 69s9 56 9 88zM805.002 207.002c0 32 -2.66602 61.168 -7.99902 87.501s-14 49.166 -26 68.499s-27.333 34.333 -46 45s-41.334 16 -68.001 16c-26 0 -48.333 -5.33301 -67 -16s-34.167 -25.667 -46.5 -45s-21.333 -42.5 -27 -69.5
s-8.5 -56.5 -8.5 -88.5s2.83301 -61.167 8.5 -87.5s14.5 -49 26.5 -68s27.333 -33.833 46 -44.5s40.667 -16 66 -16s47.5 5.33301 66.5 16s34.667 25.667 47 45s21.5 42.333 27.5 69s9 56 9 88zM265.003 492.003c0 -19.333 -1.16895 -37.333 -3.50195 -54
s-6.16602 -31.5 -11.499 -44.5s-12.166 -23.167 -20.499 -30.5s-18.5 -11 -30.5 -11c-24 0 -41 13.167 -51 39.5s-15 60.5 -15 102.5s4.83301 75.667 14.5 101s26.5 38 50.5 38s41.167 -13 51.5 -39s15.5 -60 15.5 -102zM1078 205.003
c0 -19.333 -1.16895 -37.333 -3.50195 -54s-6.16602 -31.5 -11.499 -44.5s-12.166 -23.167 -20.499 -30.5s-18.5 -11 -30.5 -11c-24 0 -41 13.167 -51 39.5s-15 60.5 -15 102.5s4.83301 75.667 14.5 101s26.5 38 50.5 38s41.167 -13 51.5 -39s15.5 -60 15.5 -102z
M722.999 205.003c0 -19.333 -1.16895 -37.333 -3.50195 -54s-6.16602 -31.5 -11.499 -44.5s-12.166 -23.167 -20.499 -30.5s-18.5 -11 -30.5 -11c-24 0 -41 13.167 -51 39.5s-15 60.5 -15 102.5s4.83301 75.667 14.5 101s26.5 38 50.5 38s41.167 -13 51.5 -39
s15.5 -60 15.5 -102z" />
    <glyph glyph-name="guilsinglleft" unicode="&#x2039;" horiz-adv-x="298" 
d="M253 0l-130 263l130 262h-98l-135 -263l135 -262h98z" />
    <glyph glyph-name="guilsinglright" unicode="&#x203a;" horiz-adv-x="298" 
d="M278 263l-135 262h-98l130 -263l-130 -262h98z" />
    <glyph glyph-name="fraction" unicode="&#x2044;" horiz-adv-x="389" 
d="M441 700h-104l-389 -700h104z" />
    <glyph glyph-name="Euro" unicode="&#x20ac;" horiz-adv-x="465" 
d="M139 390l176.002 0.000976562v77h-168c3.33301 20.667 7.66602 40 12.999 58s12 33.833 20 47.5s17.5 24.5 28.5 32.5s23.5 12 37.5 12c26.667 0 46.5 -8 59.5 -24s24.5 -42.333 34.5 -79l94 26c-5.33301 24.667 -12.5 47.5 -21.5 68.5s-20.833 39.167 -35.5 54.5
s-32.667 27.166 -54 35.499s-46.666 12.5 -75.999 12.5c-35.333 0 -65.833 -9.33301 -91.5 -28s-46.834 -44.334 -63.501 -77.001s-29 -71 -37 -115s-12 -91.333 -12 -142c0 -50 3.66699 -96.833 11 -140.5s19 -81.667 35 -114s36.667 -58 62 -77s56.333 -28.5 93 -28.5
c28.667 0 53.5 4 74.5 12s39 19.667 54 35s27.5 34 37.5 56s18.333 46.667 25 74l-91 29c-8.66699 -37.333 -19.834 -65.333 -33.501 -84s-33.5 -28 -59.5 -28c-28 0 -50.5 14.5 -67.5 43.5s-29.167 65.833 -36.5 110.5h168v77h-176c-0.666992 6 -1 12 -1 18v19v19
c0 6.66699 0.333008 13.334 1 20.001z" />
    <glyph glyph-name="trademark" unicode="&#x2122;" horiz-adv-x="575" 
d="M220 643v57h-201v-57h73v-336h57v336h71zM539 307l0.000976562 392.998h-59l-51 -162c-3.33301 -10.667 -7.33301 -24.167 -12 -40.5s-8 -30.833 -10 -43.5c-2 12 -5.66699 26 -11 42l-13 40l-51 164h-59v-393h55v159v19c0 7.33301 -0.166992 15 -0.5 23
s-0.5 15.667 -0.5 23v20l6.5 -20.5l7 -24l7 -24l6.5 -20.5l51 -164l51 164l7 22l8 26l7.5 25c2.33301 8 4.16602 14.667 5.49902 20c0 -11.333 -0.166992 -26.166 -0.5 -44.499s-0.5 -33.166 -0.5 -44.499v-159h56z" />
    <glyph glyph-name="Omega" unicode="&#x2126;" horiz-adv-x="356" 
d="M306 515c2.66699 5.33301 1.66895 11.667 -2.99805 19l-125 179l-126 -179c-4 -8 -4.66699 -14.333 -2 -19c3.33301 -4 6.66602 -6.83301 9.99902 -8.5s7.66602 -1.5 12.999 0.5l57 18v-525h96v525l58 -18c8.66699 -2.66699 16 0 22 8z" />
    <glyph glyph-name="partialdiff" unicode="&#x2202;" horiz-adv-x="356" 
d="M306 185c-6 8 -13.333 10.668 -22 8.00098l-58 -18v350l58 -18c8.66699 -2.66699 16 0 22 8c2.66699 5.33301 1.66699 11.666 -3 18.999l-125 179l-126 -179c-4 -8 -4.66699 -14.333 -2 -19c3.33301 -4 6.66602 -6.83301 9.99902 -8.5s7.66602 -1.5 12.999 0.5l57 18
v-350l-57 18c-5.33301 2 -9.66602 2.16699 -12.999 0.5s-6.66602 -4.5 -9.99902 -8.5c-2.66699 -5.33301 -2 -11.666 2 -18.999l126 -179l125 179c4.66699 7.33301 5.66699 13.666 3 18.999z" />
    <glyph glyph-name="Delta" unicode="&#x2206;" horiz-adv-x="550" 
d="M505 298v96.002h-297l18 58c2.66699 8.66699 0 16 -8 22c-5.33301 2.66699 -11.666 1.66699 -18.999 -3l-179 -125l179 -126c7.33301 -4 13.666 -4.66699 18.999 -2c4 3.33301 6.83301 6.66602 8.5 9.99902s1.5 7.66602 -0.5 12.999l-18 57h297z" />
    <glyph glyph-name="product" unicode="&#x220f;" 
d="M730 346l-179.002 125.002c-5.33301 4.66699 -10.666 5.66699 -15.999 3c-6.66699 -6 -8.66699 -12.333 -6 -19l19 -63h-127v134l63 -19c4 -1.33301 7.16699 -1.33301 9.5 0s5.16602 3.66602 8.49902 6.99902c2 4.66699 1 10 -3 16l-124 178l-126 -177
c-3.33301 -7.33301 -4 -13 -2 -17c3.33301 -3.33301 6.33301 -5.83301 9 -7.5s6.33398 -1.5 11.001 0.5l62 19v-134h-127l19 63c2.66699 6.66699 0.333984 13 -6.99902 19c-4.66699 2.66699 -9.66699 1.66699 -15 -3l-179 -125l177 -125
c6.66699 -3.33301 12.334 -4 17.001 -2c3.33301 3.33301 5.83301 6.16602 7.5 8.49902s1.5 6.16602 -0.5 11.499l-19 61h127v-137l-62 20c-7.33301 3.33301 -14 1.33301 -20 -6c-2 -4.66699 -1.33301 -10.334 2 -17.001l126 -178l124 178c4.66699 6 5.66699 11.667 3 17
c-5.33301 6.66699 -11.333 8.66699 -18 6l-63 -20v137h127l-19 -61c-2 -5.33301 -2.33301 -9.16602 -1 -11.499s3.66602 -5.16602 6.99902 -8.49902c4.66699 -2 10 -1.33301 16 2z" />
    <glyph glyph-name="summation" unicode="&#x2211;" 
d="M730 346l-179.002 125.002c-5.33301 4.66699 -10.666 5.66699 -15.999 3c-6.66699 -6 -8.66699 -12.333 -6 -19l19 -63h-127v134l63 -19c4 -1.33301 7.16699 -1.33301 9.5 0s5.16602 3.66602 8.49902 6.99902c2 4.66699 1 10 -3 16l-124 178l-126 -177
c-3.33301 -7.33301 -4 -13 -2 -17c3.33301 -3.33301 6.33301 -5.83301 9 -7.5s6.33398 -1.5 11.001 0.5l62 19v-134h-127l19 63c2.66699 6.66699 0.333984 13 -6.99902 19c-4.66699 2.66699 -9.66699 1.66699 -15 -3l-179 -125l177 -125
c6.66699 -3.33301 12.334 -4 17.001 -2c3.33301 3.33301 5.83301 6.16602 7.5 8.49902s1.5 6.16602 -0.5 11.499l-19 61h127v-137l-62 20c-7.33301 3.33301 -14 1.33301 -20 -6c-2 -4.66699 -1.33301 -10.334 2 -17.001l126 -178l124 178c4.66699 6 5.66699 11.667 3 17
c-5.33301 6.66699 -11.333 8.66699 -18 6l-63 -20v137h127l-19 -61c-2 -5.33301 -2.33301 -9.16602 -1 -11.499s3.66602 -5.16602 6.99902 -8.49902c4.66699 -2 10 -1.33301 16 2z" />
    <glyph glyph-name="minus" unicode="&#x2212;" 
d="M730 346l-179.002 125.002c-5.33301 4.66699 -10.666 5.66699 -15.999 3c-6.66699 -6 -8.66699 -12.333 -6 -19l19 -63h-127v134l63 -19c4 -1.33301 7.16699 -1.33301 9.5 0s5.16602 3.66602 8.49902 6.99902c2 4.66699 1 10 -3 16l-124 178l-126 -177
c-3.33301 -7.33301 -4 -13 -2 -17c3.33301 -3.33301 6.33301 -5.83301 9 -7.5s6.33398 -1.5 11.001 0.5l62 19v-134h-127l19 63c2.66699 6.66699 0.333984 13 -6.99902 19c-4.66699 2.66699 -9.66699 1.66699 -15 -3l-179 -125l177 -125
c6.66699 -3.33301 12.334 -4 17.001 -2c3.33301 3.33301 5.83301 6.16602 7.5 8.49902s1.5 6.16602 -0.5 11.499l-19 61h127v-137l-62 20c-7.33301 3.33301 -14 1.33301 -20 -6c-2 -4.66699 -1.33301 -10.334 2 -17.001l126 -178l124 178c4.66699 6 5.66699 11.667 3 17
c-5.33301 6.66699 -11.333 8.66699 -18 6l-63 -20v137h127l-19 -61c-2 -5.33301 -2.33301 -9.16602 -1 -11.499s3.66602 -5.16602 6.99902 -8.49902c4.66699 -2 10 -1.33301 16 2z" />
    <glyph glyph-name="radical" unicode="&#x221a;" horiz-adv-x="490" 
d="M475 700l-103 0.000976562l-138 -454c-3.33301 -10 -6.83301 -21.5 -10.5 -34.5l-11 -39l-10.5 -37c-3.33301 -11.667 -6 -21.5 -8 -29.5l-7 29c-2.66699 11.333 -5.66699 23.166 -9 35.499l-10.5 37.5l-9.5 34l-29 98h-107l123 -340h99z" />
    <glyph glyph-name="infinity" unicode="&#x221e;" 
d="M730 346l-179.002 125.002c-5.33301 4.66699 -10.666 5.66699 -15.999 3c-6.66699 -6 -8.66699 -12.333 -6 -19l19 -63h-127v134l63 -19c4 -1.33301 7.16699 -1.33301 9.5 0s5.16602 3.66602 8.49902 6.99902c2 4.66699 1 10 -3 16l-124 178l-126 -177
c-3.33301 -7.33301 -4 -13 -2 -17c3.33301 -3.33301 6.33301 -5.83301 9 -7.5s6.33398 -1.5 11.001 0.5l62 19v-134h-127l19 63c2.66699 6.66699 0.333984 13 -6.99902 19c-4.66699 2.66699 -9.66699 1.66699 -15 -3l-179 -125l177 -125
c6.66699 -3.33301 12.334 -4 17.001 -2c3.33301 3.33301 5.83301 6.16602 7.5 8.49902s1.5 6.16602 -0.5 11.499l-19 61h127v-137l-62 20c-7.33301 3.33301 -14 1.33301 -20 -6c-2 -4.66699 -1.33301 -10.334 2 -17.001l126 -178l124 178c4.66699 6 5.66699 11.667 3 17
c-5.33301 6.66699 -11.333 8.66699 -18 6l-63 -20v137h127l-19 -61c-2 -5.33301 -2.33301 -9.16602 -1 -11.499s3.66602 -5.16602 6.99902 -8.49902c4.66699 -2 10 -1.33301 16 2z" />
    <glyph glyph-name="integral" unicode="&#x222b;" horiz-adv-x="448" 
d="M391 0l-0.00292969 525h-96v-28c-25.333 26 -55.666 39 -90.999 39c-52 0 -92.5 -22.667 -121.5 -68s-43.5 -112 -43.5 -200c0 -52 3.83301 -95.833 11.5 -131.5s18.334 -64.5 32.001 -86.5s30.167 -37.667 49.5 -47s41 -14 65 -14c23.333 0 42.333 4.33301 57 13
s28.334 19.667 41.001 33v-35h96zM294.997 127c-8.66699 -14 -19.834 -25.5 -33.501 -34.5s-28.5 -13.5 -44.5 -13.5c-28 0 -48.5 15.167 -61.5 45.5s-19.5 79.833 -19.5 148.5c0 62 6.33301 106.333 19 133s31.667 40 57 40c15.333 0 30.333 -3.83301 45 -11.5
s27.334 -19.5 38.001 -35.5v-272z" />
    <glyph glyph-name="approxequal" unicode="&#x2248;" horiz-adv-x="356" 
d="M306 185c-6 8 -13.335 10.667 -22.002 8l-58 -18v525h-96v-525l-57 18c-5.33301 2 -9.66602 2.16699 -12.999 0.5s-6.66602 -4.5 -9.99902 -8.5c-2.66699 -5.33301 -2 -11.666 2 -18.999l126 -179l125 179c4.66699 7.33301 5.66699 13.666 3 18.999z" />
    <glyph glyph-name="notequal" unicode="&#x2260;" 
d="M730 346l-179.002 125.002c-5.33301 4.66699 -10.666 5.66699 -15.999 3c-6.66699 -6 -8.66699 -12.333 -6 -19l19 -63h-127v134l63 -19c4 -1.33301 7.16699 -1.33301 9.5 0s5.16602 3.66602 8.49902 6.99902c2 4.66699 1 10 -3 16l-124 178l-126 -177
c-3.33301 -7.33301 -4 -13 -2 -17c3.33301 -3.33301 6.33301 -5.83301 9 -7.5s6.33398 -1.5 11.001 0.5l62 19v-134h-127l19 63c2.66699 6.66699 0.333984 13 -6.99902 19c-4.66699 2.66699 -9.66699 1.66699 -15 -3l-179 -125l177 -125
c6.66699 -3.33301 12.334 -4 17.001 -2c3.33301 3.33301 5.83301 6.16602 7.5 8.49902s1.5 6.16602 -0.5 11.499l-19 61h127v-137l-62 20c-7.33301 3.33301 -14 1.33301 -20 -6c-2 -4.66699 -1.33301 -10.334 2 -17.001l126 -178l124 178c4.66699 6 5.66699 11.667 3 17
c-5.33301 6.66699 -11.333 8.66699 -18 6l-63 -20v137h127l-19 -61c-2 -5.33301 -2.33301 -9.16602 -1 -11.499s3.66602 -5.16602 6.99902 -8.49902c4.66699 -2 10 -1.33301 16 2z" />
    <glyph glyph-name="lessequal" unicode="&#x2264;" 
d="M730 346l-179.002 125.002c-5.33301 4.66699 -10.666 5.66699 -15.999 3c-6.66699 -6 -8.66699 -12.333 -6 -19l19 -63h-127v134l63 -19c4 -1.33301 7.16699 -1.33301 9.5 0s5.16602 3.66602 8.49902 6.99902c2 4.66699 1 10 -3 16l-124 178l-126 -177
c-3.33301 -7.33301 -4 -13 -2 -17c3.33301 -3.33301 6.33301 -5.83301 9 -7.5s6.33398 -1.5 11.001 0.5l62 19v-134h-127l19 63c2.66699 6.66699 0.333984 13 -6.99902 19c-4.66699 2.66699 -9.66699 1.66699 -15 -3l-179 -125l177 -125
c6.66699 -3.33301 12.334 -4 17.001 -2c3.33301 3.33301 5.83301 6.16602 7.5 8.49902s1.5 6.16602 -0.5 11.499l-19 61h127v-137l-62 20c-7.33301 3.33301 -14 1.33301 -20 -6c-2 -4.66699 -1.33301 -10.334 2 -17.001l126 -178l124 178c4.66699 6 5.66699 11.667 3 17
c-5.33301 6.66699 -11.333 8.66699 -18 6l-63 -20v137h127l-19 -61c-2 -5.33301 -2.33301 -9.16602 -1 -11.499s3.66602 -5.16602 6.99902 -8.49902c4.66699 -2 10 -1.33301 16 2z" />
    <glyph glyph-name="greaterequal" unicode="&#x2265;" 
d="M730 346l-179.002 125.002c-5.33301 4.66699 -10.666 5.66699 -15.999 3c-6.66699 -6 -8.66699 -12.333 -6 -19l19 -63h-127v134l63 -19c4 -1.33301 7.16699 -1.33301 9.5 0s5.16602 3.66602 8.49902 6.99902c2 4.66699 1 10 -3 16l-124 178l-126 -177
c-3.33301 -7.33301 -4 -13 -2 -17c3.33301 -3.33301 6.33301 -5.83301 9 -7.5s6.33398 -1.5 11.001 0.5l62 19v-134h-127l19 63c2.66699 6.66699 0.333984 13 -6.99902 19c-4.66699 2.66699 -9.66699 1.66699 -15 -3l-179 -125l177 -125
c6.66699 -3.33301 12.334 -4 17.001 -2c3.33301 3.33301 5.83301 6.16602 7.5 8.49902s1.5 6.16602 -0.5 11.499l-19 61h127v-137l-62 20c-7.33301 3.33301 -14 1.33301 -20 -6c-2 -4.66699 -1.33301 -10.334 2 -17.001l126 -178l124 178c4.66699 6 5.66699 11.667 3 17
c-5.33301 6.66699 -11.333 8.66699 -18 6l-63 -20v137h127l-19 -61c-2 -5.33301 -2.33301 -9.16602 -1 -11.499s3.66602 -5.16602 6.99902 -8.49902c4.66699 -2 10 -1.33301 16 2z" />
    <glyph glyph-name="lozenge" unicode="&#x25ca;" 
d="M730 346l-179.002 125.002c-5.33301 4.66699 -10.666 5.66699 -15.999 3c-6.66699 -6 -8.66699 -12.333 -6 -19l19 -63h-127v134l63 -19c4 -1.33301 7.16699 -1.33301 9.5 0s5.16602 3.66602 8.49902 6.99902c2 4.66699 1 10 -3 16l-124 178l-126 -177
c-3.33301 -7.33301 -4 -13 -2 -17c3.33301 -3.33301 6.33301 -5.83301 9 -7.5s6.33398 -1.5 11.001 0.5l62 19v-134h-127l19 63c2.66699 6.66699 0.333984 13 -6.99902 19c-4.66699 2.66699 -9.66699 1.66699 -15 -3l-179 -125l177 -125
c6.66699 -3.33301 12.334 -4 17.001 -2c3.33301 3.33301 5.83301 6.16602 7.5 8.49902s1.5 6.16602 -0.5 11.499l-19 61h127v-137l-62 20c-7.33301 3.33301 -14 1.33301 -20 -6c-2 -4.66699 -1.33301 -10.334 2 -17.001l126 -178l124 178c4.66699 6 5.66699 11.667 3 17
c-5.33301 6.66699 -11.333 8.66699 -18 6l-63 -20v137h127l-19 -61c-2 -5.33301 -2.33301 -9.16602 -1 -11.499s3.66602 -5.16602 6.99902 -8.49902c4.66699 -2 10 -1.33301 16 2z" />
    <glyph glyph-name="apple" unicode="&#xf8ff;" 
d="M730 346l-179.002 125.002c-5.33301 4.66699 -10.666 5.66699 -15.999 3c-6.66699 -6 -8.66699 -12.333 -6 -19l19 -63h-127v134l63 -19c4 -1.33301 7.16699 -1.33301 9.5 0s5.16602 3.66602 8.49902 6.99902c2 4.66699 1 10 -3 16l-124 178l-126 -177
c-3.33301 -7.33301 -4 -13 -2 -17c3.33301 -3.33301 6.33301 -5.83301 9 -7.5s6.33398 -1.5 11.001 0.5l62 19v-134h-127l19 63c2.66699 6.66699 0.333984 13 -6.99902 19c-4.66699 2.66699 -9.66699 1.66699 -15 -3l-179 -125l177 -125
c6.66699 -3.33301 12.334 -4 17.001 -2c3.33301 3.33301 5.83301 6.16602 7.5 8.49902s1.5 6.16602 -0.5 11.499l-19 61h127v-137l-62 20c-7.33301 3.33301 -14 1.33301 -20 -6c-2 -4.66699 -1.33301 -10.334 2 -17.001l126 -178l124 178c4.66699 6 5.66699 11.667 3 17
c-5.33301 6.66699 -11.333 8.66699 -18 6l-63 -20v137h127l-19 -61c-2 -5.33301 -2.33301 -9.16602 -1 -11.499s3.66602 -5.16602 6.99902 -8.49902c4.66699 -2 10 -1.33301 16 2z" />
    <glyph glyph-name="fi" unicode="&#xfb01;" horiz-adv-x="505" 
d="M454 666c0 16.667 -5.83301 30.834 -17.5 42.501s-25.5 17.5 -41.5 17.5c-16.667 0 -30.834 -5.83301 -42.501 -17.5s-17.5 -25.834 -17.5 -42.501c0 -16 5.83301 -29.833 17.5 -41.5s25.834 -17.5 42.501 -17.5c16 0 29.833 5.83301 41.5 17.5s17.5 25.5 17.5 41.5z
M278 636v80c-20.667 6.66699 -47 10 -79 10c-34 0 -62.167 -10.333 -84.5 -31s-33.5 -52.667 -33.5 -96v-74h-53v-90h53v-435h96v435h86v90h-86v61c0 19.333 4.33301 33.5 13 42.5s24.667 13.5 48 13.5c14.667 0 28 -2 40 -6zM443 0v525h-96v-525h96z" />
    <glyph glyph-name="fl" unicode="&#xfb02;" horiz-adv-x="505" 
d="M443 0v729l-96 -50v-679h96zM278 636v80c-20.667 6.66699 -47 10 -79 10c-34 0 -62.167 -10.333 -84.5 -31s-33.5 -52.667 -33.5 -96v-74h-53v-90h53v-435h96v435h86v90h-86v61c0 19.333 4.33301 33.5 13 42.5s24.667 13.5 48 13.5c14.667 0 28 -2 40 -6z" />
    <glyph glyph-name=".null" horiz-adv-x="0" 
 />
    <glyph glyph-name="nonmarkingreturn" horiz-adv-x="500" 
 />
    <glyph glyph-name="NUL" horiz-adv-x="0" 
 />
    </font>
</defs>
</svg>
